<svg width="1600" height="1031" viewBox="0 0 1600 1031" fill="none" xmlns="http://www.w3.org/2000/svg">
<rect width="1600" height="1031" fill="url(#paint0_linear)"/>
<path d="M1432.77 146.74H262.7V921.17H1432.77V146.74Z" stroke="#FEE8E8" stroke-width="1.94" stroke-miterlimit="10"/>
<path d="M262.7 278.74H1432.77" stroke="#FEE8E8" stroke-width="1.94" stroke-miterlimit="10"/>
<path d="M262.7 410.73H1432.77" stroke="#FEE8E8" stroke-width="1.94" stroke-miterlimit="10"/>
<path d="M262.7 542.73H1432.77" stroke="#FEE8E8" stroke-width="1.94" stroke-miterlimit="10"/>
<path d="M1432.77 674.72H262.7" stroke="#FEE8E8" stroke-width="1.94" stroke-miterlimit="10"/>
<path d="M262.7 806.71H1432.77" stroke="#FEE8E8" stroke-width="1.94" stroke-miterlimit="10"/>
<path d="M386.21 146.74V921.18" stroke="#FEE8E8" stroke-width="1.94" stroke-miterlimit="10"/>
<path d="M501.05 146.74V921.18" stroke="#FEE8E8" stroke-width="1.94" stroke-miterlimit="10"/>
<path d="M615.891 146.74V921.18" stroke="#FEE8E8" stroke-width="1.94" stroke-miterlimit="10"/>
<path d="M730.73 146.74V921.18" stroke="#FEE8E8" stroke-width="1.94" stroke-miterlimit="10"/>
<path d="M845.561 146.74V921.18" stroke="#FEE8E8" stroke-width="1.94" stroke-miterlimit="10"/>
<path d="M960.4 146.74V921.18" stroke="#FEE8E8" stroke-width="1.94" stroke-miterlimit="10"/>
<path d="M1075.24 146.74V921.18" stroke="#FEE8E8" stroke-width="1.94" stroke-miterlimit="10"/>
<path d="M1190.07 146.74V921.18" stroke="#FEE8E8" stroke-width="1.94" stroke-miterlimit="10"/>
<path d="M1304.91 146.74V921.18" stroke="#FEE8E8" stroke-width="1.94" stroke-miterlimit="10"/>
<path d="M200.03 921.18H1468.53" stroke="#90000A" stroke-width="1.94" stroke-miterlimit="10"/>
<path d="M1139.08 619.38C1139.08 621.578 1138.43 623.727 1137.21 625.555C1135.99 627.383 1134.26 628.809 1132.23 629.651C1130.2 630.494 1127.96 630.715 1125.81 630.288C1123.65 629.86 1121.67 628.803 1120.12 627.249C1118.56 625.696 1117.5 623.717 1117.07 621.561C1116.65 619.406 1116.86 617.171 1117.71 615.141C1118.55 613.11 1119.97 611.374 1121.8 610.153C1123.62 608.932 1125.77 608.28 1127.97 608.28C1129.43 608.279 1130.87 608.565 1132.22 609.122C1133.57 609.679 1134.79 610.497 1135.83 611.528C1136.86 612.558 1137.68 613.783 1138.23 615.13C1138.79 616.477 1139.08 617.921 1139.08 619.38" fill="#FEE8E8"/>
<path d="M1033.53 328.67C1033.53 330.868 1032.88 333.017 1031.66 334.845C1030.44 336.673 1028.71 338.099 1026.68 338.941C1024.65 339.784 1022.41 340.005 1020.26 339.578C1018.1 339.15 1016.12 338.093 1014.57 336.54C1013.01 334.986 1011.95 333.007 1011.52 330.851C1011.1 328.696 1011.31 326.461 1012.16 324.431C1013 322.4 1014.42 320.664 1016.25 319.443C1018.07 318.222 1020.22 317.57 1022.42 317.57C1023.88 317.569 1025.32 317.855 1026.67 318.412C1028.02 318.969 1029.24 319.787 1030.28 320.818C1031.31 321.848 1032.13 323.073 1032.68 324.42C1033.24 325.767 1033.53 327.211 1033.53 328.67" fill="#FEE8E8"/>
<path d="M682.521 284.31L693.31 301.85L718.521 285.39L726.05 299.83L748.68 254.34L692.12 259.35L706.17 270.07L682.521 284.31Z" fill="#FEE8E8"/>
<path d="M689.83 106C689.828 108.59 689.058 111.122 687.617 113.274C686.175 115.426 684.128 117.102 681.733 118.09C679.339 119.078 676.705 119.334 674.166 118.824C671.626 118.315 669.295 117.063 667.467 115.228C665.639 113.393 664.396 111.057 663.896 108.515C663.397 105.974 663.662 103.341 664.659 100.951C665.656 98.56 667.34 96.519 669.498 95.0859C671.656 93.6528 674.19 92.8921 676.78 92.9C680.246 92.9132 683.565 94.2992 686.011 96.7545C688.457 99.2098 689.83 102.534 689.83 106Z" stroke="#FEE8E8" stroke-width="3.81" stroke-miterlimit="10"/>
<path d="M209.21 608.09C209.21 610.679 208.443 613.21 207.004 615.362C205.566 617.515 203.521 619.193 201.13 620.184C198.738 621.174 196.106 621.434 193.567 620.928C191.027 620.423 188.695 619.177 186.864 617.346C185.034 615.515 183.787 613.183 183.282 610.644C182.777 608.104 183.036 605.473 184.027 603.081C185.017 600.689 186.695 598.644 188.848 597.206C191.001 595.768 193.531 595 196.12 595C199.592 595 202.921 596.379 205.376 598.834C207.831 601.289 209.21 604.618 209.21 608.09V608.09Z" stroke="#FEE8E8" stroke-width="3.81" stroke-miterlimit="10"/>
<path d="M1494.66 278.72C1494.66 281.309 1493.89 283.84 1492.45 285.992C1491.02 288.145 1488.97 289.823 1486.58 290.814C1484.19 291.804 1481.56 292.064 1479.02 291.558C1476.48 291.053 1474.15 289.807 1472.31 287.976C1470.48 286.145 1469.24 283.813 1468.73 281.274C1468.23 278.735 1468.49 276.103 1469.48 273.711C1470.47 271.319 1472.15 269.274 1474.3 267.836C1476.45 266.398 1478.98 265.63 1481.57 265.63C1485.04 265.63 1488.37 267.009 1490.83 269.464C1493.28 271.919 1494.66 275.248 1494.66 278.72V278.72Z" stroke="#FEE8E8" stroke-width="3.81" stroke-miterlimit="10"/>
<g opacity="0.38">
<g opacity="0.38">
<path opacity="0.38" d="M1492.39 539.68C1492.39 540.946 1492.01 542.184 1491.31 543.237C1490.61 544.289 1489.61 545.11 1488.44 545.594C1487.27 546.078 1485.98 546.204 1484.74 545.956C1483.5 545.709 1482.36 545.098 1481.46 544.202C1480.57 543.306 1479.96 542.165 1479.71 540.922C1479.47 539.68 1479.59 538.393 1480.08 537.224C1480.57 536.055 1481.39 535.056 1482.44 534.354C1483.5 533.652 1484.73 533.278 1486 533.28C1486.84 533.28 1487.67 533.446 1488.45 533.767C1489.22 534.089 1489.93 534.561 1490.52 535.155C1491.12 535.75 1491.59 536.455 1491.91 537.232C1492.23 538.008 1492.39 538.84 1492.39 539.68Z" fill="#DCE0E5"/>
</g>
</g>
<path d="M1158.06 99.58H1072.17C1071.2 99.58 1070.26 99.9666 1069.57 100.655C1068.89 101.343 1068.5 102.277 1068.5 103.25V103.68C1068.5 104.163 1068.59 104.641 1068.78 105.088C1068.96 105.534 1069.23 105.94 1069.57 106.282C1069.91 106.623 1070.32 106.895 1070.76 107.08C1071.21 107.265 1071.69 107.36 1072.17 107.36H1158.06C1158.54 107.36 1159.02 107.265 1159.47 107.08C1159.91 106.895 1160.32 106.623 1160.66 106.282C1161 105.94 1161.27 105.534 1161.45 105.088C1161.64 104.641 1161.73 104.163 1161.73 103.68V103.25C1161.73 102.277 1161.34 101.343 1160.66 100.655C1159.97 99.9666 1159.03 99.58 1158.06 99.58" fill="#8F8F8F"/>
<path d="M1489.85 405.77C1489.85 417.411 1486.4 428.791 1479.93 438.471C1473.46 448.15 1464.27 455.695 1453.51 460.15C1442.76 464.605 1430.92 465.77 1419.51 463.499C1408.09 461.228 1397.6 455.622 1389.37 447.39C1381.14 439.159 1375.53 428.671 1373.26 417.253C1370.99 405.835 1372.16 394.001 1376.61 383.245C1381.07 372.49 1388.61 363.297 1398.29 356.83C1407.97 350.362 1419.35 346.91 1430.99 346.91C1446.6 346.91 1461.57 353.111 1472.61 364.15C1483.65 375.188 1489.85 390.159 1489.85 405.77" fill="#8F8F8F"/>
<path d="M1405.54 421.74L1419.79 407.49L1405.54 396.9V421.74Z" fill="#FEE8E8"/>
<path d="M1438.59 410.1L1430.95 415.78L1423.16 410L1409.74 423.68H1452.08L1438.59 410.1Z" fill="#FEE8E8"/>
<path d="M1442.1 407.49L1456.34 421.73V396.9L1442.1 407.49Z" fill="#FEE8E8"/>
<path d="M1431.05 410.96L1456.44 392.07V385.9H1405.64V392.07L1431.05 410.96Z" fill="#FEE8E8"/>
<path d="M982.7 237.97H844.36C839.166 237.967 834.186 235.902 830.515 232.229C826.843 228.555 824.78 223.574 824.78 218.38V117.82C824.78 113.882 826.345 110.104 829.13 107.319C831.915 104.535 835.692 102.97 839.63 102.97H982.71C986.649 102.97 990.426 104.535 993.211 107.319C995.996 110.104 997.56 113.882 997.56 117.82V223.12C997.56 227.058 995.996 230.836 993.211 233.621C990.426 236.405 986.649 237.97 982.71 237.97" fill="#8F8F8F"/>
<path d="M954.2 137.52L946.51 135.98C946.392 135.95 946.284 135.888 946.198 135.802C946.111 135.716 946.05 135.608 946.02 135.49L944.48 127.8C944.3 126.9 943.64 126.7 942.99 127.35L931.91 138.42C931.744 138.608 931.622 138.83 931.551 139.07C931.48 139.31 931.463 139.562 931.5 139.81L932.6 145.32L906.31 171.18C905.769 171.721 905.465 172.455 905.465 173.22C905.465 173.985 905.769 174.719 906.31 175.26C906.851 175.801 907.585 176.105 908.35 176.105C909.115 176.105 909.849 175.801 910.39 175.26L936.67 149.4L942.18 150.5C942.428 150.536 942.681 150.517 942.922 150.445C943.162 150.372 943.383 150.248 943.57 150.08L954.65 139C955.29 138.36 955.1 137.7 954.2 137.52" fill="#D7352C"/>
<path d="M917.25 156.33L922.081 151.5C922.123 151.464 922.156 151.418 922.177 151.367C922.197 151.315 922.205 151.259 922.199 151.204C922.193 151.149 922.174 151.096 922.143 151.05C922.112 151.004 922.07 150.966 922.02 150.94C916.502 147.698 909.991 146.58 903.707 147.793C897.423 149.006 891.797 152.468 887.882 157.531C883.967 162.594 882.031 168.91 882.438 175.297C882.845 181.684 885.565 187.704 890.091 192.23C894.616 196.755 900.636 199.476 907.023 199.883C913.41 200.289 919.727 198.354 924.79 194.439C929.852 190.523 933.314 184.897 934.528 178.613C935.741 172.329 934.622 165.818 931.38 160.3C931.355 160.25 931.318 160.207 931.273 160.175C931.227 160.143 931.174 160.123 931.119 160.116C931.064 160.109 931.008 160.116 930.956 160.136C930.903 160.156 930.857 160.188 930.821 160.23L925.99 165.06C925.9 165.158 925.839 165.279 925.816 165.411C925.793 165.542 925.808 165.677 925.86 165.8C927.289 168.935 927.833 172.401 927.432 175.823C927.031 179.245 925.7 182.492 923.585 185.212C921.47 187.931 918.65 190.02 915.432 191.251C912.215 192.482 908.721 192.809 905.331 192.195C901.94 191.582 898.783 190.052 896.2 187.771C893.617 185.491 891.708 182.547 890.68 179.258C889.652 175.97 889.543 172.463 890.367 169.117C891.19 165.772 892.914 162.716 895.35 160.28C898.064 157.557 901.548 155.731 905.331 155.048C909.114 154.365 913.016 154.858 916.51 156.46C916.634 156.51 916.768 156.524 916.899 156.501C917.03 156.478 917.152 156.419 917.25 156.33" fill="#D7352C"/>
<path d="M944.78 154.69L939.86 159.6C939.769 159.698 939.709 159.819 939.686 159.951C939.663 160.082 939.678 160.217 939.73 160.34C942.811 167.543 943.288 175.593 941.079 183.109C938.87 190.625 934.113 197.137 927.625 201.527C921.137 205.918 913.324 207.912 905.525 207.168C897.727 206.424 890.431 202.989 884.89 197.451C879.349 191.913 875.909 184.619 875.161 176.821C874.413 169.023 876.403 161.208 880.79 154.718C885.177 148.228 891.686 143.467 899.201 141.254C906.715 139.041 914.766 139.513 921.97 142.59C922.096 142.637 922.233 142.649 922.365 142.624C922.497 142.599 922.62 142.539 922.72 142.45L927.63 137.54C927.672 137.505 927.705 137.46 927.724 137.408C927.744 137.357 927.75 137.302 927.742 137.248C927.733 137.193 927.712 137.142 927.678 137.099C927.645 137.055 927.601 137.021 927.55 137C918.819 132.501 908.767 131.271 899.208 133.53C889.649 135.79 881.212 141.392 875.419 149.324C869.626 157.257 866.859 166.999 867.617 176.792C868.374 186.585 872.607 195.785 879.55 202.733C886.494 209.68 895.692 213.918 905.485 214.681C915.277 215.444 925.021 212.682 932.956 206.894C940.892 201.106 946.499 192.672 948.764 183.115C951.029 173.557 949.804 163.504 945.31 154.77C945.29 154.72 945.257 154.675 945.215 154.641C945.172 154.608 945.122 154.586 945.068 154.578C945.015 154.569 944.96 154.576 944.909 154.595C944.859 154.615 944.814 154.648 944.78 154.69" fill="#D7352C"/>
<path d="M528.871 214.7C528.835 221.026 526.925 227.2 523.382 232.441C519.839 237.682 514.822 241.756 508.964 244.147C503.107 246.538 496.673 247.139 490.474 245.874C484.275 244.609 478.59 241.535 474.138 237.041C469.686 232.547 466.665 226.833 465.459 220.623C464.252 214.413 464.913 207.984 467.359 202.15C469.804 196.315 473.925 191.336 479.199 187.842C484.473 184.349 490.664 182.496 496.991 182.52C501.201 182.536 505.368 183.382 509.251 185.011C513.134 186.64 516.657 189.019 519.618 192.013C522.58 195.006 524.922 198.554 526.51 202.454C528.097 206.354 528.9 210.529 528.871 214.74" fill="#8F8F8F"/>
<path d="M502.051 214.52C500.596 215.75 498.751 216.42 496.846 216.411C494.942 216.402 493.103 215.714 491.661 214.47C489.547 215.448 487.754 217.005 486.491 218.961C485.227 220.917 484.544 223.191 484.521 225.52C484.519 225.621 484.538 225.721 484.576 225.814C484.613 225.907 484.669 225.992 484.74 226.064C484.81 226.136 484.895 226.192 484.987 226.231C485.08 226.27 485.18 226.29 485.281 226.29L508.281 226.38C508.484 226.38 508.679 226.301 508.825 226.159C508.971 226.017 509.055 225.823 509.061 225.62C509.06 223.297 508.401 221.021 507.16 219.057C505.92 217.092 504.148 215.519 502.051 214.52" fill="#FEE8E8"/>
<path d="M496.911 201.04C495.617 201.034 494.35 201.412 493.271 202.126C492.192 202.84 491.349 203.858 490.849 205.052C490.349 206.245 490.214 207.56 490.461 208.83C490.709 210.1 491.327 211.268 492.239 212.187C493.15 213.105 494.314 213.733 495.582 213.99C496.85 214.247 498.166 214.122 499.363 213.631C500.56 213.14 501.584 212.305 502.307 211.231C503.029 210.158 503.417 208.894 503.421 207.6C503.424 205.868 502.74 204.205 501.52 202.976C500.3 201.747 498.643 201.051 496.911 201.04" fill="#FEE8E8"/>
<path d="M326.57 214.57H240.69C240.208 214.57 239.731 214.665 239.286 214.849C238.84 215.034 238.436 215.304 238.095 215.645C237.754 215.986 237.484 216.39 237.299 216.836C237.115 217.281 237.02 217.758 237.02 218.24V218.67C237.019 219.153 237.113 219.631 237.297 220.078C237.48 220.524 237.75 220.93 238.091 221.272C238.432 221.613 238.837 221.885 239.283 222.07C239.729 222.255 240.207 222.35 240.69 222.35H326.57C327.546 222.35 328.482 221.962 329.172 221.272C329.862 220.582 330.25 219.646 330.25 218.67V218.24C330.25 217.757 330.155 217.279 329.97 216.833C329.785 216.387 329.513 215.982 329.172 215.641C328.83 215.3 328.424 215.03 327.978 214.846C327.531 214.663 327.053 214.569 326.57 214.57" fill="#8F8F8F"/>
<path d="M728.26 588.86C726.461 588.858 724.684 588.469 723.048 587.72C721.413 586.971 719.957 585.88 718.78 584.52L522.08 358.45L330.18 570.13C327.931 572.553 324.818 573.992 321.515 574.135C318.213 574.278 314.987 573.113 312.538 570.892C310.088 568.672 308.613 565.576 308.432 562.275C308.251 558.974 309.378 555.735 311.57 553.26L512.97 331.11C514.175 329.812 515.634 328.776 517.256 328.065C518.878 327.355 520.629 326.985 522.4 326.98C524.175 327 525.926 327.395 527.537 328.139C529.149 328.884 530.584 329.961 531.75 331.3L724.78 553.22L822.58 334.42C823.298 332.811 824.347 331.371 825.658 330.193C826.97 329.016 828.514 328.129 830.192 327.588C831.869 327.048 833.641 326.866 835.393 327.056C837.145 327.246 838.837 327.803 840.36 328.69L1034.59 441.84L1233.78 212.92C1235.97 210.408 1239.06 208.868 1242.38 208.637C1245.7 208.406 1248.98 209.505 1251.49 211.69C1254 213.875 1255.54 216.969 1255.77 220.29C1256 223.612 1254.91 226.888 1252.72 229.4L1046.72 466.16C1044.8 468.366 1042.17 469.833 1039.29 470.31C1036.41 470.786 1033.45 470.242 1030.92 468.77L839.78 357.43L739.78 581.43C738.918 583.355 737.584 585.032 735.903 586.306C734.222 587.58 732.247 588.411 730.16 588.72C729.548 588.817 728.929 588.864 728.31 588.86" fill="#B30018"/>
<path d="M1198.92 194.25L1273.41 263.43L1287.64 176.06L1198.92 194.25Z" fill="#B30018"/>
<path d="M1076.78 453.12C1076.77 460.946 1074.45 468.595 1070.1 475.099C1065.74 481.603 1059.56 486.67 1052.33 489.659C1045.09 492.649 1037.14 493.426 1029.46 491.894C1021.79 490.361 1014.74 486.587 1009.21 481.049C1003.68 475.511 999.916 468.457 998.395 460.78C996.874 453.103 997.664 445.148 1000.66 437.92C1003.66 430.691 1008.74 424.515 1015.25 420.172C1021.76 415.829 1029.41 413.514 1037.24 413.52C1042.44 413.524 1047.58 414.551 1052.38 416.544C1057.18 418.536 1061.54 421.454 1065.21 425.131C1068.88 428.808 1071.8 433.173 1073.78 437.975C1075.76 442.777 1076.78 447.924 1076.78 453.12" fill="#B30018"/>
<path d="M1056.3 453.12C1056.3 456.89 1055.19 460.576 1053.09 463.712C1051 466.848 1048.02 469.292 1044.54 470.736C1041.06 472.18 1037.23 472.559 1033.53 471.825C1029.83 471.091 1026.43 469.276 1023.77 466.611C1021.1 463.946 1019.28 460.55 1018.55 456.852C1017.81 453.155 1018.19 449.322 1019.63 445.838C1021.07 442.355 1023.52 439.378 1026.65 437.283C1029.79 435.188 1033.47 434.07 1037.24 434.07C1042.29 434.07 1047.14 436.077 1050.71 439.649C1054.29 443.221 1056.3 448.067 1056.3 453.12" fill="#FEE8E8"/>
<path d="M872.781 347.72C872.783 355.547 870.463 363.199 866.116 369.708C861.769 376.216 855.589 381.29 848.358 384.286C841.127 387.282 833.17 388.067 825.493 386.54C817.817 385.014 810.765 381.245 805.23 375.71C799.696 370.176 795.927 363.124 794.4 355.447C792.874 347.771 793.658 339.813 796.655 332.583C799.651 325.352 804.724 319.172 811.233 314.825C817.742 310.477 825.394 308.158 833.221 308.16C843.713 308.16 853.775 312.328 861.194 319.747C868.613 327.166 872.781 337.228 872.781 347.72" fill="#B30018"/>
<path d="M852.261 347.72C852.263 351.49 851.146 355.176 849.053 358.312C846.96 361.448 843.984 363.892 840.502 365.336C837.019 366.78 833.186 367.159 829.488 366.425C825.79 365.691 822.393 363.876 819.727 361.211C817.06 358.546 815.244 355.15 814.508 351.452C813.771 347.755 814.148 343.922 815.59 340.438C817.033 336.955 819.476 333.978 822.61 331.883C825.745 329.788 829.43 328.67 833.201 328.67C838.254 328.67 843.1 330.677 846.675 334.249C850.249 337.821 852.258 342.667 852.261 347.72" fill="#FEE8E8"/>
<path d="M556.701 347.72C556.703 355.547 554.383 363.198 550.037 369.707C545.69 376.215 539.511 381.289 532.28 384.285C525.05 387.282 517.093 388.067 509.417 386.541C501.74 385.015 494.689 381.247 489.154 375.714C483.619 370.18 479.849 363.13 478.322 355.453C476.794 347.777 477.577 339.821 480.572 332.59C483.566 325.358 488.638 319.178 495.146 314.829C501.653 310.481 509.304 308.16 517.131 308.16C527.623 308.16 537.687 312.328 545.107 319.746C552.528 327.165 556.698 337.227 556.701 347.72Z" fill="#B30018"/>
<path d="M536.18 347.72C536.18 351.49 535.062 355.175 532.966 358.309C530.871 361.443 527.892 363.884 524.409 365.325C520.925 366.765 517.092 367.139 513.395 366.4C509.699 365.661 506.304 363.842 503.642 361.173C500.98 358.503 499.169 355.104 498.44 351.406C497.711 347.707 498.095 343.875 499.545 340.395C500.994 336.915 503.444 333.943 506.583 331.856C509.722 329.769 513.41 328.66 517.18 328.67C522.224 328.683 527.056 330.696 530.618 334.267C534.18 337.838 536.18 342.676 536.18 347.72" fill="#FEE8E8"/>
<path d="M325.98 454.11H215.78C210.641 454.11 205.711 452.068 202.077 448.434C198.442 444.799 196.4 439.87 196.4 434.73V332.26C196.403 328.363 197.953 324.627 200.709 321.872C203.466 319.117 207.203 317.57 211.1 317.57H325.98C329.877 317.57 333.615 319.117 336.371 321.872C339.128 324.627 340.678 328.363 340.68 332.26V439.42C340.678 443.317 339.128 447.053 336.371 449.808C333.615 452.563 329.877 454.11 325.98 454.11Z" fill="#8F8F8F"/>
<path d="M289.861 345.16L302.691 347.06L266.201 370.73L259.401 361.5L232.141 377.36" fill="#D7352C"/>
<path d="M247.901 395.57H235.081V421H247.901V395.57Z" fill="#D7352C"/>
<path d="M265.81 388.1H252.99V421H265.81V388.1Z" fill="#D7352C"/>
<path d="M284.15 380.18H271.33V421H284.15V380.18Z" fill="#D7352C"/>
<path d="M302.69 373.45H289.87V421.01H302.69V373.45Z" fill="#D7352C"/>
<path d="M697.08 744.1H639.97C638.938 744.1 637.949 743.69 637.219 742.961C636.49 742.231 636.08 741.242 636.08 740.21C636.08 739.178 636.49 738.189 637.219 737.459C637.949 736.73 638.938 736.32 639.97 736.32H697.08C698.112 736.32 699.101 736.73 699.831 737.459C700.56 738.189 700.97 739.178 700.97 740.21C700.97 741.242 700.56 742.231 699.831 742.961C699.101 743.69 698.112 744.1 697.08 744.1" fill="#8F8F8F"/>
<path d="M1457.52 641.81H1348.96C1347.93 641.81 1346.94 641.4 1346.21 640.671C1345.48 639.941 1345.07 638.952 1345.07 637.92C1345.07 636.888 1345.48 635.899 1346.21 635.169C1346.94 634.44 1347.93 634.03 1348.96 634.03H1457.52C1458.55 634.03 1459.54 634.44 1460.27 635.169C1461 635.899 1461.41 636.888 1461.41 637.92C1461.41 638.952 1461 639.941 1460.27 640.671C1459.54 641.4 1458.55 641.81 1457.52 641.81" fill="#8F8F8F"/>
<path d="M422.51 898.86H252.78V920.4H422.51V898.86Z" fill="#2C2C2C"/>
<path d="M302.62 898.86H270.34V920.4H302.62V898.86Z" fill="#D0D0D0"/>
<path d="M402.311 898.86H378.641V920.4H402.311V898.86Z" fill="#383838"/>
<path d="M402.31 898.86H252.78" stroke="#EFEFEF" stroke-width="1.9" stroke-miterlimit="10"/>
<path d="M402.31 877.31H232.58V898.85H402.31V877.31Z" fill="#2C2C2C"/>
<path d="M282.41 877.31H250.13V898.85H282.41V877.31Z" fill="#D0D0D0"/>
<path d="M382.1 877.31H358.43V898.85H382.1V877.31Z" fill="#383838"/>
<path d="M402.31 877.31H252.78" stroke="#EFEFEF" stroke-width="1.9" stroke-miterlimit="10"/>
<path d="M422.51 855.77H252.78V877.31H422.51V855.77Z" fill="#2C2C2C"/>
<path d="M302.62 855.77H270.34V877.31H302.62V855.77Z" fill="#D0D0D0"/>
<path d="M402.311 855.77H378.641V877.31H402.311V855.77Z" fill="#383838"/>
<path d="M402.31 855.77H252.78" stroke="#EFEFEF" stroke-width="1.9" stroke-miterlimit="10"/>
<path d="M402.31 834.23H232.58V855.77H402.31V834.23Z" fill="#2C2C2C"/>
<path d="M282.41 834.23H250.13V855.77H282.41V834.23Z" fill="#D0D0D0"/>
<path d="M382.1 834.23H358.43V855.77H382.1V834.23Z" fill="#383838"/>
<path d="M402.31 834.23H252.78" stroke="#EFEFEF" stroke-width="1.9" stroke-miterlimit="10"/>
<path d="M422.51 812.68H252.78V834.22H422.51V812.68Z" fill="#2C2C2C"/>
<path d="M302.62 812.68H270.34V834.22H302.62V812.68Z" fill="#D0D0D0"/>
<path d="M402.311 812.68H378.641V834.22H402.311V812.68Z" fill="#383838"/>
<path d="M422.51 812.69H252.78" stroke="#EFEFEF" stroke-width="1.9" stroke-miterlimit="10"/>
<path d="M422.51 791.14H252.78V812.68H422.51V791.14Z" fill="#2C2C2C"/>
<path d="M302.62 791.14H270.34V812.68H302.62V791.14Z" fill="#D0D0D0"/>
<path d="M402.311 791.14H378.641V812.68H402.311V791.14Z" fill="#383838"/>
<path d="M422.51 791.14H252.78" stroke="#EFEFEF" stroke-width="1.9" stroke-miterlimit="10"/>
<path d="M402.31 769.6H232.58V791.14H402.31V769.6Z" fill="#2C2C2C"/>
<path d="M282.41 769.6H250.13V791.14H282.41V769.6Z" fill="#D0D0D0"/>
<path d="M382.1 769.6H358.43V791.14H382.1V769.6Z" fill="#383838"/>
<path d="M402.31 769.6H252.78" stroke="#EFEFEF" stroke-width="1.9" stroke-miterlimit="10"/>
<path d="M422.51 748.06H252.78V769.6H422.51V748.06Z" fill="#2C2C2C"/>
<path d="M302.62 748.06H270.34V769.6H302.62V748.06Z" fill="#D0D0D0"/>
<path d="M402.311 748.06H378.641V769.6H402.311V748.06Z" fill="#383838"/>
<path d="M408.53 678.44C408.532 692.566 404.345 706.376 396.498 718.123C388.651 729.869 377.497 739.025 364.446 744.432C351.396 749.838 337.035 751.254 323.18 748.498C309.325 745.743 296.598 738.94 286.609 728.952C276.62 718.963 269.818 706.236 267.062 692.381C264.307 678.526 265.722 664.165 271.129 651.114C276.536 638.063 285.691 626.909 297.438 619.062C309.184 611.215 322.994 607.028 337.12 607.03C356.06 607.03 374.223 614.553 387.615 627.945C401.007 641.337 408.53 659.501 408.53 678.44" fill="#292929"/>
<path d="M398.08 678.44C398.082 692.566 393.895 706.376 386.048 718.123C378.201 729.869 367.047 739.025 353.996 744.432C340.945 749.838 326.584 751.254 312.729 748.498C298.874 745.743 286.148 738.94 276.159 728.952C266.17 718.963 259.368 706.236 256.612 692.381C253.857 678.526 255.272 664.165 260.679 651.114C266.086 638.063 275.241 626.909 286.988 619.062C298.734 611.215 312.544 607.028 326.67 607.03C345.609 607.03 363.773 614.553 377.165 627.945C390.557 641.337 398.08 659.501 398.08 678.44" fill="#383838"/>
<path d="M383.94 678.44C383.942 689.77 380.584 700.846 374.291 710.267C367.997 719.688 359.052 727.031 348.585 731.368C338.118 735.705 326.6 736.84 315.488 734.63C304.375 732.42 294.168 726.964 286.157 718.953C278.145 710.942 272.69 700.734 270.48 689.622C268.27 678.51 269.405 666.992 273.742 656.525C278.079 646.058 285.422 637.112 294.843 630.819C304.264 624.526 315.34 621.168 326.67 621.17C341.859 621.17 356.426 627.204 367.166 637.944C377.906 648.684 383.94 663.251 383.94 678.44Z" fill="#2C2C2C"/>
<path d="M273.66 681.64C273.664 671.253 276.491 661.062 281.84 652.158C287.189 643.254 294.859 635.971 304.028 631.09C313.197 626.209 323.52 623.912 333.894 624.446C344.267 624.979 354.3 628.323 362.92 634.12C357.106 629.262 350.386 625.606 343.149 623.364C335.912 621.121 328.302 620.337 320.76 621.057C313.218 621.776 305.894 623.985 299.211 627.555C292.529 631.125 286.621 635.986 281.831 641.855C277.04 647.725 273.462 654.487 271.303 661.749C269.144 669.011 268.448 676.629 269.254 684.163C270.06 691.696 272.353 698.995 276 705.635C279.647 712.276 284.576 718.127 290.5 722.85C279.819 711.775 273.792 697.026 273.66 681.64" fill="#292929"/>
<path d="M323.19 718.11V709.89C313.9 709.47 309.26 706.3 309.26 695.12C309.24 692.716 309.418 690.315 309.79 687.94H321.5C321.357 689.024 321.287 690.117 321.29 691.21C321.29 696.06 321.6 698.81 326.35 698.81C331.1 698.81 331.52 697.12 331.52 690.89C331.52 687.83 331.52 686.78 329.83 685.3C326.35 682.03 317.7 679.82 313.58 676.86C309.89 674.33 309.05 670.74 309.05 660.93C309.05 649.64 312.42 645.84 323.19 645.31V638.78H329.83V645.31C339.75 645.74 343.23 649.22 343.23 659.24C343.239 661.394 343.098 663.546 342.81 665.68H331.2C331.302 664.486 331.339 663.288 331.31 662.09C331.31 657.66 330.68 655.44 326.25 655.44C322.45 655.44 321.39 656.71 321.39 661.98C321.39 667.47 321.71 667.98 325.3 669.58C329.2 671.37 333 672.58 336.38 674.12C341.12 676.44 344.29 677.5 344.29 688.36C344.29 703.66 341.44 708.94 329.83 709.78V718.11H323.19Z" fill="#EFEFEF"/>
<path d="M252.78 823.97C252.782 822.059 252.406 820.166 251.676 818.4C250.945 816.634 249.873 815.03 248.522 813.679C247.17 812.327 245.566 811.256 243.8 810.525C242.034 809.794 240.142 809.419 238.23 809.42C240.141 809.42 242.033 809.044 243.798 808.312C245.564 807.581 247.168 806.51 248.519 805.158C249.87 803.807 250.942 802.203 251.673 800.438C252.404 798.673 252.78 796.781 252.78 794.87C252.78 798.729 254.313 802.43 257.042 805.158C259.771 807.887 263.472 809.42 267.33 809.42C265.419 809.419 263.527 809.794 261.761 810.525C259.995 811.256 258.39 812.327 257.039 813.679C255.688 815.03 254.616 816.634 253.885 818.4C253.155 820.166 252.779 822.059 252.78 823.97Z" fill="#EFEFEF"/>
<path d="M398.181 703.09C398.181 697.82 396.087 692.766 392.361 689.04C388.634 685.313 383.58 683.22 378.311 683.22C380.919 683.221 383.503 682.709 385.914 681.711C388.324 680.714 390.515 679.251 392.36 677.407C394.205 675.562 395.669 673.373 396.668 670.962C397.666 668.552 398.181 665.969 398.181 663.36C398.183 668.628 400.278 673.68 404.004 677.404C407.73 681.128 412.782 683.22 418.051 683.22C412.781 683.22 407.727 685.313 404 689.04C400.274 692.766 398.181 697.82 398.181 703.09" fill="#EFEFEF"/>
<path d="M1336.03 899.63H1166.3V921.17H1336.03V899.63Z" fill="#90000A"/>
<path d="M1216.14 899.63H1183.86V921.17H1216.14V899.63Z" fill="#FBBDBE"/>
<path d="M1315.83 899.63H1292.16V921.17H1315.83V899.63Z" fill="#B30018"/>
<path d="M1315.83 899.63H1166.3" stroke="#FEE8E8" stroke-width="1.9" stroke-miterlimit="10"/>
<path d="M1315.83 878.09H1146.1V899.63H1315.83V878.09Z" fill="#90000A"/>
<path d="M1195.94 878.09H1163.66V899.63H1195.94V878.09Z" fill="#FBBDBE"/>
<path d="M1295.63 878.09H1271.96V899.63H1295.63V878.09Z" fill="#B30018"/>
<path d="M1315.83 878.09H1166.3" stroke="#FEE8E8" stroke-width="1.9" stroke-miterlimit="10"/>
<path d="M1336.03 856.55H1166.3V878.09H1336.03V856.55Z" fill="#90000A"/>
<path d="M1216.14 856.55H1183.86V878.09H1216.14V856.55Z" fill="#FBBDBE"/>
<path d="M1315.83 856.55H1292.16V878.09H1315.83V856.55Z" fill="#B30018"/>
<path d="M1315.83 856.55H1166.3" stroke="#FEE8E8" stroke-width="1.9" stroke-miterlimit="10"/>
<path d="M1315.83 835.01H1146.1V856.55H1315.83V835.01Z" fill="#90000A"/>
<path d="M1195.94 835.01H1163.66V856.55H1195.94V835.01Z" fill="#FBBDBE"/>
<path d="M1295.63 835.01H1271.96V856.55H1295.63V835.01Z" fill="#B30018"/>
<path d="M1192.95 456.37C1195.33 452.031 1198.93 448.494 1203.32 446.207C1207.71 443.92 1212.67 442.986 1217.59 443.523C1222.51 444.059 1227.16 446.043 1230.95 449.222C1234.74 452.401 1237.5 456.633 1238.88 461.382C1240.26 466.131 1240.21 471.184 1238.72 475.901C1237.23 480.618 1234.37 484.788 1230.52 487.882C1226.66 490.976 1221.96 492.855 1217.04 493.282C1212.11 493.709 1207.16 492.664 1202.83 490.28C1197.03 487.089 1192.73 481.726 1190.88 475.368C1189.02 469.011 1189.77 462.178 1192.95 456.37" fill="#F74E4B"/>
<path d="M1196.61 451.32L1141.42 484.3L1153.56 512.72L1202.83 490.28L1196.61 451.32Z" fill="#F74E4B"/>
<path d="M1237.72 554.61C1242.42 555.07 1246.75 557.379 1249.75 561.028C1252.75 564.677 1254.18 569.368 1253.72 574.07L1244.02 673.93L1208.57 670.52L1218.27 570.65C1218.73 565.95 1221.04 561.625 1224.68 558.625C1228.33 555.625 1233.02 554.196 1237.72 554.65" fill="#BD0200"/>
<path d="M1205.26 811.69L1213.15 793.2H1231.36L1223.29 818.92C1223.29 818.92 1203.57 826.25 1205.29 811.69" fill="#F99494"/>
<path d="M1235.94 803.77L1199.69 805.21L1208.52 671.14L1244.08 673.29L1235.94 803.77Z" fill="#BD0200"/>
<path d="M1208.98 676.69C1208.09 673.265 1208.24 669.653 1209.41 666.311C1210.57 662.97 1212.7 660.049 1215.52 657.918C1218.35 655.787 1221.74 654.542 1225.28 654.34C1228.81 654.138 1232.32 654.988 1235.37 656.783C1238.42 658.577 1240.87 661.236 1242.41 664.423C1243.95 667.61 1244.51 671.181 1244.01 674.685C1243.52 678.19 1242 681.47 1239.65 684.11C1237.29 686.751 1234.21 688.633 1230.78 689.52C1226.19 690.705 1221.32 690.02 1217.23 687.614C1213.14 685.209 1210.18 681.279 1208.99 676.69" fill="#BD0200"/>
<path d="M1226.08 809.86L1212.08 813.17C1212.08 813.17 1210.81 806.17 1205.6 807.61C1205.6 807.61 1197.99 820.99 1177.22 822.54L1175.6 827.4H1229.19C1229.19 827.4 1231.19 815.4 1226.09 809.86" fill="#A1000E"/>
<path d="M1200.04 813.8C1201.38 814.486 1202.48 815.568 1203.19 816.9" stroke="black" stroke-width="0.79" stroke-linecap="round" stroke-linejoin="round"/>
<path d="M1196.36 816.52C1197.7 817.215 1198.8 818.299 1199.51 819.63" stroke="black" stroke-width="0.79" stroke-linecap="round" stroke-linejoin="round"/>
<path d="M1192.88 818.45C1194.23 819.142 1195.33 820.227 1196.04 821.56" stroke="black" stroke-width="0.79" stroke-linecap="round" stroke-linejoin="round"/>
<path d="M1216.35 559.61V571.26C1216.28 575.324 1217.01 579.363 1218.52 583.139C1220.02 586.915 1222.27 590.354 1225.11 593.254C1227.96 596.154 1231.36 598.458 1235.11 600.031C1238.86 601.603 1242.88 602.413 1246.95 602.413C1251.01 602.413 1255.04 601.603 1258.78 600.031C1262.53 598.458 1265.93 596.154 1268.78 593.254C1271.63 590.354 1273.87 586.915 1275.37 583.139C1276.88 579.363 1277.61 575.324 1277.54 571.26V559.61H1216.35Z" fill="#BD0200"/>
<path d="M1252.78 554.25C1255.12 554.126 1257.45 554.463 1259.66 555.243C1261.87 556.023 1263.9 557.23 1265.64 558.794C1267.38 560.359 1268.79 562.251 1269.8 564.363C1270.81 566.474 1271.39 568.764 1271.51 571.1L1276.78 671.29L1241.2 673.17L1235.93 572.97C1235.81 570.634 1236.14 568.297 1236.92 566.091C1237.7 563.886 1238.91 561.856 1240.48 560.118C1242.04 558.379 1243.93 556.966 1246.04 555.959C1248.16 554.952 1250.44 554.371 1252.78 554.25" fill="#BD0200"/>
<path d="M1257.78 811.69L1265.67 793.2H1283.88L1275.78 818.92C1275.78 818.92 1256.06 826.25 1257.78 811.69Z" fill="#F99494"/>
<path d="M1288.08 800.89L1252.45 807.71L1241.22 673.82L1276.71 670.65L1288.08 800.89Z" fill="#BD0200"/>
<path d="M1242.51 679.23C1241.13 675.976 1240.74 672.384 1241.4 668.909C1242.05 665.435 1243.73 662.233 1246.21 659.71C1248.68 657.186 1251.85 655.454 1255.31 654.732C1258.78 654.01 1262.37 654.331 1265.65 655.654C1268.93 656.977 1271.75 659.242 1273.74 662.164C1275.73 665.086 1276.81 668.533 1276.84 672.07C1276.88 675.606 1275.86 679.072 1273.92 682.031C1271.99 684.989 1269.21 687.307 1265.96 688.69C1263.8 689.609 1261.48 690.093 1259.13 690.114C1256.78 690.136 1254.45 689.695 1252.28 688.817C1250.1 687.938 1248.12 686.64 1246.44 684.995C1244.76 683.35 1243.43 681.391 1242.51 679.23" fill="#BD0200"/>
<path d="M1278.55 809.86L1264.55 813.17C1264.55 813.17 1263.28 806.17 1258.07 807.61C1258.07 807.61 1250.47 820.99 1229.69 822.54L1228.07 827.4H1281.66C1281.66 827.4 1283.66 815.4 1278.56 809.86" fill="#A1000E"/>
<path d="M1252.51 813.8C1253.85 814.487 1254.96 815.568 1255.67 816.9" stroke="black" stroke-width="0.79" stroke-linecap="round" stroke-linejoin="round"/>
<path d="M1248.83 816.52C1250.17 817.215 1251.27 818.299 1251.98 819.63" stroke="black" stroke-width="0.79" stroke-linecap="round" stroke-linejoin="round"/>
<path d="M1245.35 818.45C1246.69 819.142 1247.79 820.227 1248.5 821.56" stroke="black" stroke-width="0.79" stroke-linecap="round" stroke-linejoin="round"/>
<path d="M1277.58 560.78H1216.39L1200.2 457.13C1199.94 455.483 1200.04 453.8 1200.5 452.197C1200.95 450.593 1201.75 449.106 1202.83 447.84C1203.91 446.573 1205.26 445.556 1206.77 444.858C1208.29 444.161 1209.93 443.8 1211.6 443.8H1297C1298.98 443.807 1300.92 444.278 1302.68 445.175C1304.44 446.071 1305.97 447.368 1307.13 448.962C1308.3 450.555 1309.08 452.4 1309.4 454.349C1309.73 456.297 1309.59 458.294 1309 460.18L1277.58 560.78Z" fill="#F74E4B"/>
<path d="M1211.63 484.92H1230.78V493.75C1230.7 496.236 1229.66 498.593 1227.87 500.323C1226.08 502.053 1223.69 503.021 1221.2 503.021C1218.72 503.021 1216.33 502.053 1214.54 500.323C1212.75 498.593 1211.71 496.236 1211.63 493.75V484.92Z" fill="#D7352C"/>
<path d="M1213.15 498.93C1212.16 497.386 1211.63 495.587 1211.63 493.75V488.12" stroke="white" stroke-width="0.8" stroke-linecap="round" stroke-linejoin="round"/>
<path d="M1230.78 484.92V493.75C1230.78 495.007 1230.53 496.252 1230.05 497.414C1229.57 498.576 1228.87 499.631 1227.98 500.52C1227.09 501.409 1226.04 502.114 1224.87 502.594C1223.71 503.075 1222.47 503.321 1221.21 503.32" stroke="white" stroke-width="0.8" stroke-linecap="round" stroke-linejoin="round"/>
<path d="M1213.16 484.93H1223.54" stroke="white" stroke-width="0.8" stroke-linecap="round" stroke-linejoin="round"/>
<path d="M1256.07 463.71C1254.57 463.71 1253.08 463.414 1251.7 462.84C1250.31 462.265 1249.05 461.423 1247.99 460.362C1246.93 459.3 1246.09 458.04 1245.52 456.653C1244.94 455.267 1244.65 453.781 1244.65 452.28V435.33C1244.61 433.801 1244.87 432.279 1245.42 430.853C1245.97 429.428 1246.81 428.127 1247.87 427.03C1248.94 425.933 1250.21 425.06 1251.62 424.465C1253.03 423.869 1254.55 423.562 1256.08 423.562C1257.61 423.562 1259.12 423.869 1260.53 424.465C1261.94 425.06 1263.21 425.933 1264.28 427.03C1265.34 428.127 1266.18 429.428 1266.73 430.853C1267.28 432.279 1267.55 433.801 1267.5 435.33V452.28C1267.5 455.311 1266.3 458.219 1264.15 460.362C1262.01 462.506 1259.1 463.71 1256.07 463.71" fill="#F99494"/>
<path d="M1151.62 483.64C1154.56 484.466 1157.2 486.147 1159.19 488.47C1161.17 490.793 1162.43 493.654 1162.79 496.69C1163.16 499.726 1162.61 502.802 1161.23 505.529C1159.84 508.255 1157.68 510.509 1155.01 512.006C1152.34 513.503 1149.29 514.175 1146.24 513.938C1143.2 513.701 1140.29 512.566 1137.88 510.675C1135.48 508.784 1133.69 506.222 1132.74 503.315C1131.8 500.407 1131.73 497.284 1132.56 494.34C1133.67 490.394 1136.3 487.05 1139.87 485.044C1143.45 483.037 1147.67 482.532 1151.62 483.64" fill="#F74E4B"/>
<path d="M1159.94 489.45L1103.38 429.83L1086.9 435.51L1133.95 506.08L1159.94 489.45Z" fill="#F74E4B"/>
<path d="M1102.45 430.05C1101.69 432.392 1100.25 434.455 1098.32 435.979C1096.38 437.504 1094.04 438.421 1091.59 438.614C1089.13 438.808 1086.68 438.269 1084.53 437.067C1082.38 435.864 1080.64 434.051 1079.52 431.858C1078.4 429.665 1077.96 427.189 1078.24 424.744C1078.53 422.299 1079.54 419.994 1081.14 418.121C1082.74 416.248 1084.85 414.891 1087.22 414.222C1089.59 413.552 1092.11 413.6 1094.45 414.36C1096.01 414.865 1097.45 415.671 1098.69 416.732C1099.94 417.794 1100.96 419.09 1101.7 420.547C1102.44 422.005 1102.89 423.594 1103.02 425.224C1103.15 426.855 1102.96 428.494 1102.45 430.05Z" fill="#FF9990"/>
<path d="M1093.78 414.17L1080.48 405.28C1080.03 404.965 1079.47 404.834 1078.93 404.914C1078.39 404.994 1077.89 405.279 1077.55 405.71C1077.27 406.083 1077.14 406.547 1077.18 407.012C1077.23 407.476 1077.44 407.907 1077.79 408.22L1090.49 419.7L1093.78 414.17Z" fill="#FF9990"/>
<path d="M1276.1 387.67V387.76L1276.04 402.64L1275.96 419.59C1275.93 424.87 1273.81 429.925 1270.06 433.641C1266.31 437.357 1261.24 439.43 1255.95 439.405C1250.67 439.38 1245.62 437.258 1241.9 433.506C1238.19 429.755 1236.11 424.68 1236.14 419.4L1236.22 402.48L1236.28 387.58C1236.29 382.3 1238.4 377.24 1242.14 373.515C1245.89 369.789 1250.95 367.703 1256.23 367.715C1261.52 367.727 1266.57 369.836 1270.3 373.578C1274.03 377.321 1276.11 382.39 1276.1 387.67" fill="#F99494"/>
<path d="M1276.04 402.64L1275.96 419.58C1275.94 424.86 1273.82 429.915 1270.06 433.632C1266.31 437.349 1261.24 439.424 1255.96 439.4C1250.68 439.376 1245.62 437.256 1241.91 433.505C1238.19 429.754 1236.12 424.68 1236.14 419.4L1236.22 402.47L1237.06 414.3C1237.06 414.3 1240.06 408.95 1248.48 408.95C1256.9 408.95 1259.9 414.3 1259.9 414.3L1276 402.47C1276 402.47 1276 402.53 1276 402.64" fill="#8C000A"/>
<path d="M1241.33 399.94C1241.24 400.273 1241.06 400.571 1240.8 400.798C1240.54 401.025 1240.22 401.171 1239.88 401.216C1239.54 401.261 1239.19 401.203 1238.88 401.051C1238.57 400.899 1238.31 400.659 1238.14 400.361C1237.97 400.063 1237.89 399.72 1237.91 399.377C1237.94 399.033 1238.06 398.704 1238.27 398.431C1238.48 398.158 1238.76 397.953 1239.09 397.843C1239.42 397.732 1239.77 397.721 1240.1 397.81C1240.55 397.93 1240.93 398.221 1241.16 398.62C1241.39 399.02 1241.45 399.494 1241.33 399.94" fill="#061C29"/>
<path d="M1260.67 399.96C1260.58 400.293 1260.39 400.591 1260.14 400.818C1259.88 401.045 1259.55 401.189 1259.21 401.234C1258.87 401.278 1258.52 401.22 1258.22 401.066C1257.91 400.913 1257.65 400.672 1257.48 400.373C1257.31 400.074 1257.23 399.731 1257.25 399.387C1257.28 399.043 1257.4 398.715 1257.61 398.442C1257.83 398.17 1258.11 397.966 1258.44 397.857C1258.77 397.748 1259.12 397.739 1259.45 397.83C1259.89 397.952 1260.27 398.244 1260.5 398.643C1260.73 399.042 1260.79 399.516 1260.67 399.96" fill="#061C29"/>
<path d="M1236.18 394.69C1236.41 394.274 1236.73 393.917 1237.13 393.647C1237.52 393.378 1237.97 393.203 1238.44 393.137C1238.91 393.071 1239.39 393.116 1239.84 393.267C1240.29 393.419 1240.7 393.673 1241.04 394.01" stroke="#131D26" stroke-width="0.8" stroke-linecap="round" stroke-linejoin="round"/>
<path d="M1257.14 393.33C1257.52 393.043 1257.96 392.848 1258.43 392.762C1258.9 392.676 1259.38 392.701 1259.83 392.834C1260.29 392.967 1260.71 393.205 1261.06 393.529C1261.41 393.853 1261.67 394.254 1261.84 394.7" stroke="#131D26" stroke-width="0.8" stroke-linecap="round" stroke-linejoin="round"/>
<path d="M1248.92 397.58C1248.92 397.58 1242.92 407.58 1246.24 409.92C1249.88 412.47 1251.72 409.35 1252.08 407.99" fill="#F99494"/>
<path d="M1248.92 397.58C1248.92 397.58 1242.92 407.58 1246.24 409.92C1249.88 412.47 1251.72 409.35 1252.08 407.99" stroke="#131D26" stroke-width="0.8" stroke-linecap="round" stroke-linejoin="round"/>
<path d="M1276.1 387.67V387.76C1273.1 382.06 1267.5 377.27 1261.26 382.32C1257.04 385.75 1249.26 388.32 1242.91 382.88C1236.56 377.44 1236.28 387.58 1236.28 387.58C1235.28 376.7 1241.81 366.72 1256.12 366.77C1270.43 366.82 1277.87 376.7 1276.12 387.67" fill="#8C000A"/>
<path d="M1245.23 420.09C1245.23 420.09 1248.99 423.89 1252.79 420.09" stroke="#FEDDCC" stroke-width="0.82" stroke-linecap="round" stroke-linejoin="round"/>
<path d="M1260.12 398.68C1260.12 398.751 1260.1 398.821 1260.06 398.88C1260.02 398.939 1259.96 398.985 1259.9 399.013C1259.83 399.04 1259.76 399.047 1259.69 399.033C1259.62 399.019 1259.56 398.985 1259.51 398.935C1259.46 398.884 1259.42 398.82 1259.41 398.75C1259.39 398.68 1259.4 398.608 1259.43 398.542C1259.46 398.476 1259.5 398.42 1259.56 398.381C1259.62 398.341 1259.69 398.32 1259.76 398.32C1259.86 398.32 1259.95 398.358 1260.01 398.425C1260.08 398.493 1260.12 398.585 1260.12 398.68" fill="white"/>
<path d="M1240.92 398.68C1240.92 398.751 1240.9 398.821 1240.86 398.88C1240.82 398.939 1240.76 398.985 1240.7 399.013C1240.63 399.04 1240.56 399.047 1240.49 399.033C1240.42 399.019 1240.36 398.985 1240.31 398.935C1240.26 398.884 1240.22 398.82 1240.21 398.75C1240.19 398.68 1240.2 398.608 1240.23 398.542C1240.25 398.476 1240.3 398.42 1240.36 398.381C1240.42 398.341 1240.49 398.32 1240.56 398.32C1240.66 398.32 1240.75 398.358 1240.81 398.425C1240.88 398.493 1240.92 398.585 1240.92 398.68" fill="white"/>
<g style="mix-blend-mode:color-burn">
<g style="mix-blend-mode:color-burn">
<g style="mix-blend-mode:color-burn">
<path d="M1276.1 387.67V387.76L1276.04 402.64L1275.96 419.59C1275.93 424.869 1273.81 429.921 1270.06 433.636C1266.31 437.351 1261.24 439.424 1255.96 439.4C1255.22 439.399 1254.48 439.352 1253.74 439.26C1258.61 438.661 1263.09 436.302 1266.33 432.626C1269.58 428.951 1271.37 424.214 1271.36 419.31L1271.44 402.13L1271.5 387.05V386.96C1271.53 381.988 1269.72 377.181 1266.4 373.471C1263.09 369.761 1258.52 367.413 1253.58 366.88C1254.4 366.81 1255.25 366.77 1256.13 366.77C1270.39 366.82 1277.88 376.7 1276.13 387.67" fill="#FEDDCC"/>
</g>
</g>
</g>
<path d="M1276.55 474.44C1275.35 470.803 1275.26 466.892 1276.28 463.202C1277.31 459.513 1279.4 456.209 1282.3 453.711C1285.21 451.212 1288.78 449.63 1292.58 449.164C1296.39 448.699 1300.24 449.371 1303.66 451.096C1307.08 452.82 1309.91 455.52 1311.79 458.854C1313.68 462.188 1314.53 466.005 1314.24 469.824C1313.96 473.643 1312.55 477.291 1310.19 480.307C1307.83 483.324 1304.63 485.573 1300.99 486.77C1298.58 487.567 1296.03 487.881 1293.49 487.693C1290.96 487.504 1288.48 486.818 1286.21 485.673C1283.94 484.528 1281.92 482.946 1280.26 481.019C1278.61 479.091 1277.34 476.856 1276.55 474.44" fill="#F74E4B"/>
<path d="M1276.19 463.51L1256.48 532.93L1285.54 543.44L1312.92 475.48L1276.19 463.51Z" fill="#F74E4B"/>
<path d="M1262.96 525.02C1265.57 523.432 1268.6 522.654 1271.65 522.784C1274.71 522.915 1277.66 523.949 1280.12 525.755C1282.59 527.561 1284.47 530.059 1285.51 532.931C1286.56 535.804 1286.74 538.923 1286.01 541.893C1285.29 544.864 1283.7 547.553 1281.44 549.621C1279.19 551.688 1276.38 553.041 1273.35 553.509C1270.33 553.976 1267.24 553.537 1264.47 552.247C1261.7 550.956 1259.37 548.873 1257.78 546.26C1255.65 542.756 1255 538.551 1255.98 534.568C1256.95 530.586 1259.46 527.152 1262.96 525.02" fill="#F74E4B"/>
<path d="M1272.88 522.9L1188.92 523.6L1183.62 539.51L1267.32 553.25L1272.88 522.9Z" fill="#F74E4B"/>
<path d="M1190.23 524.41C1191.43 526.565 1191.96 529.026 1191.75 531.483C1191.55 533.94 1190.63 536.281 1189.09 538.211C1187.56 540.141 1185.49 541.573 1183.14 542.325C1180.79 543.077 1178.28 543.117 1175.91 542.438C1173.54 541.759 1171.42 540.393 1169.83 538.511C1168.24 536.63 1167.24 534.319 1166.96 531.87C1166.68 529.421 1167.13 526.944 1168.26 524.753C1169.39 522.561 1171.14 520.754 1173.3 519.56C1176.19 517.96 1179.59 517.572 1182.77 518.482C1185.94 519.391 1188.63 521.523 1190.23 524.41" fill="#FF9990"/>
<path d="M1188.92 522.52L1183.2 507.52C1183.02 507.001 1182.64 506.573 1182.15 506.323C1181.66 506.074 1181.09 506.023 1180.56 506.18C1180.12 506.321 1179.74 506.623 1179.51 507.027C1179.28 507.431 1179.21 507.906 1179.31 508.36L1183.04 525.07L1188.92 522.52Z" fill="#FF9990"/>
<path d="M880.54 568.69L852.78 588.91L819.26 546.01L808.91 551.7C808.91 551.7 821.34 593.99 837.91 615.34C839.332 617.143 841.299 618.438 843.518 619.031C845.737 619.624 848.088 619.484 850.22 618.63C859.22 615.11 875.88 606.93 896.65 589.3L880.54 568.69Z" fill="#FF9990"/>
<path d="M872.2 574.76L893.2 609.76L913.81 593.89C917.864 590.768 920.588 586.228 921.436 581.182C922.283 576.136 921.192 570.955 918.38 566.68C911.79 556.68 898.21 553.68 888.89 561.23L872.2 574.76Z" fill="#7A000C"/>
<path d="M994.41 864.93L974.82 833.79L951.771 845.46L975.41 881.71L993.93 873.37L994.41 864.93Z" fill="#FBBA99"/>
<path d="M994.78 862.52C994.78 862.52 983.52 880.7 968.47 875.75L951.2 918.75L1011.89 874.87L994.78 862.52Z" fill="#980A00"/>
<path d="M1011.92 874.776L951.225 918.663L955.039 923.939L1015.73 880.051L1011.92 874.776Z" fill="#FEE8E8"/>
<path d="M930.481 678.23L954.131 778.42L993.861 845.16L956.101 867.04L908.371 782.06L892.561 718.04L930.481 678.23Z" fill="#636363"/>
<path d="M955.98 869.13L996.74 844.96L985.04 825.63L944.33 851.25L955.98 869.13Z" fill="#90000A"/>
<path d="M812.32 895.6L827.12 861.91L804.521 849.38L787.771 889.29L805.07 899.93L812.32 895.6Z" fill="#FBBA99"/>
<path d="M814.54 894.52C814.54 894.52 793.17 895.4 788.83 880.17L743.53 890L813.61 915L814.54 894.52Z" fill="#980A00"/>
<path d="M743.563 890.121L741.334 896.238L811.708 921.879L813.937 915.763L743.563 890.121Z" fill="#FEE8E8"/>
<path d="M884.78 650.66V673.41L824.97 765.84L787.54 867.04L824.15 881.68L861.91 789.02L927.43 711.28C934.681 702.827 939.609 692.633 941.73 681.7C944.13 668.7 939.29 652.27 924.9 638.62L884.78 650.66Z" fill="#757575"/>
<path d="M784.72 866.11L827.28 883.58L835.43 862.51L791.75 845.95L784.72 866.11Z" fill="#90000A"/>
<path d="M725.96 598.86H809.59C814.629 598.86 819.462 596.858 823.025 593.295C826.588 589.732 828.59 584.899 828.59 579.86V497.8C828.59 492.761 826.588 487.928 823.025 484.365C819.462 480.802 814.629 478.8 809.59 478.8H725.96C720.921 478.8 716.088 480.802 712.525 484.365C708.962 487.928 706.96 492.761 706.96 497.8V579.86C706.96 584.899 708.962 589.732 712.525 593.295C716.088 596.858 720.921 598.86 725.96 598.86" fill="#D7352C"/>
<path d="M742.17 537.18V540.43C742.165 541.126 742.408 541.801 742.855 542.334C743.302 542.867 743.924 543.224 744.61 543.34L748.45 544.02C748.905 545.694 749.577 547.301 750.45 548.8L748.21 552.02C747.821 552.592 747.642 553.28 747.702 553.969C747.762 554.658 748.058 555.305 748.54 555.8L750.84 558.1C751.336 558.582 751.983 558.878 752.671 558.939C753.36 558.999 754.049 558.819 754.62 558.43L757.74 556.24C759.241 557.109 760.848 557.781 762.52 558.24L763.19 562.07C763.318 562.753 763.678 563.371 764.211 563.818C764.744 564.265 765.415 564.513 766.11 564.52H769.41C770.104 564.511 770.773 564.262 771.303 563.815C771.834 563.368 772.193 562.752 772.32 562.07L772.99 558.24C774.667 557.783 776.277 557.111 777.78 556.24L780.97 558.48C781.542 558.869 782.23 559.049 782.919 558.989C783.608 558.928 784.255 558.632 784.75 558.15L787.05 555.84C787.54 555.351 787.842 554.705 787.902 554.015C787.963 553.326 787.778 552.637 787.38 552.07L785.14 548.87C786.014 547.371 786.686 545.764 787.14 544.09L790.97 543.42C791.654 543.293 792.272 542.932 792.719 542.399C793.165 541.866 793.413 541.195 793.42 540.5V537.25C793.423 536.553 793.178 535.878 792.729 535.345C792.28 534.812 791.657 534.456 790.97 534.34L787.14 533.67C786.688 531.992 786.015 530.381 785.14 528.88L787.38 525.69C787.769 525.118 787.949 524.43 787.889 523.741C787.829 523.052 787.532 522.406 787.05 521.91L784.75 519.61C784.261 519.117 783.612 518.814 782.921 518.754C782.229 518.693 781.538 518.88 780.97 519.28L777.78 521.42C776.281 520.547 774.674 519.874 773 519.42L772.32 515.59C772.204 514.903 771.848 514.28 771.315 513.831C770.782 513.382 770.107 513.137 769.41 513.14H766.1C765.414 513.151 764.753 513.403 764.233 513.85C763.712 514.298 763.364 514.913 763.25 515.59L762.58 519.52C760.906 519.974 759.299 520.647 757.8 521.52L754.61 519.28C754.049 518.872 753.363 518.675 752.671 518.725C751.979 518.774 751.327 519.066 750.83 519.55L748.53 521.85C748.038 522.34 747.734 522.988 747.674 523.68C747.613 524.372 747.8 525.062 748.2 525.63L750.44 528.82C749.567 530.319 748.895 531.926 748.44 533.6L744.6 534.28C743.916 534.396 743.295 534.751 742.848 535.282C742.401 535.813 742.158 536.486 742.16 537.18H742.17ZM758.99 538.85V538.8C758.997 536.476 759.925 534.25 761.572 532.61C763.219 530.971 765.449 530.052 767.773 530.055C770.096 530.058 772.324 530.984 773.966 532.628C775.608 534.272 776.53 536.501 776.53 538.825C776.53 541.149 775.608 543.378 773.966 545.022C772.324 546.666 770.096 547.592 767.773 547.595C765.449 547.598 763.219 546.679 761.572 545.04C759.925 543.4 758.997 541.174 758.99 538.85" fill="#FEE8E8"/>
<path d="M888.92 561.26L921.74 549.96C921.74 549.96 946.3 575.13 924.87 638.62L884.76 650.62C882.509 638.023 881.126 625.286 880.62 612.5C863.93 589.14 888.92 561.22 888.92 561.22" fill="#90000A"/>
<path d="M921.78 549.96C912.616 557.666 900.916 561.693 888.95 561.26L903.23 544.41L915.68 540.78L921.78 549.96Z" fill="#FF9990"/>
<path d="M890.99 527.72L897.56 557.03L919.65 550.41L906.68 512.61L890.99 527.72Z" fill="#FF9990"/>
<path d="M894.521 543.44L901.211 523.34L891.73 530.99L894.521 543.44Z" fill="#980A00"/>
<path d="M889.63 475.21C889.63 475.21 877.63 475.95 875.39 490.76C875.39 490.76 874.45 496.39 872.45 511.89C871.39 520.08 875.4 531.24 885.81 531.72C890.87 531.94 896.53 529.72 901.81 526.44L909.33 520.74C927.17 504.53 915.51 474.4 891.42 475.12L889.66 475.21" fill="#FF9990"/>
<path d="M874.19 504.75L869.19 510.58C869.03 510.731 868.912 510.922 868.848 511.132C868.784 511.343 868.776 511.567 868.824 511.782C868.872 511.996 868.976 512.195 869.124 512.358C869.272 512.52 869.461 512.642 869.67 512.71L874.93 514.2L874.19 504.75Z" fill="#FF9990"/>
<path d="M902.6 503.52C902.6 503.52 913.39 468.09 880.6 479.52C880.6 479.52 896.6 460.26 922.85 475.08C928.34 478.18 934.12 484.78 934.85 495.03C936.1 513.84 920.78 513.03 911.5 526.58L906.7 512.58C906.33 510.01 902.62 503.51 902.62 503.51" fill="#980A00"/>
<path d="M900.88 474.02C882.99 490.96 900.48 507.78 900.48 507.78L912.17 491.3C912.17 491.3 903.85 471.21 900.88 474.02Z" fill="#980A00"/>
<path d="M913.86 509.22C913.828 510.622 913.381 511.983 912.576 513.13C911.77 514.278 910.643 515.161 909.336 515.668C908.028 516.175 906.6 516.283 905.232 515.979C903.863 515.674 902.615 514.971 901.646 513.957C900.678 512.944 900.031 511.666 899.789 510.285C899.546 508.904 899.718 507.482 900.284 506.199C900.849 504.916 901.783 503.829 902.966 503.076C904.148 502.324 905.528 501.939 906.93 501.97C907.861 501.991 908.779 502.195 909.631 502.57C910.483 502.946 911.253 503.486 911.897 504.159C912.54 504.832 913.045 505.626 913.382 506.494C913.719 507.363 913.881 508.289 913.86 509.22Z" fill="#FF9990"/>
<path d="M903.72 469.52C903.72 469.52 871.87 457.17 870.3 484.71C870.3 484.71 888.75 492.41 907.77 481.85L903.72 469.52Z" fill="#980A00"/>
<path d="M962.9 510.52C961.217 513.731 958.619 516.372 955.436 518.107C952.252 519.842 948.625 520.594 945.014 520.267C941.403 519.941 937.97 518.551 935.149 516.274C932.328 513.996 930.246 510.933 929.166 507.472C928.086 504.011 928.057 500.307 929.082 496.829C930.107 493.352 932.14 490.256 934.925 487.934C937.71 485.612 941.12 484.168 944.726 483.785C948.331 483.401 951.969 484.096 955.18 485.78C959.483 488.038 962.714 491.912 964.162 496.552C965.609 501.191 965.156 506.215 962.9 510.52Z" fill="#980A00"/>
<path d="M887.94 580.66L863.78 609.86L822.9 573.86L814.29 581.94C814.29 581.94 836.84 619.82 858.18 636.39C860.005 637.785 862.232 638.552 864.528 638.575C866.825 638.599 869.067 637.878 870.92 636.52C878.74 630.87 892.87 618.81 908.61 596.57L887.94 580.66Z" fill="#FF9990"/>
<path d="M880.98 588.23L910.431 617.31L926.431 596.82C928.125 594.71 929.38 592.283 930.121 589.68C930.863 587.078 931.076 584.354 930.749 581.668C930.421 578.982 929.56 576.389 928.215 574.041C926.87 571.693 925.068 569.638 922.917 567.997C920.765 566.356 918.307 565.162 915.687 564.486C913.067 563.809 910.338 563.664 907.661 564.059C904.984 564.453 902.413 565.379 900.1 566.783C897.786 568.186 895.777 570.038 894.191 572.23L880.98 588.23Z" fill="#90000A"/>
<path d="M900.18 607.85L905.31 613.25L921.33 592.76" stroke="black" stroke-width="0.73" stroke-linecap="round" stroke-linejoin="round"/>
<path d="M880.98 588.23L891.701 575.26" stroke="black" stroke-width="0.73" stroke-linecap="round" stroke-linejoin="round"/>
<path d="M824.72 593.52L815.15 584.79C806.958 586.679 798.508 587.182 790.15 586.28C789.752 586.235 789.386 586.039 789.128 585.734C788.869 585.428 788.737 585.035 788.759 584.635C788.781 584.235 788.954 583.858 789.245 583.582C789.535 583.306 789.919 583.152 790.32 583.15L799.37 582.98C793.812 582.555 788.285 581.79 782.82 580.69C782.387 580.537 782.021 580.241 781.781 579.85C781.541 579.459 781.443 578.998 781.502 578.543C781.562 578.089 781.776 577.668 782.109 577.353C782.442 577.037 782.873 576.846 783.33 576.81L798.33 577.67L783.67 574.83C783.115 574.723 782.623 574.403 782.3 573.939C781.977 573.474 781.848 572.902 781.941 572.344C782.033 571.786 782.34 571.286 782.796 570.951C783.251 570.616 783.82 570.472 784.38 570.55L798.3 572.47L786.78 568.88C786.168 568.67 785.661 568.232 785.365 567.657C785.068 567.083 785.004 566.416 785.188 565.795C785.371 565.175 785.786 564.649 786.347 564.328C786.909 564.006 787.572 563.914 788.2 564.07C792.68 565.31 803.83 568 809.82 565.88C808.109 564.536 806.258 563.379 804.3 562.43C803.665 562.121 803.169 561.585 802.909 560.929C802.648 560.272 802.643 559.542 802.894 558.882C803.144 558.222 803.633 557.679 804.263 557.36C804.893 557.042 805.62 556.97 806.3 557.16L814.98 559.76C816.623 560.261 818.039 561.323 818.98 562.76L824.11 570.56L836.5 588.99L824.72 593.52Z" fill="#FF9990"/>
<path d="M556.39 516.32C556.39 516.32 579.78 530.02 579.78 563.46L551.84 574.94L556.39 516.32Z" fill="#878787"/>
<path d="M564.03 570.05L565.98 541.52" stroke="black" stroke-width="0.75" stroke-linecap="round" stroke-linejoin="round"/>
<path d="M468.07 891.88H490.92L528.69 912.09L463.74 911.31L468.07 891.88Z" fill="#070707"/>
<path d="M463.51 919.86L463.74 911.31L528.69 912.09L528.47 920.64L463.51 919.86Z" fill="#FEE8E8"/>
<path d="M494.669 859.67H471.379L468.069 891.88H491.359L494.669 859.67Z" fill="#FEE8E8"/>
<path d="M538.69 892.58H561.53L599.31 912.79L534.35 912.01L538.69 892.58Z" fill="#070707"/>
<path d="M534.12 920.56L534.35 912.01L599.31 912.79L599.08 921.34L534.12 920.56Z" fill="#FEE8E8"/>
<path d="M561.59 860.38H538.3L538.69 892.58H561.97L561.59 860.38Z" fill="#FEE8E8"/>
<path d="M562.96 617.7L571.32 880.72L533.39 880.36L527.05 676.85L503.79 882.4L465.06 881.14L486.77 623.6L502.45 620.88L562.96 617.7Z" fill="#B30018"/>
<path d="M519 506.46C509.36 507.234 499.887 509.432 490.89 512.98C488.69 513.87 486.52 514.83 484.54 515.87C478.29 519.13 480.16 526.19 480.95 533.39L484.61 630.79L563.2 628.79L566.32 536.59C566.699 531.776 565.492 526.971 562.885 522.907C560.278 518.843 556.413 515.743 551.88 514.08C541.59 510.45 529.02 506.39 523.55 506.08L519 506.46Z" fill="#878787"/>
<path d="M544.78 511.52C544.78 511.52 532.78 506.78 523.56 506.03C517.428 505.937 511.315 506.732 505.41 508.39L533.1 526.99L544.78 511.52Z" fill="#FF9990"/>
<path d="M540.16 485.21L539.48 515.7L514.7 513.76L520.2 473.89L540.16 485.21Z" fill="#FF9990"/>
<path d="M539.871 500.16L524.891 485.73L540.161 486.06L539.871 500.16Z" fill="#980A00"/>
<path d="M545.89 434.42C549.212 435.785 552.098 438.033 554.234 440.92C556.37 443.807 557.676 447.224 558.01 450.8C558.88 459.16 559.66 472.12 557.01 478.47C553.01 488.29 544.45 494.05 531.54 490.54C531.54 490.54 516.43 488.7 514.25 465.92C511.66 438.92 530.59 428.39 545.84 434.42" fill="#FF9990"/>
<path d="M521.301 465.89C521.301 465.89 527.421 454.38 525.201 441.89C525.201 441.89 542.851 441.73 554.671 441.58C554.671 441.58 552.141 426.18 527.021 428.17C492.631 430.9 502.681 467.55 519.081 473.83L521.301 465.89Z" fill="#980A00"/>
<path d="M506.401 470.12C506.761 471.717 507.588 473.172 508.775 474.3C509.963 475.428 511.458 476.178 513.072 476.456C514.686 476.734 516.346 476.527 517.843 475.861C519.339 475.195 520.604 474.101 521.479 472.716C522.353 471.331 522.797 469.718 522.755 468.081C522.712 466.444 522.185 464.856 521.24 463.518C520.295 462.181 518.974 461.153 517.446 460.566C515.917 459.979 514.248 459.859 512.651 460.22C510.509 460.704 508.648 462.019 507.476 463.876C506.304 465.732 505.917 467.978 506.401 470.12Z" fill="#FF9990"/>
<path d="M603.78 566.52L589.27 633.95C589.022 635.071 588.396 636.073 587.496 636.787C586.596 637.501 585.478 637.883 584.33 637.87L530.33 636.87C529.594 636.851 528.871 636.671 528.214 636.34C527.556 636.01 526.979 635.539 526.524 634.96C526.069 634.381 525.748 633.709 525.583 632.992C525.418 632.274 525.414 631.529 525.57 630.81L540.78 563.44C541.038 562.33 541.667 561.341 542.563 560.637C543.46 559.933 544.57 559.556 545.71 559.57L599.03 560.51C599.76 560.53 600.476 560.71 601.129 561.037C601.782 561.363 602.355 561.829 602.808 562.401C603.262 562.972 603.585 563.637 603.755 564.347C603.924 565.056 603.936 565.795 603.79 566.51" fill="#3C3E46"/>
<path d="M602.29 561.81L605.47 565.1L529.88 638.48L526.47 634.94L602.29 561.81Z" fill="#0B0B0C"/>
<path d="M606.63 569.46L592.12 636.89C591.872 638.011 591.246 639.013 590.346 639.727C589.447 640.441 588.329 640.823 587.18 640.81L533.18 639.86C532.446 639.841 531.724 639.661 531.067 639.331C530.41 639.001 529.834 638.531 529.379 637.953C528.924 637.376 528.603 636.705 528.437 635.989C528.272 635.273 528.266 634.529 528.42 633.81L543.59 566.39C543.846 565.278 544.474 564.286 545.371 563.581C546.268 562.875 547.379 562.497 548.52 562.51L601.84 563.45C602.57 563.47 603.286 563.65 603.939 563.977C604.592 564.303 605.165 564.769 605.619 565.341C606.073 565.912 606.395 566.577 606.565 567.286C606.735 567.996 606.747 568.735 606.6 569.45" fill="#A5271D"/>
<path d="M607.72 593.38L603.12 612C602.85 613.113 602.206 614.1 601.296 614.795C600.386 615.49 599.265 615.852 598.12 615.82C596.502 615.79 594.909 615.407 593.454 614.698C591.999 613.989 590.717 612.971 589.696 611.715C588.675 610.459 587.941 608.996 587.544 607.426C587.147 605.857 587.098 604.22 587.4 602.63L588.58 596.42C589.045 594.005 590.297 591.812 592.141 590.183C593.985 588.555 596.316 587.583 598.77 587.42L602.48 587.18C603.267 587.126 604.057 587.259 604.783 587.569C605.509 587.879 606.152 588.356 606.658 588.962C607.164 589.568 607.52 590.285 607.696 591.054C607.872 591.824 607.863 592.624 607.67 593.39" fill="#FF9990"/>
<path d="M492.55 546.14L445.55 588.14C443.47 590.362 440.657 591.756 437.63 592.065C434.602 592.373 431.565 591.576 429.08 589.82C427.535 588.706 426.238 587.283 425.272 585.641C424.306 583.999 423.692 582.175 423.468 580.283C423.244 578.391 423.416 576.474 423.973 574.652C424.529 572.83 425.458 571.144 426.7 569.7L470.7 525.56C475.98 519.46 485.11 518.07 491.27 523.2C492.903 524.591 494.235 526.299 495.188 528.221C496.14 530.143 496.692 532.238 496.81 534.38C496.928 536.521 496.609 538.665 495.873 540.679C495.138 542.694 494 544.538 492.53 546.1" fill="#FF9990"/>
<path d="M493.59 511.95C493.59 511.95 474.71 515.77 451.28 544.84L471.35 571.77L501.92 549.06L493.59 511.95Z" fill="#878787"/>
<path d="M481.73 564.06L499.47 550.89" stroke="black" stroke-width="0.75" stroke-linecap="round" stroke-linejoin="round"/>
<path d="M441.73 565.38L511.88 593.81L503.29 604.97L432.61 591.59L441.73 565.38Z" fill="#FF9990"/>
<path d="M461.91 573.56L446.98 567.51" stroke="black" stroke-width="0.75" stroke-linecap="round" stroke-linejoin="round"/>
<path d="M496.64 596.1C496.64 596.1 494.84 582.84 506.22 576.61C517.6 570.38 525.08 578.21 525.47 585.31C525.86 592.41 522.4 605.7 508.47 605.58C494.54 605.46 496.6 596.1 496.6 596.1" fill="#FF9990"/>
<path d="M510.17 574.95C510.17 574.95 522.4 571.3 532.89 571.82C533.412 571.852 533.911 572.048 534.315 572.38C534.719 572.712 535.008 573.164 535.14 573.67C535.232 573.998 535.257 574.342 535.212 574.681C535.167 575.019 535.054 575.344 534.879 575.637C534.704 575.93 534.471 576.185 534.194 576.384C533.917 576.584 533.603 576.726 533.27 576.8L515.89 580.67L510.17 574.95Z" fill="#FF9990"/>
<path d="M284.51 565.73L232.01 546.33L234.47 571.15C234.47 571.15 262.74 583.45 280.55 586.24C298.36 589.03 284.55 565.73 284.55 565.73" fill="#FF9990"/>
<path d="M218.28 545.37C218.28 545.37 218.8 538.86 232.01 541.37C248.94 544.62 270.67 555.94 270.67 555.94L250.94 589.77L213.55 575.77L218.28 545.37Z" fill="#D7352C"/>
<path d="M235.67 899.95L233.44 857.03L212.36 859.81L216.51 904.7L236.68 901.13L235.67 899.95Z" fill="#FF9990"/>
<path d="M213.57 894.66C213.57 894.66 227.76 901.97 235.64 891.1L273.91 911.66L208.37 911.25L213.57 894.66Z" fill="#980A00"/>
<path d="M208.353 911.212L208.315 917.141L273.854 917.553L273.891 911.623L208.353 911.212Z" fill="#FEE8E8"/>
<path d="M212.94 614.78C212.94 614.78 231.86 625.95 234.12 688.36C236.38 750.77 240.27 874.13 240.27 874.13H208.37L191.98 652.23L196.27 614.78H212.94Z" fill="#878787"/>
<path d="M180.61 899.95L182.68 857.03L161.6 859.81L161.44 904.7L181.61 901.13L180.61 899.95Z" fill="#FF9990"/>
<path d="M158.5 894.66C158.5 894.66 174.8 901.66 182.68 890.76L218.84 911.66L153.3 911.25L158.5 894.66Z" fill="#980A00"/>
<path d="M153.286 911.21L153.249 917.14L218.788 917.552L218.825 911.622L153.286 911.21Z" fill="#FEE8E8"/>
<path d="M169.71 622.87C169.71 622.87 150.58 645.01 153.39 683.81L154.33 874.52L190.58 873.57L202.05 620.64L169.71 622.87Z" fill="#878787"/>
<path d="M197.47 722.49L199.51 672.57L211.4 658.96" stroke="black" stroke-width="0.7" stroke-linecap="round" stroke-linejoin="round"/>
<path d="M211.581 513.22L211.101 542.44L189.601 544.12L191.681 499.04L211.581 513.22Z" fill="#FF9990"/>
<path d="M211.331 528.47L196.121 512.07L211.581 513.22L211.331 528.47Z" fill="#980A00"/>
<path d="M174.65 537.01L195.98 535.23L230.34 541.11C230.34 541.11 233.02 591.6 227.23 617.29C226.749 619.467 225.502 621.398 223.716 622.733C221.93 624.067 219.724 624.716 217.5 624.56L167.9 625.27C165.666 623.421 163.872 621.097 162.647 618.468C161.422 615.839 160.798 612.97 160.82 610.07L164.38 541.93C164.49 539.79 172.53 537.21 174.65 537.01" fill="#D7352C"/>
<path d="M230.75 582.21L230.96 562.8" stroke="black" stroke-width="0.73" stroke-linecap="round" stroke-linejoin="round"/>
<path d="M182.341 536.37L197.781 534.82L218.251 539.05C218.251 539.05 218.171 554.05 201.601 553.05C185.031 552.05 182.331 536.4 182.331 536.4" fill="#FF9990"/>
<path d="M174.65 473.86C174.65 473.86 154.91 456.61 142.92 466.67C133.42 474.67 133.45 489.52 133.87 495.38C134.15 498.852 133.812 502.346 132.87 505.7C131.65 509.95 127.56 514.89 122.6 517.37L153 529.71C153 529.71 147.89 518.3 154.05 513.45C160.21 508.6 166.48 507.65 167.85 502.13C169.85 494.13 154.32 476.03 172.34 481.02L174.65 473.86Z" fill="#980A00"/>
<path d="M181.97 472.38C181.97 472.38 173.51 466.14 170.11 474.23C167.45 480.56 168.76 484.35 174.11 484.64C179.46 484.93 182.01 472.38 182.01 472.38" fill="#B30018"/>
<path d="M221.55 470.75C223.477 472.035 224.911 473.935 225.62 476.14C227.81 482.63 232.2 496.14 230.75 503.53C228.85 513.12 222.13 519.89 209.75 519.14C209.75 519.14 194.8 518.21 189.6 500.14C181.34 471.5 204.86 459.92 221.53 470.71" fill="#FF9990"/>
<path d="M195.18 498.52C195.18 498.52 199.75 491.52 196.69 479.17C206.303 478.424 215.863 477.112 225.32 475.24C225.32 475.24 219.54 456.24 192.14 464.47C163.66 473.04 168.03 506.47 190.9 515.81L195.18 498.52Z" fill="#980A00"/>
<path d="M181.29 504.79C181.982 506.326 183.113 507.623 184.542 508.516C185.97 509.41 187.631 509.859 189.315 509.809C190.999 509.758 192.63 509.21 194.003 508.232C195.375 507.255 196.426 505.893 197.024 504.318C197.623 502.743 197.74 501.026 197.363 499.384C196.985 497.742 196.13 496.249 194.904 495.093C193.678 493.938 192.137 493.171 190.476 492.891C188.814 492.611 187.107 492.83 185.57 493.52C184.549 493.977 183.628 494.632 182.861 495.446C182.093 496.259 181.493 497.217 181.095 498.262C180.698 499.308 180.51 500.422 180.544 501.541C180.577 502.659 180.831 503.76 181.29 504.78" fill="#FF9990"/>
<path d="M204.13 462.35C209.21 462.09 224.9 461.11 232.6 469.29C235.6 472.49 233.34 477.62 228.6 478.36L199.38 483.66C198.019 483.933 196.606 483.716 195.39 483.046C194.174 482.376 193.236 481.297 192.74 480L191.29 475.58C190.959 474.456 191.002 473.255 191.411 472.157C191.82 471.059 192.574 470.123 193.56 469.49L199.29 464.49C200.29 463.79 202.86 462.37 204.1 462.3" fill="#980A00"/>
<path d="M331.58 544.66L290.78 583.41C289.539 584.586 288.044 585.462 286.411 585.968C284.778 586.475 283.051 586.599 281.362 586.331C279.673 586.063 278.069 585.411 276.673 584.424C275.276 583.437 274.126 582.142 273.31 580.64L269.38 569.77L326.38 531.59L331.58 544.66Z" fill="#FF9990"/>
<path d="M323.62 539.22C324.38 541.565 325.818 543.632 327.753 545.159C329.688 546.686 332.032 547.606 334.489 547.8C336.946 547.995 339.406 547.457 341.557 546.253C343.708 545.05 345.454 543.235 346.574 541.039C347.693 538.843 348.137 536.364 347.847 533.917C347.558 531.469 346.549 529.162 344.948 527.287C343.347 525.413 341.227 524.055 338.854 523.387C336.482 522.718 333.964 522.768 331.62 523.53C330.064 524.035 328.623 524.841 327.379 525.902C326.135 526.964 325.112 528.26 324.369 529.718C323.626 531.175 323.178 532.764 323.049 534.394C322.921 536.025 323.115 537.665 323.62 539.22" fill="#FF9990"/>
<path d="M332.25 523.34L345.55 514.46C346 514.143 346.556 514.01 347.101 514.09C347.646 514.17 348.14 514.456 348.48 514.89C348.762 515.26 348.894 515.724 348.849 516.187C348.805 516.65 348.587 517.08 348.24 517.39L335.54 528.87L332.25 523.34Z" fill="#FF9990"/>
<path d="M124.12 593.06L162.12 629.06L153.48 639.13L106.68 608.46C105.506 607.342 104.578 605.993 103.954 604.497C103.33 603.001 103.025 601.392 103.056 599.771C103.088 598.151 103.457 596.555 104.139 595.085C104.822 593.614 105.802 592.302 107.019 591.232C108.236 590.161 109.662 589.356 111.207 588.866C112.752 588.377 114.383 588.214 115.994 588.389C117.605 588.564 119.162 589.072 120.567 589.881C121.971 590.691 123.191 591.783 124.15 593.09" fill="#FF9990"/>
<path d="M190.57 632.69L177.38 625.69L178.74 622.79C178.988 622.269 179.054 621.68 178.927 621.117C178.801 620.554 178.489 620.05 178.042 619.685C177.595 619.32 177.039 619.115 176.462 619.103C175.886 619.091 175.321 619.273 174.86 619.62L162.09 629.05L153.45 639.12C160.54 645.41 165.24 645.42 167.97 644.27C168.28 644.39 168.6 644.51 168.92 644.6L179.92 647.98C180.41 648.201 180.965 648.228 181.474 648.055C181.982 647.883 182.406 647.523 182.66 647.05C183.04 646.33 183.19 645.18 181.07 644.05L183.19 645.17C183.704 645.404 184.288 645.431 184.821 645.244C185.354 645.058 185.794 644.673 186.05 644.17C186.54 643.24 185.98 641.99 184.75 641.17L186.36 641.84C186.642 641.968 186.948 642.036 187.258 642.041C187.568 642.046 187.875 641.987 188.161 641.868C188.447 641.748 188.706 641.572 188.92 641.349C189.135 641.125 189.302 640.86 189.41 640.57C189.585 640.038 189.563 639.46 189.348 638.943C189.134 638.425 188.74 638.002 188.24 637.75L185.91 636.52L188.69 637.24C188.998 637.356 189.325 637.409 189.654 637.395C189.982 637.381 190.304 637.3 190.6 637.158C190.897 637.016 191.161 636.815 191.378 636.568C191.594 636.321 191.758 636.032 191.86 635.72C192.036 635.148 192.003 634.532 191.767 633.983C191.531 633.433 191.106 632.986 190.57 632.72" fill="#FF9990"/>
<path d="M112.61 602.99L106.61 591.5L136.61 562.6C141.56 556.45 165.37 537.55 169.87 544.04C173.17 548.8 160.18 575.04 156.01 579.09L125.18 606.94L112.61 602.99Z" fill="#FF9990"/>
<path d="M182.341 536.52C182.341 536.52 167.951 536.63 157.341 541.24C136.861 550.24 124.291 569.17 124.291 569.17L151.091 591.85L187.871 562.21L182.341 536.52Z" fill="#D7352C"/>
<path d="M162.09 582.98L177.58 571.27" stroke="black" stroke-width="0.73" stroke-linecap="round" stroke-linejoin="round"/>
<defs>
<linearGradient id="paint0_linear" x1="800" y1="0" x2="800" y2="1031" gradientUnits="userSpaceOnUse">
<stop stop-color="white"/>
<stop offset="0.619792" stop-color="#858585" stop-opacity="0.36"/>
<stop offset="1" stop-opacity="0.49"/>
</linearGradient>
</defs>
</svg>
