<?xml version="1.0" encoding="UTF-8"?>
<svg width="1600px" height="899px" viewBox="0 0 1600 899" version="1.1" xmlns="http://www.w3.org/2000/svg" xmlns:xlink="http://www.w3.org/1999/xlink">
    <!-- Generator: Sketch 52.6 (67491) - http://www.bohemiancoding.com/sketch -->
    <title>working2</title>
    <desc>Created with Sketch.</desc>
    <defs>
        <linearGradient x1="50%" y1="0%" x2="50%" y2="100%" id="linearGradient-1">
            <stop stop-color="#FFFFFF" offset="0%"></stop>
            <stop stop-color="#858585" stop-opacity="0.36" offset="61.9792%"></stop>
            <stop stop-color="#000000" stop-opacity="0.49" offset="100%"></stop>
        </linearGradient>
    </defs>
    <g id="Page-1" stroke="none" stroke-width="1" fill="none" fill-rule="evenodd">
        <g id="working2">
            <g id="Group-2">
                <rect id="Rectangle" fill="url(#linearGradient-1)" x="0" y="0" width="1600" height="899"></rect>
                <polygon id="Path" stroke="#FEE8E8" stroke-width="1.94" points="1301.71 137.468 333.152 137.468 333.152 778.527 1301.71 778.527"></polygon>
                <path d="M333.152,246.735 L1301.71,246.735" id="Path" stroke="#FEE8E8" stroke-width="1.94"></path>
                <path d="M333.152,355.994 L1301.71,355.994" id="Path" stroke="#FEE8E8" stroke-width="1.94"></path>
                <path d="M333.152,465.261 L1301.71,465.261" id="Path" stroke="#FEE8E8" stroke-width="1.94"></path>
                <path d="M1301.71,574.52 L333.152,574.52" id="Path" stroke="#FEE8E8" stroke-width="1.94"></path>
                <path d="M333.152,683.779 L1301.71,683.779" id="Path" stroke="#FEE8E8" stroke-width="1.94"></path>
                <path d="M435.392,137.468 L435.392,778.535" id="Path" stroke="#FEE8E8" stroke-width="1.94"></path>
                <path d="M530.454,137.468 L530.454,778.535" id="Path" stroke="#FEE8E8" stroke-width="1.94"></path>
                <path d="M625.517,137.468 L625.517,778.535" id="Path" stroke="#FEE8E8" stroke-width="1.94"></path>
                <path d="M720.579,137.468 L720.579,778.535" id="Path" stroke="#FEE8E8" stroke-width="1.94"></path>
                <path d="M815.634,137.468 L815.634,778.535" id="Path" stroke="#FEE8E8" stroke-width="1.94"></path>
                <path d="M910.696,137.468 L910.696,778.535" id="Path" stroke="#FEE8E8" stroke-width="1.94"></path>
                <path d="M1005.76,137.468 L1005.76,778.535" id="Path" stroke="#FEE8E8" stroke-width="1.94"></path>
                <path d="M1100.81,137.468 L1100.81,778.535" id="Path" stroke="#FEE8E8" stroke-width="1.94"></path>
                <path d="M1195.88,137.468 L1195.88,778.535" id="Path" stroke="#FEE8E8" stroke-width="1.94"></path>
                <path d="M281.275,778.535 L1331.32,778.535" id="Path" stroke="#90000A" stroke-width="1.94"></path>
                <path d="M1058.6,528.71 C1058.6,530.53 1058.07,532.309 1057.06,533.822 C1056.05,535.336 1054.61,536.516 1052.93,537.213 C1051.25,537.91 1049.4,538.094 1047.62,537.74 C1045.83,537.386 1044.19,536.511 1042.91,535.225 C1041.62,533.939 1040.74,532.3 1040.39,530.516 C1040.03,528.732 1040.21,526.882 1040.91,525.201 C1041.61,523.52 1042.78,522.083 1044.3,521.073 C1045.81,520.062 1047.59,519.522 1049.41,519.522 C1050.61,519.521 1051.81,519.758 1052.93,520.219 C1054.04,520.68 1055.06,521.357 1055.91,522.21 C1056.76,523.064 1057.44,524.077 1057.9,525.192 C1058.37,526.308 1058.6,527.503 1058.6,528.71" id="Path" fill="#FEE8E8"></path>
                <path d="M971.231,288.066 C971.233,289.885 970.695,291.664 969.685,293.178 C968.676,294.691 967.24,295.871 965.56,296.569 C963.879,297.266 962.03,297.449 960.245,297.095 C958.461,296.741 956.821,295.866 955.534,294.58 C954.247,293.294 953.371,291.656 953.015,289.872 C952.66,288.087 952.841,286.238 953.537,284.557 C954.233,282.876 955.412,281.439 956.924,280.428 C958.437,279.417 960.215,278.878 962.035,278.878 C963.242,278.877 964.438,279.113 965.553,279.575 C966.669,280.036 967.683,280.713 968.537,281.566 C969.391,282.419 970.069,283.433 970.531,284.548 C970.993,285.663 971.231,286.859 971.231,288.066" id="Path" fill="#FEE8E8"></path>
                <polygon id="Path" fill="#FEE8E8" points="680.672 251.346 689.604 265.865 710.472 252.24 716.705 264.193 735.438 226.537 688.619 230.684 700.249 239.558"></polygon>
                <path d="M686.722,103.744 C686.72,105.888 686.083,107.984 684.89,109.765 C683.696,111.547 682.002,112.934 680.02,113.752 C678.038,114.57 675.857,114.781 673.755,114.36 C671.653,113.938 669.723,112.902 668.21,111.383 C666.697,109.864 665.668,107.93 665.254,105.826 C664.841,103.722 665.06,101.543 665.886,99.5641 C666.711,97.5852 668.105,95.8957 669.891,94.7094 C671.678,93.5232 673.775,92.8934 675.92,92.9 C678.788,92.9109 681.536,94.0582 683.561,96.0907 C685.585,98.1231 686.722,100.875 686.722,103.744 Z" id="Path" stroke="#FEE8E8" stroke-width="3.81"></path>
                <path d="M288.874,519.365 C288.874,521.508 288.239,523.603 287.048,525.385 C285.858,527.167 284.165,528.556 282.185,529.376 C280.205,530.196 278.027,530.41 275.925,529.992 C273.823,529.574 271.892,528.542 270.377,527.027 C268.861,525.511 267.829,523.581 267.411,521.479 C266.993,519.377 267.208,517.198 268.028,515.218 C268.848,513.238 270.237,511.546 272.019,510.355 C273.801,509.165 275.896,508.529 278.039,508.529 C280.913,508.529 283.669,509.671 285.701,511.703 C287.733,513.735 288.874,516.491 288.874,519.365 Z" id="Path" stroke="#FEE8E8" stroke-width="3.81"></path>
                <path d="M1352.95,246.718 C1352.95,248.861 1352.31,250.956 1351.12,252.738 C1349.93,254.52 1348.24,255.909 1346.26,256.729 C1344.28,257.549 1342.1,257.764 1340,257.346 C1337.89,256.928 1335.96,255.896 1334.45,254.38 C1332.93,252.865 1331.9,250.934 1331.48,248.832 C1331.06,246.73 1331.28,244.552 1332.1,242.572 C1332.92,240.592 1334.31,238.899 1336.09,237.709 C1337.87,236.518 1339.97,235.883 1342.11,235.883 C1344.98,235.883 1347.74,237.024 1349.77,239.056 C1351.8,241.088 1352.95,243.845 1352.95,246.718 Z" id="Path" stroke="#FEE8E8" stroke-width="3.81"></path>
                <g id="Group" opacity="0.38" transform="translate(1340.000000, 457.000000)" fill="#DCE0E5">
                    <path d="M11.07,5.736 C11.07,6.784 10.76,7.809 10.17,8.68 C9.59,9.552 8.76,10.231 7.79,10.632 C6.83,11.032 5.76,11.137 4.73,10.932 C3.7,10.727 2.76,10.221 2.02,9.479 C1.28,8.738 0.77,7.793 0.57,6.765 C0.37,5.737 0.47,4.671 0.88,3.703 C1.28,2.735 1.96,1.908 2.83,1.327 C3.7,0.746 4.73,0.437 5.78,0.438 C6.47,0.438 7.16,0.576 7.8,0.842 C8.45,1.108 9.03,1.499 9.52,1.991 C10.01,2.483 10.4,3.067 10.67,3.71 C10.93,4.352 11.07,5.041 11.07,5.736 Z" id="Path"></path>
                </g>
                <path d="M1074.31,98.4296 L1003.22,98.4296 C1002.41,98.4296 1001.64,98.7496 1001.07,99.3194 C1000.5,99.8891 1000.18,100.662 1000.18,101.468 L1000.18,101.823 C1000.18,102.223 1000.26,102.619 1000.41,102.989 C1000.56,103.358 1000.78,103.694 1001.07,103.977 C1001.35,104.26 1001.68,104.484 1002.05,104.638 C1002.42,104.791 1002.82,104.87 1003.22,104.87 L1074.31,104.87 C1074.71,104.87 1075.11,104.791 1075.48,104.638 C1075.85,104.484 1076.18,104.26 1076.47,103.977 C1076.75,103.694 1076.97,103.358 1077.12,102.989 C1077.28,102.619 1077.35,102.223 1077.35,101.823 L1077.35,101.468 C1077.35,100.662 1077.03,99.8891 1076.46,99.3194 C1075.89,98.7496 1075.12,98.4296 1074.31,98.4296" id="Path" fill="#8F8F8F"></path>
                <path d="M1348.96,351.888 C1348.96,361.525 1346.11,370.945 1340.75,378.957 C1335.4,386.97 1327.79,393.215 1318.89,396.902 C1309.98,400.59 1300.19,401.555 1290.74,399.675 C1281.28,397.795 1272.6,393.155 1265.79,386.341 C1258.97,379.526 1254.33,370.845 1252.45,361.393 C1250.57,351.942 1251.54,342.145 1255.23,333.242 C1258.91,324.339 1265.16,316.73 1273.17,311.376 C1281.18,306.022 1290.6,303.165 1300.24,303.165 C1313.16,303.165 1325.56,308.298 1334.69,317.436 C1343.83,326.573 1348.96,338.966 1348.96,351.888" id="Path" fill="#8F8F8F"></path>
                <polygon id="Path" fill="#FEE8E8" points="1279.17 365.108 1290.97 353.312 1279.17 344.546"></polygon>
                <polygon id="Path" fill="#FEE8E8" points="1306.53 355.472 1300.21 360.174 1293.76 355.39 1282.65 366.714 1317.7 366.714"></polygon>
                <polygon id="Path" fill="#FEE8E8" points="1309.44 353.312 1321.23 365.099 1321.23 344.546"></polygon>
                <polygon id="Path" fill="#FEE8E8" points="1300.29 356.184 1321.31 340.547 1321.31 335.44 1279.26 335.44 1279.26 340.547"></polygon>
                <path d="M929.155,212.986 L814.64,212.986 C810.34,212.984 806.218,211.275 803.178,208.234 C800.139,205.193 798.432,201.069 798.432,196.77 L798.432,113.528 C798.432,110.268 799.727,107.141 802.032,104.836 C804.337,102.531 807.464,101.236 810.724,101.236 L929.163,101.236 C932.423,101.236 935.55,102.531 937.855,104.836 C940.161,107.141 941.456,110.268 941.456,113.528 L941.456,200.694 C941.456,203.954 940.161,207.081 937.855,209.386 C935.55,211.691 932.423,212.986 929.163,212.986" id="Path" fill="#8F8F8F"></path>
                <path d="M905.564,129.836 L899.198,128.561 C899.1,128.536 899.011,128.485 898.94,128.414 C898.868,128.342 898.817,128.253 898.792,128.155 L897.517,121.79 C897.368,121.045 896.822,120.879 896.284,121.417 L887.112,130.581 C886.975,130.736 886.874,130.92 886.816,131.118 C886.757,131.317 886.742,131.526 886.773,131.731 L887.683,136.292 L865.921,157.699 C865.473,158.147 865.222,158.754 865.222,159.387 C865.222,160.021 865.473,160.628 865.921,161.076 C866.369,161.524 866.976,161.776 867.61,161.776 C868.243,161.776 868.851,161.524 869.298,161.076 L891.053,139.67 L895.614,140.58 C895.819,140.61 896.029,140.595 896.228,140.535 C896.427,140.474 896.61,140.371 896.764,140.233 L905.936,131.061 C906.466,130.531 906.309,129.985 905.564,129.836" id="Path" fill="#D7352C"></path>
                <path d="M874.977,145.406 L878.976,141.408 C879.011,141.378 879.038,141.34 879.055,141.298 C879.072,141.255 879.079,141.209 879.074,141.163 C879.069,141.117 879.053,141.073 879.027,141.035 C879.001,140.997 878.967,140.966 878.926,140.944 C874.358,138.261 868.968,137.335 863.767,138.339 C858.565,139.343 853.908,142.209 850.667,146.4 C847.426,150.591 845.824,155.82 846.16,161.107 C846.497,166.394 848.749,171.377 852.495,175.123 C856.241,178.869 861.224,181.122 866.512,181.458 C871.799,181.795 877.027,180.193 881.218,176.952 C885.409,173.711 888.275,169.054 889.279,163.852 C890.283,158.65 889.357,153.26 886.674,148.692 C886.653,148.651 886.623,148.616 886.585,148.589 C886.547,148.563 886.503,148.546 886.458,148.54 C886.412,148.534 886.365,148.54 886.322,148.556 C886.279,148.573 886.241,148.6 886.21,148.635 L882.212,152.633 C882.137,152.713 882.087,152.814 882.068,152.923 C882.049,153.032 882.061,153.144 882.105,153.245 C883.287,155.84 883.737,158.71 883.405,161.542 C883.073,164.375 881.972,167.063 880.221,169.314 C878.47,171.565 876.136,173.294 873.472,174.313 C870.809,175.332 867.917,175.602 865.11,175.095 C862.304,174.587 859.69,173.32 857.552,171.433 C855.414,169.545 853.834,167.108 852.983,164.386 C852.132,161.664 852.042,158.761 852.724,155.991 C853.405,153.222 854.832,150.692 856.849,148.676 C859.096,146.422 861.979,144.911 865.111,144.345 C868.242,143.78 871.472,144.188 874.365,145.514 C874.467,145.555 874.578,145.567 874.687,145.548 C874.795,145.529 874.896,145.48 874.977,145.406" id="Path" fill="#D7352C"></path>
                <path d="M897.766,144.049 L893.693,148.113 C893.618,148.194 893.568,148.295 893.549,148.403 C893.53,148.512 893.543,148.624 893.586,148.726 C896.136,154.688 896.531,161.352 894.702,167.573 C892.874,173.795 888.936,179.185 883.565,182.82 C878.195,186.454 871.727,188.105 865.272,187.489 C858.816,186.873 852.777,184.029 848.19,179.445 C843.604,174.861 840.756,168.823 840.137,162.368 C839.517,155.914 841.165,149.444 844.796,144.072 C848.427,138.699 853.816,134.759 860.036,132.927 C866.257,131.095 872.921,131.486 878.884,134.032 C878.989,134.071 879.101,134.081 879.211,134.061 C879.32,134.04 879.422,133.99 879.505,133.917 L883.57,129.852 C883.604,129.823 883.631,129.786 883.647,129.743 C883.663,129.701 883.668,129.655 883.662,129.61 C883.655,129.565 883.637,129.523 883.609,129.487 C883.582,129.451 883.545,129.423 883.503,129.405 C876.275,125.681 867.955,124.662 860.042,126.533 C852.129,128.404 845.145,133.041 840.35,139.607 C835.555,146.174 833.265,154.237 833.892,162.344 C834.519,170.451 838.022,178.067 843.77,183.818 C849.518,189.569 857.131,193.076 865.238,193.708 C873.344,194.34 881.409,192.054 887.979,187.262 C894.548,182.471 899.188,175.49 901.064,167.578 C902.939,159.666 901.925,151.345 898.205,144.115 C898.188,144.073 898.161,144.036 898.126,144.008 C898.091,143.98 898.049,143.962 898.004,143.956 C897.96,143.949 897.915,143.954 897.873,143.97 C897.831,143.987 897.794,144.014 897.766,144.049" id="Path" fill="#D7352C"></path>
                <path d="M553.484,193.724 C553.454,198.961 551.873,204.071 548.94,208.41 C546.007,212.748 541.854,216.12 537.005,218.099 C532.157,220.078 526.831,220.576 521.699,219.529 C516.568,218.482 511.862,215.938 508.177,212.217 C504.491,208.497 501.991,203.768 500.992,198.627 C499.993,193.486 500.541,188.165 502.565,183.335 C504.59,178.505 508,174.384 512.366,171.492 C516.732,168.599 521.857,167.066 527.094,167.086 C530.579,167.099 534.028,167.8 537.242,169.148 C540.457,170.496 543.373,172.466 545.825,174.944 C548.276,177.421 550.215,180.359 551.529,183.587 C552.843,186.815 553.507,190.271 553.484,193.757" id="Path" fill="#8F8F8F"></path>
                <path d="M531.283,193.575 C530.079,194.593 528.551,195.148 526.975,195.14 C525.398,195.133 523.876,194.563 522.682,193.533 C520.932,194.343 519.448,195.632 518.402,197.251 C517.356,198.87 516.791,200.753 516.772,202.68 C516.77,202.764 516.786,202.846 516.817,202.924 C516.848,203.001 516.894,203.071 516.953,203.131 C517.011,203.19 517.081,203.237 517.158,203.269 C517.235,203.301 517.317,203.318 517.401,203.318 L536.44,203.392 C536.608,203.392 536.77,203.327 536.89,203.209 C537.011,203.092 537.081,202.932 537.085,202.763 C537.085,200.84 536.539,198.956 535.512,197.33 C534.485,195.704 533.019,194.402 531.283,193.575" id="Path" fill="#FEE8E8"></path>
                <path d="M527.027,182.416 C525.956,182.411 524.908,182.724 524.015,183.315 C523.122,183.907 522.424,184.749 522.01,185.737 C521.596,186.725 521.484,187.813 521.689,188.865 C521.893,189.916 522.405,190.883 523.16,191.643 C523.914,192.404 524.877,192.923 525.927,193.136 C526.977,193.348 528.066,193.245 529.057,192.839 C530.048,192.432 530.896,191.741 531.494,190.852 C532.092,189.964 532.413,188.918 532.416,187.847 C532.418,186.413 531.853,185.037 530.843,184.019 C529.833,183.001 528.461,182.425 527.027,182.416" id="Path" fill="#FEE8E8"></path>
                <path d="M386.022,193.616 L314.933,193.616 C314.534,193.616 314.139,193.695 313.77,193.847 C313.401,194 313.066,194.224 312.784,194.506 C312.502,194.788 312.278,195.123 312.126,195.492 C311.973,195.86 311.895,196.255 311.895,196.654 L311.895,197.01 C311.893,197.41 311.971,197.806 312.123,198.175 C312.276,198.545 312.499,198.881 312.781,199.164 C313.064,199.447 313.399,199.671 313.768,199.824 C314.137,199.977 314.533,200.056 314.933,200.056 L386.022,200.056 C386.83,200.056 387.605,199.735 388.176,199.164 C388.748,198.593 389.069,197.818 389.069,197.01 L389.069,196.654 C389.069,196.254 388.99,195.859 388.837,195.49 C388.683,195.12 388.459,194.785 388.176,194.503 C387.893,194.221 387.557,193.997 387.188,193.845 C386.818,193.693 386.422,193.615 386.022,193.616" id="Path" fill="#8F8F8F"></path>
                <path d="M718.534,503.447 C717.045,503.445 715.573,503.123 714.22,502.503 C712.866,501.883 711.661,500.98 710.686,499.854 L547.862,312.717 L389.01,487.942 C387.149,489.948 384.572,491.139 381.838,491.258 C379.104,491.376 376.434,490.411 374.406,488.573 C372.379,486.735 371.158,484.172 371.008,481.44 C370.858,478.708 371.791,476.026 373.605,473.978 L540.321,290.086 C541.318,289.011 542.526,288.154 543.868,287.565 C545.211,286.977 546.661,286.672 548.127,286.667 C549.596,286.683 551.045,287.01 552.379,287.627 C553.713,288.243 554.902,289.135 555.866,290.243 L715.653,473.944 L796.61,292.826 C797.204,291.494 798.073,290.302 799.158,289.327 C800.244,288.353 801.522,287.618 802.911,287.171 C804.299,286.723 805.766,286.573 807.217,286.73 C808.667,286.887 810.068,287.348 811.328,288.083 L972.108,381.746 L1136.99,192.25 C1138.8,190.171 1141.36,188.896 1144.11,188.705 C1146.86,188.514 1149.57,189.423 1151.65,191.232 C1153.73,193.041 1155.01,195.602 1155.2,198.351 C1155.39,201.101 1154.48,203.813 1152.67,205.892 L982.149,401.878 C980.561,403.704 978.386,404.918 975.998,405.313 C973.611,405.707 971.161,405.256 969.07,404.038 L810.848,311.873 L728.07,497.296 C727.356,498.89 726.252,500.278 724.861,501.333 C723.469,502.387 721.834,503.074 720.106,503.331 C719.6,503.411 719.088,503.449 718.575,503.447" id="Path" fill="#B30018"></path>
                <polygon id="Path" fill="#B30018" points="1108.14 176.796 1169.8 234.062 1181.58 161.738"></polygon>
                <path d="M1007.03,391.083 C1007.03,397.562 1005.1,403.893 1001.5,409.277 C997.896,414.661 992.777,418.855 986.79,421.33 C980.803,423.805 974.216,424.448 967.863,423.18 C961.51,421.911 955.676,418.787 951.099,414.203 C946.521,409.618 943.406,403.779 942.147,397.425 C940.888,391.07 941.542,384.484 944.025,378.501 C946.509,372.517 950.711,367.405 956.101,363.81 C961.49,360.215 967.824,358.298 974.303,358.303 C978.604,358.307 982.863,359.157 986.836,360.806 C990.808,362.455 994.418,364.871 997.457,367.915 C1000.5,370.959 1002.91,374.571 1004.55,378.547 C1006.19,382.522 1007.04,386.782 1007.03,391.083" id="Path" fill="#B30018"></path>
                <path d="M990.08,391.083 C990.082,394.204 989.158,397.256 987.425,399.851 C985.693,402.447 983.229,404.47 980.346,405.666 C977.464,406.861 974.291,407.175 971.23,406.567 C968.169,405.959 965.357,404.457 963.149,402.251 C960.942,400.045 959.439,397.234 958.829,394.173 C958.22,391.112 958.532,387.939 959.726,385.056 C960.919,382.172 962.942,379.708 965.537,377.974 C968.131,376.24 971.182,375.314 974.303,375.314 C978.486,375.314 982.498,376.975 985.456,379.932 C988.415,382.889 990.078,386.9 990.08,391.083" id="Path" fill="#FEE8E8"></path>
                <path d="M838.165,303.835 C838.167,310.314 836.247,316.648 832.648,322.036 C829.05,327.424 823.934,331.624 817.948,334.104 C811.963,336.584 805.376,337.234 799.021,335.97 C792.667,334.706 786.83,331.586 782.248,327.005 C777.667,322.424 774.547,316.586 773.283,310.232 C772.02,303.877 772.669,297.29 775.149,291.305 C777.629,285.319 781.829,280.204 787.217,276.605 C792.605,273.006 798.939,271.087 805.418,271.088 C814.103,271.088 822.432,274.538 828.574,280.68 C834.715,286.821 838.165,295.15 838.165,303.835" id="Path" fill="#B30018"></path>
                <path d="M821.179,303.835 C821.181,306.956 820.257,310.007 818.524,312.603 C816.791,315.199 814.328,317.222 811.445,318.418 C808.562,319.613 805.39,319.927 802.329,319.319 C799.267,318.711 796.455,317.209 794.248,315.003 C792.041,312.797 790.537,309.985 789.928,306.925 C789.318,303.864 789.63,300.691 790.824,297.808 C792.018,294.924 794.04,292.46 796.635,290.726 C799.23,288.992 802.281,288.066 805.402,288.066 C809.585,288.066 813.596,289.727 816.555,292.684 C819.514,295.641 821.177,299.652 821.179,303.835" id="Path" fill="#FEE8E8"></path>
                <path d="M576.52,303.835 C576.522,310.314 574.602,316.648 571.004,322.035 C567.406,327.423 562.291,331.623 556.306,334.103 C550.321,336.584 543.734,337.233 537.38,335.971 C531.025,334.708 525.188,331.589 520.607,327.008 C516.025,322.427 512.904,316.591 511.64,310.237 C510.375,303.883 511.023,297.296 513.502,291.311 C515.981,285.325 520.18,280.209 525.566,276.609 C530.953,273.01 537.286,271.088 543.765,271.088 C552.451,271.088 560.781,274.538 566.924,280.679 C573.066,286.82 576.518,295.149 576.52,303.835 Z" id="Path" fill="#B30018"></path>
                <path d="M559.535,303.835 C559.535,306.956 558.609,310.006 556.874,312.601 C555.139,315.195 552.674,317.216 549.79,318.408 C546.907,319.6 543.734,319.91 540.674,319.298 C537.614,318.687 534.804,317.181 532.6,314.971 C530.396,312.762 528.898,309.948 528.294,306.886 C527.69,303.825 528.008,300.653 529.208,297.772 C530.408,294.891 532.436,292.431 535.035,290.704 C537.633,288.976 540.686,288.058 543.807,288.066 C547.982,288.077 551.982,289.743 554.931,292.699 C557.879,295.655 559.535,299.66 559.535,303.835" id="Path" fill="#FEE8E8"></path>
                <path d="M385.534,391.903 L294.313,391.903 C290.058,391.903 285.978,390.213 282.969,387.204 C279.961,384.196 278.271,380.115 278.271,375.861 L278.271,291.038 C278.273,287.812 279.556,284.719 281.837,282.439 C284.119,280.159 287.213,278.878 290.439,278.878 L385.534,278.878 C388.76,278.878 391.854,280.159 394.136,282.439 C396.418,284.719 397.701,287.812 397.703,291.038 L397.703,379.743 C397.701,382.969 396.418,386.062 394.136,388.342 C391.854,390.622 388.76,391.903 385.534,391.903 Z" id="Path" fill="#8F8F8F"></path>
                <polyline id="Path" fill="#D7352C" points="355.635 301.716 366.255 303.289 336.05 322.883 330.421 315.242 307.855 328.371"></polyline>
                <polygon id="Path" fill="#D7352C" points="320.901 343.445 310.289 343.445 310.289 364.495 320.901 364.495"></polygon>
                <polygon id="Path" fill="#D7352C" points="335.727 337.261 325.115 337.261 325.115 364.495 335.727 364.495"></polygon>
                <polygon id="Path" fill="#D7352C" points="350.908 330.705 340.296 330.705 340.296 364.495 350.908 364.495"></polygon>
                <polygon id="Path" fill="#D7352C" points="366.256 325.134 355.644 325.134 355.644 364.503 366.256 364.503"></polygon>
                <path d="M692.723,631.951 L645.449,631.951 C644.595,631.951 643.776,631.612 643.172,631.008 C642.568,630.404 642.229,629.585 642.229,628.731 C642.229,627.877 642.568,627.058 643.172,626.454 C643.776,625.851 644.595,625.511 645.449,625.511 L692.723,625.511 C693.577,625.511 694.396,625.851 695,626.454 C695.604,627.058 695.943,627.877 695.943,628.731 C695.943,629.585 695.604,630.404 695,631.008 C694.396,631.612 693.577,631.951 692.723,631.951" id="Path" fill="#8F8F8F"></path>
                <path d="M1322.2,547.278 L1232.34,547.278 C1231.48,547.278 1230.67,546.938 1230.06,546.334 C1229.46,545.731 1229.12,544.912 1229.12,544.058 C1229.12,543.203 1229.46,542.384 1230.06,541.781 C1230.67,541.177 1231.48,540.837 1232.34,540.837 L1322.2,540.837 C1323.06,540.837 1323.88,541.177 1324.48,541.781 C1325.08,542.384 1325.42,543.203 1325.42,544.058 C1325.42,544.912 1325.08,545.731 1324.48,546.334 C1323.88,546.938 1323.06,547.278 1322.2,547.278" id="Path" fill="#8F8F8F"></path>
                <polygon id="Path" fill="#2C2C2C" points="465.44 760.059 324.94 760.059 324.94 777.889 465.44 777.889"></polygon>
                <polygon id="Path" fill="#D0D0D0" points="366.196 760.059 339.476 760.059 339.476 777.889 366.196 777.889"></polygon>
                <polygon id="Path" fill="#383838" points="448.719 760.059 429.125 760.059 429.125 777.889 448.719 777.889"></polygon>
                <path d="M448.719,760.059 L324.94,760.059" id="Path" stroke="#EFEFEF" stroke-width="1.9"></path>
                <polygon id="Path" fill="#2C2C2C" points="448.718 742.22 308.219 742.22 308.219 760.051 448.718 760.051"></polygon>
                <polygon id="Path" fill="#D0D0D0" points="349.467 742.22 322.746 742.22 322.746 760.051 349.467 760.051"></polygon>
                <polygon id="Path" fill="#383838" points="431.988 742.22 412.395 742.22 412.395 760.051 431.988 760.051"></polygon>
                <path d="M448.719,742.22 L324.94,742.22" id="Path" stroke="#EFEFEF" stroke-width="1.9"></path>
                <polygon id="Path" fill="#2C2C2C" points="465.44 724.39 324.94 724.39 324.94 742.22 465.44 742.22"></polygon>
                <polygon id="Path" fill="#D0D0D0" points="366.196 724.39 339.476 724.39 339.476 742.22 366.196 742.22"></polygon>
                <polygon id="Path" fill="#383838" points="448.719 724.39 429.125 724.39 429.125 742.22 448.719 742.22"></polygon>
                <path d="M448.719,724.39 L324.94,724.39" id="Path" stroke="#EFEFEF" stroke-width="1.9"></path>
                <polygon id="Path" fill="#2C2C2C" points="448.718 706.559 308.219 706.559 308.219 724.39 448.718 724.39"></polygon>
                <polygon id="Path" fill="#D0D0D0" points="349.467 706.559 322.746 706.559 322.746 724.39 349.467 724.39"></polygon>
                <polygon id="Path" fill="#383838" points="431.988 706.559 412.395 706.559 412.395 724.39 431.988 724.39"></polygon>
                <path d="M448.719,706.559 L324.94,706.559" id="Path" stroke="#EFEFEF" stroke-width="1.9"></path>
                <polygon id="Path" fill="#2C2C2C" points="465.44 688.721 324.94 688.721 324.94 706.551 465.44 706.551"></polygon>
                <polygon id="Path" fill="#D0D0D0" points="366.196 688.721 339.476 688.721 339.476 706.551 366.196 706.551"></polygon>
                <polygon id="Path" fill="#383838" points="448.719 688.721 429.125 688.721 429.125 706.551 448.719 706.551"></polygon>
                <path d="M465.44,688.729 L324.94,688.729" id="Path" stroke="#EFEFEF" stroke-width="1.9"></path>
                <polygon id="Path" fill="#2C2C2C" points="465.44 670.89 324.94 670.89 324.94 688.721 465.44 688.721"></polygon>
                <polygon id="Path" fill="#D0D0D0" points="366.196 670.89 339.476 670.89 339.476 688.721 366.196 688.721"></polygon>
                <polygon id="Path" fill="#383838" points="448.719 670.89 429.125 670.89 429.125 688.721 448.719 688.721"></polygon>
                <path d="M465.44,670.89 L324.94,670.89" id="Path" stroke="#EFEFEF" stroke-width="1.9"></path>
                <polygon id="Path" fill="#2C2C2C" points="448.718 653.06 308.219 653.06 308.219 670.89 448.718 670.89"></polygon>
                <polygon id="Path" fill="#D0D0D0" points="349.467 653.06 322.746 653.06 322.746 670.89 349.467 670.89"></polygon>
                <polygon id="Path" fill="#383838" points="431.988 653.06 412.395 653.06 412.395 670.89 431.988 670.89"></polygon>
                <path d="M448.719,653.06 L324.94,653.06" id="Path" stroke="#EFEFEF" stroke-width="1.9"></path>
                <polygon id="Path" fill="#2C2C2C" points="465.44 635.229 324.94 635.229 324.94 653.06 465.44 653.06"></polygon>
                <polygon id="Path" fill="#D0D0D0" points="366.196 635.229 339.476 635.229 339.476 653.06 366.196 653.06"></polygon>
                <polygon id="Path" fill="#383838" points="448.719 635.229 429.125 635.229 429.125 653.06 448.719 653.06"></polygon>
                <path d="M453.867,577.599 C453.869,589.293 450.403,600.724 443.907,610.448 C437.412,620.171 428.178,627.75 417.375,632.226 C406.572,636.702 394.684,637.873 383.215,635.592 C371.746,633.311 361.211,627.68 352.943,619.412 C344.674,611.143 339.043,600.608 336.763,589.139 C334.482,577.67 335.653,565.782 340.129,554.979 C344.605,544.176 352.183,534.943 361.907,528.447 C371.63,521.952 383.062,518.486 394.755,518.487 C410.433,518.487 425.468,524.715 436.554,535.801 C447.639,546.886 453.867,561.922 453.867,577.599" id="Path" fill="#292929"></path>
                <path d="M445.217,577.599 C445.219,589.293 441.752,600.724 435.257,610.448 C428.761,620.171 419.528,627.75 408.725,632.226 C397.922,636.702 386.034,637.873 374.565,635.592 C363.096,633.311 352.561,627.68 344.293,619.412 C336.024,611.143 330.393,600.608 328.112,589.139 C325.831,577.67 327.003,565.782 331.478,554.979 C335.954,544.176 343.533,534.943 353.257,528.447 C362.98,521.952 374.411,518.486 386.105,518.487 C401.782,518.487 416.818,524.715 427.903,535.801 C438.989,546.886 445.217,561.922 445.217,577.599" id="Path" fill="#383838"></path>
                <path d="M433.512,577.599 C433.514,586.978 430.734,596.146 425.525,603.945 C420.315,611.744 412.91,617.822 404.246,621.412 C395.582,625.002 386.047,625.941 376.849,624.112 C367.65,622.283 359.201,617.767 352.569,611.135 C345.938,604.504 341.422,596.054 339.592,586.856 C337.763,577.657 338.703,568.123 342.293,559.459 C345.882,550.794 351.961,543.389 359.76,538.18 C367.558,532.97 376.727,530.191 386.105,530.192 C398.678,530.192 410.737,535.187 419.627,544.077 C428.518,552.968 433.512,565.026 433.512,577.599 Z" id="Path" fill="#2C2C2C"></path>
                <path d="M342.224,580.248 C342.227,571.65 344.568,563.214 348.996,555.843 C353.424,548.473 359.772,542.444 367.362,538.404 C374.952,534.363 383.497,532.462 392.084,532.904 C400.671,533.346 408.977,536.114 416.112,540.912 C411.299,536.891 405.737,533.864 399.746,532.008 C393.755,530.152 387.456,529.503 381.213,530.098 C374.97,530.694 368.907,532.522 363.375,535.478 C357.843,538.433 352.953,542.456 348.988,547.315 C345.022,552.174 342.06,557.771 340.273,563.783 C338.486,569.794 337.909,576.1 338.577,582.336 C339.244,588.572 341.142,594.614 344.161,600.111 C347.18,605.608 351.26,610.452 356.164,614.361 C347.323,605.193 342.334,592.984 342.224,580.248" id="Path" fill="#292929"></path>
                <path d="M383.224,610.437 L383.224,603.633 C375.534,603.285 371.693,600.661 371.693,591.407 C371.677,589.417 371.824,587.429 372.132,585.463 L381.825,585.463 C381.708,586.361 381.65,587.265 381.652,588.17 C381.652,592.185 381.908,594.461 385.84,594.461 C389.772,594.461 390.12,593.062 390.12,587.905 C390.12,585.372 390.12,584.503 388.721,583.278 C385.84,580.571 378.68,578.742 375.269,576.291 C372.215,574.197 371.52,571.225 371.52,563.105 C371.52,553.759 374.309,550.614 383.224,550.175 L383.224,544.769 L388.721,544.769 L388.721,550.175 C396.932,550.531 399.813,553.411 399.813,561.706 C399.82,563.489 399.704,565.27 399.465,567.037 L389.855,567.037 C389.94,566.049 389.97,565.056 389.946,564.065 C389.946,560.398 389.424,558.56 385.757,558.56 C382.612,558.56 381.734,559.612 381.734,563.974 C381.734,568.518 381.999,568.941 384.971,570.265 C388.199,571.747 391.345,572.748 394.143,574.023 C398.067,575.944 400.691,576.821 400.691,585.811 C400.691,598.476 398.331,602.847 388.721,603.542 L388.721,610.437 L383.224,610.437 Z" id="Path" fill="#EFEFEF"></path>
                <path d="M324.941,698.066 C324.942,696.484 324.631,694.918 324.026,693.456 C323.421,691.994 322.534,690.666 321.415,689.547 C320.297,688.429 318.969,687.542 317.507,686.937 C316.045,686.332 314.478,686.021 312.896,686.022 C314.478,686.022 316.044,685.71 317.506,685.105 C318.967,684.5 320.295,683.613 321.413,682.494 C322.531,681.376 323.419,680.048 324.024,678.587 C324.629,677.126 324.941,675.559 324.941,673.978 C324.941,677.172 326.21,680.236 328.468,682.494 C330.727,684.753 333.791,686.022 336.985,686.022 C335.403,686.021 333.836,686.332 332.375,686.937 C330.913,687.542 329.585,688.429 328.466,689.547 C327.347,690.666 326.46,691.994 325.855,693.456 C325.25,694.918 324.94,696.484 324.941,698.066 Z" id="Path" fill="#EFEFEF"></path>
                <path d="M445.301,598.004 C445.301,593.642 443.568,589.458 440.483,586.374 C437.398,583.289 433.215,581.556 428.853,581.556 C431.012,581.557 433.151,581.133 435.146,580.307 C437.142,579.481 438.955,578.271 440.483,576.744 C442.01,575.217 443.222,573.404 444.048,571.409 C444.875,569.414 445.301,567.276 445.301,565.116 C445.303,569.477 447.037,573.659 450.121,576.741 C453.205,579.824 457.388,581.556 461.749,581.556 C457.386,581.556 453.203,583.289 450.118,586.374 C447.033,589.458 445.301,593.642 445.301,598.004" id="Path" fill="#EFEFEF"></path>
                <polygon id="Path" fill="#90000A" points="1221.64 760.696 1081.14 760.696 1081.14 778.527 1221.64 778.527"></polygon>
                <polygon id="Path" fill="#FBBDBE" points="1122.39 760.696 1095.67 760.696 1095.67 778.527 1122.39 778.527"></polygon>
                <polygon id="Path" fill="#B30018" points="1204.91 760.696 1185.32 760.696 1185.32 778.527 1204.91 778.527"></polygon>
                <path d="M1204.91,760.696 L1081.14,760.696" id="Path" stroke="#FEE8E8" stroke-width="1.9"></path>
                <polygon id="Path" fill="#90000A" points="1204.91 742.866 1064.42 742.866 1064.42 760.696 1204.91 760.696"></polygon>
                <polygon id="Path" fill="#FBBDBE" points="1105.67 742.866 1078.95 742.866 1078.95 760.696 1105.67 760.696"></polygon>
                <polygon id="Path" fill="#B30018" points="1188.19 742.866 1168.6 742.866 1168.6 760.696 1188.19 760.696"></polygon>
                <path d="M1204.91,742.866 L1081.14,742.866" id="Path" stroke="#FEE8E8" stroke-width="1.9"></path>
                <polygon id="Path" fill="#90000A" points="1221.64 725.035 1081.14 725.035 1081.14 742.866 1221.64 742.866"></polygon>
                <polygon id="Path" fill="#FBBDBE" points="1122.39 725.035 1095.67 725.035 1095.67 742.866 1122.39 742.866"></polygon>
                <polygon id="Path" fill="#B30018" points="1204.91 725.035 1185.32 725.035 1185.32 742.866 1204.91 742.866"></polygon>
                <path d="M1204.91,725.035 L1081.14,725.035" id="Path" stroke="#FEE8E8" stroke-width="1.9"></path>
                <polygon id="Path" fill="#90000A" points="1204.91 707.205 1064.42 707.205 1064.42 725.035 1204.91 725.035"></polygon>
                <polygon id="Path" fill="#FBBDBE" points="1105.67 707.205 1078.95 707.205 1078.95 725.035 1105.67 725.035"></polygon>
                <polygon id="Path" fill="#B30018" points="1188.19 707.205 1168.6 707.205 1168.6 725.035 1188.19 725.035"></polygon>
                <path d="M1103.2,393.774 C1105.16,390.182 1108.15,387.254 1111.78,385.361 C1115.41,383.468 1119.52,382.695 1123.59,383.139 C1127.66,383.583 1131.51,385.225 1134.65,387.857 C1137.78,390.488 1140.07,393.991 1141.22,397.923 C1142.36,401.854 1142.32,406.037 1141.08,409.941 C1139.85,413.846 1137.49,417.297 1134.29,419.859 C1131.1,422.42 1127.21,423.975 1123.13,424.329 C1119.05,424.682 1114.96,423.817 1111.37,421.844 C1106.57,419.202 1103.01,414.763 1101.48,409.5 C1099.95,404.238 1100.56,398.582 1103.2,393.774" id="Path" fill="#F74E4B"></path>
                <polygon id="Path" fill="#F74E4B" points="1106.23 389.593 1060.54 416.894 1070.59 440.419 1111.37 421.844"></polygon>
                <path d="M1140.26,475.095 C1144.15,475.476 1147.73,477.387 1150.21,480.408 C1152.7,483.428 1153.88,487.311 1153.5,491.204 L1145.47,573.866 L1116.13,571.043 L1124.16,488.373 C1124.54,484.482 1126.45,480.902 1129.47,478.419 C1132.48,475.936 1136.36,474.752 1140.26,475.128" id="Path" fill="#BD0200"></path>
                <path d="M1113.39,687.901 L1119.92,672.595 L1134.99,672.595 L1128.31,693.886 C1128.31,693.886 1111.99,699.954 1113.41,687.901" id="Path" fill="#F99494"></path>
                <polygon id="Path" fill="#BD0200" points="1138.78 681.345 1108.78 682.537 1116.08 571.556 1145.52 573.336"></polygon>
                <path d="M1116.47,576.151 C1115.73,573.315 1115.85,570.325 1116.82,567.559 C1117.78,564.794 1119.54,562.376 1121.88,560.612 C1124.22,558.848 1127.03,557.817 1129.95,557.65 C1132.88,557.482 1135.79,558.186 1138.31,559.672 C1140.84,561.157 1142.86,563.358 1144.14,565.996 C1145.41,568.634 1145.87,571.591 1145.47,574.491 C1145.06,577.392 1143.8,580.107 1141.85,582.293 C1139.9,584.479 1137.35,586.037 1134.51,586.771 C1130.71,587.752 1126.68,587.185 1123.29,585.194 C1119.91,583.202 1117.46,579.95 1116.47,576.151" id="Path" fill="#BD0200"></path>
                <path d="M1130.62,686.386 L1119.03,689.126 C1119.03,689.126 1117.98,683.332 1113.67,684.524 C1113.67,684.524 1107.37,695.6 1090.17,696.883 L1088.83,700.906 L1133.19,700.906 C1133.19,700.906 1134.85,690.972 1130.63,686.386" id="Path" fill="#A1000E"></path>
                <path d="M1109.07,689.648 C1110.18,690.215 1111.09,691.111 1111.67,692.214" id="Path" stroke="#000000" stroke-width="0.79" stroke-linecap="round" stroke-linejoin="round"></path>
                <path d="M1106.02,691.899 C1107.13,692.474 1108.04,693.372 1108.63,694.474" id="Path" stroke="#000000" stroke-width="0.79" stroke-linecap="round" stroke-linejoin="round"></path>
                <path d="M1103.14,693.497 C1104.25,694.07 1105.16,694.968 1105.75,696.071" id="Path" stroke="#000000" stroke-width="0.79" stroke-linecap="round" stroke-linejoin="round"></path>
                <path d="M1122.57,479.234 L1122.57,488.878 C1122.51,492.242 1123.12,495.585 1124.36,498.711 C1125.61,501.837 1127.46,504.683 1129.82,507.084 C1132.18,509.485 1134.99,511.392 1138.09,512.693 C1141.2,513.995 1144.53,514.666 1147.89,514.666 C1151.26,514.666 1154.59,513.995 1157.69,512.693 C1160.79,511.392 1163.61,509.485 1165.96,507.084 C1168.32,504.683 1170.18,501.837 1171.42,498.711 C1172.67,495.585 1173.28,492.242 1173.22,488.878 L1173.22,479.234 L1122.57,479.234 Z" id="Path" fill="#BD0200"></path>
                <path d="M1152.72,474.797 C1154.66,474.694 1156.59,474.974 1158.42,475.619 C1160.24,476.265 1161.92,477.263 1163.36,478.559 C1164.8,479.854 1165.97,481.42 1166.81,483.168 C1167.64,484.916 1168.12,486.811 1168.23,488.745 L1172.59,571.681 L1143.14,573.237 L1138.77,490.293 C1138.67,488.36 1138.95,486.425 1139.6,484.599 C1140.24,482.774 1141.24,481.093 1142.54,479.654 C1143.83,478.215 1145.4,477.045 1147.15,476.212 C1148.89,475.378 1150.79,474.898 1152.72,474.797" id="Path" fill="#BD0200"></path>
                <path d="M1156.86,687.901 L1163.39,672.595 L1178.47,672.595 L1171.76,693.886 C1171.76,693.886 1155.44,699.954 1156.86,687.901 Z" id="Path" fill="#F99494"></path>
                <polygon id="Path" fill="#BD0200" points="1181.94 678.961 1152.45 684.607 1143.15 573.775 1172.53 571.151"></polygon>
                <path d="M1144.22,578.253 C1143.08,575.559 1142.75,572.586 1143.3,569.71 C1143.84,566.834 1145.23,564.184 1147.28,562.095 C1149.33,560.006 1151.95,558.572 1154.82,557.974 C1157.69,557.376 1160.66,557.642 1163.38,558.737 C1166.09,559.832 1168.42,561.708 1170.07,564.127 C1171.72,566.545 1172.61,569.399 1172.64,572.326 C1172.67,575.253 1171.83,578.123 1170.22,580.572 C1168.62,583.02 1166.33,584.939 1163.63,586.084 C1161.84,586.844 1159.92,587.245 1157.98,587.263 C1156.04,587.281 1154.11,586.916 1152.3,586.189 C1150.5,585.462 1148.86,584.387 1147.47,583.025 C1146.09,581.663 1144.98,580.042 1144.22,578.253" id="Path" fill="#BD0200"></path>
                <path d="M1174.05,686.386 L1162.47,689.126 C1162.47,689.126 1161.41,683.332 1157.1,684.524 C1157.1,684.524 1150.81,695.6 1133.61,696.883 L1132.27,700.906 L1176.63,700.906 C1176.63,700.906 1178.28,690.972 1174.06,686.386" id="Path" fill="#A1000E"></path>
                <path d="M1152.5,689.648 C1153.61,690.216 1154.52,691.112 1155.11,692.214" id="Path" stroke="#000000" stroke-width="0.79" stroke-linecap="round" stroke-linejoin="round"></path>
                <path d="M1149.45,691.899 C1150.56,692.474 1151.47,693.372 1152.06,694.474" id="Path" stroke="#000000" stroke-width="0.79" stroke-linecap="round" stroke-linejoin="round"></path>
                <path d="M1146.57,693.497 C1147.68,694.069 1148.59,694.968 1149.18,696.071" id="Path" stroke="#000000" stroke-width="0.79" stroke-linecap="round" stroke-linejoin="round"></path>
                <path d="M1173.25,480.202 L1122.6,480.202 L1109.2,394.403 C1108.98,393.04 1109.07,391.647 1109.44,390.319 C1109.82,388.991 1110.48,387.761 1111.37,386.712 C1112.27,385.664 1113.38,384.822 1114.64,384.245 C1115.89,383.668 1117.25,383.369 1118.63,383.369 L1189.33,383.369 C1190.96,383.375 1192.57,383.764 1194.03,384.507 C1195.49,385.249 1196.75,386.322 1197.72,387.641 C1198.68,388.96 1199.32,390.488 1199.59,392.101 C1199.86,393.713 1199.75,395.367 1199.26,396.928 L1173.25,480.202 Z" id="Path" fill="#F74E4B"></path>
                <path d="M1118.66,417.407 L1134.51,417.407 L1134.51,424.716 C1134.44,426.774 1133.58,428.725 1132.1,430.157 C1130.62,431.589 1128.64,432.39 1126.59,432.39 C1124.53,432.39 1122.55,431.589 1121.07,430.157 C1119.59,428.725 1118.73,426.774 1118.66,424.716 L1118.66,417.407 Z" id="Path" fill="#D7352C"></path>
                <path d="M1119.92,429.004 C1119.09,427.726 1118.66,426.237 1118.66,424.716 L1118.66,420.056" id="Path" stroke="#FFFFFF" stroke-width="0.8" stroke-linecap="round" stroke-linejoin="round"></path>
                <path d="M1134.51,417.407 L1134.51,424.716 C1134.51,425.757 1134.31,426.787 1133.91,427.749 C1133.51,428.711 1132.93,429.584 1132.19,430.32 C1131.46,431.056 1130.58,431.64 1129.62,432.037 C1128.66,432.435 1127.63,432.639 1126.59,432.638004" id="Path" stroke="#FFFFFF" stroke-width="0.8" stroke-linecap="round" stroke-linejoin="round"></path>
                <path d="M1119.93,417.415 L1128.52,417.415" id="Path" stroke="#FFFFFF" stroke-width="0.8" stroke-linecap="round" stroke-linejoin="round"></path>
                <path d="M1155.45,399.85 C1154.2,399.85 1152.97,399.605 1151.83,399.129 C1150.68,398.654 1149.64,397.957 1148.76,397.078 C1147.88,396.199 1147.18,395.156 1146.71,394.008 C1146.24,392.86 1145.99,391.63 1145.99,390.388 L1145.99,376.357 C1145.95,375.092 1146.17,373.832 1146.63,372.651 C1147.09,371.471 1147.78,370.395 1148.66,369.487 C1149.54,368.578 1150.6,367.856 1151.76,367.363 C1152.93,366.87 1154.18,366.616 1155.45,366.616 C1156.72,366.616 1157.97,366.87 1159.14,367.363 C1160.3,367.856 1161.36,368.578 1162.24,369.487 C1163.12,370.395 1163.81,371.471 1164.27,372.651 C1164.73,373.832 1164.94,375.092 1164.91,376.357 L1164.91,390.388 C1164.91,392.898 1163.91,395.304 1162.14,397.078 C1160.36,398.853 1157.96,399.85 1155.45,399.85" id="Path" fill="#F99494"></path>
                <path d="M1068.98,416.347 C1071.42,417.031 1073.6,418.423 1075.25,420.346 C1076.89,422.268 1077.93,424.636 1078.23,427.15 C1078.53,429.663 1078.08,432.21 1076.93,434.466 C1075.79,436.723 1074,438.589 1071.79,439.828 C1069.58,441.067 1067.06,441.624 1064.53,441.428 C1062.01,441.232 1059.6,440.291 1057.61,438.726 C1055.62,437.161 1054.14,435.041 1053.36,432.634 C1052.57,430.227 1052.52,427.642 1053.21,425.205 C1054.12,421.938 1056.3,419.17 1059.26,417.51 C1062.22,415.849 1065.72,415.431 1068.98,416.347" id="Path" fill="#F74E4B"></path>
                <polygon id="Path" fill="#F74E4B" points="1075.87 421.157 1029.05 371.804 1015.41 376.506 1054.36 434.923"></polygon>
                <path d="M1028.28,371.987 C1027.65,373.925 1026.46,375.633 1024.86,376.895 C1023.26,378.157 1021.32,378.916 1019.29,379.076 C1017.26,379.236 1015.22,378.79 1013.45,377.795 C1011.67,376.799 1010.22,375.299 1009.3,373.483 C1008.37,371.668 1008.01,369.618 1008.24,367.594 C1008.48,365.57 1009.32,363.662 1010.64,362.112 C1011.96,360.562 1013.72,359.438 1015.68,358.884 C1017.64,358.33 1019.72,358.37 1021.66,358.999 C1022.95,359.416 1024.14,360.084 1025.17,360.962 C1026.2,361.841 1027.05,362.914 1027.66,364.121 C1028.28,365.327 1028.65,366.642 1028.75,367.992 C1028.86,369.341 1028.7,370.699 1028.28,371.987 Z" id="Path" fill="#FF9990"></path>
                <path d="M1021.1,358.841 L1010.1,351.482 C1009.72,351.222 1009.26,351.113 1008.81,351.179 C1008.36,351.245 1007.95,351.481 1007.67,351.838 C1007.44,352.147 1007.33,352.531 1007.37,352.916 C1007.4,353.3 1007.58,353.657 1007.87,353.916 L1018.38,363.419 L1021.1,358.841 Z" id="Path" fill="#FF9990"></path>
                <path d="M1172.03,336.905 L1172.03,336.98 L1171.98,349.297 L1171.91,363.328 C1171.89,367.699 1170.13,371.883 1167.03,374.959 C1163.92,378.035 1159.72,379.751 1155.35,379.73 C1150.98,379.71 1146.8,377.953 1143.72,374.848 C1140.64,371.742 1138.93,367.542 1138.95,363.171 L1139.01,349.165 L1139.06,336.831 C1139.07,332.46 1140.82,328.271 1143.92,325.188 C1147.01,322.104 1151.21,320.377 1155.58,320.387 C1159.95,320.397 1164.14,322.143 1167.22,325.24 C1170.31,328.338 1172.04,332.534 1172.03,336.905" id="Path" fill="#F99494"></path>
                <path d="M1171.98,349.297 L1171.91,363.32 C1171.89,367.691 1170.13,371.875 1167.03,374.952 C1163.93,378.029 1159.73,379.746 1155.35,379.726 C1150.98,379.707 1146.8,377.951 1143.72,374.846 C1140.65,371.742 1138.93,367.542 1138.95,363.171 L1139.01,349.156 L1139.71,358.949 C1139.71,358.949 1142.19,354.52 1149.16,354.52 C1156.13,354.52 1158.62,358.949 1158.62,358.949 L1171.94,349.156 C1171.94,349.156 1171.94,349.206 1171.94,349.297" id="Path" fill="#8C000A"></path>
                <path d="M1143.24,347.062 C1143.17,347.337 1143.02,347.585 1142.8,347.772 C1142.59,347.96 1142.32,348.081 1142.04,348.118 C1141.76,348.155 1141.47,348.108 1141.22,347.982 C1140.96,347.856 1140.75,347.657 1140.61,347.41 C1140.46,347.164 1140.4,346.88 1140.42,346.596 C1140.43,346.311 1140.54,346.039 1140.71,345.813 C1140.88,345.587 1141.12,345.417 1141.39,345.326 C1141.66,345.234 1141.95,345.225 1142.23,345.299 C1142.59,345.398 1142.91,345.639 1143.1,345.97 C1143.29,346.3 1143.34,346.693 1143.24,347.062" id="Path" fill="#061C29"></path>
                <path d="M1159.25,347.079 C1159.18,347.354 1159.02,347.601 1158.81,347.789 C1158.6,347.977 1158.33,348.096 1158.05,348.133 C1157.76,348.169 1157.48,348.121 1157.22,347.994 C1156.97,347.868 1156.75,347.668 1156.61,347.42 C1156.47,347.173 1156.41,346.889 1156.43,346.604 C1156.45,346.32 1156.55,346.048 1156.72,345.822 C1156.9,345.597 1157.14,345.428 1157.41,345.338 C1157.68,345.248 1157.97,345.24 1158.24,345.315 C1158.61,345.416 1158.92,345.658 1159.11,345.989 C1159.3,346.319 1159.35,346.711 1159.25,347.079" id="Path" fill="#061C29"></path>
                <path d="M1138.98,342.716 C1139.17,342.372 1139.44,342.076 1139.76,341.853 C1140.09,341.63 1140.46,341.485 1140.85,341.431 C1141.24,341.376 1141.64,341.413 1142.01,341.538 C1142.39,341.664 1142.73,341.874 1143,342.153" id="Path" stroke="#131D26" stroke-width="0.8" stroke-linecap="round" stroke-linejoin="round"></path>
                <path d="M1156.33,341.59 C1156.65,341.353 1157.01,341.192 1157.4,341.12 C1157.78,341.049 1158.18,341.069 1158.56,341.18 C1158.94,341.29 1159.29,341.487 1159.57,341.755 C1159.86,342.023 1160.08,342.355 1160.22,342.724" id="Path" stroke="#131D26" stroke-width="0.8" stroke-linecap="round" stroke-linejoin="round"></path>
                <path d="M1149.53,345.108 C1149.53,345.108 1144.56,353.386 1147.31,355.323 C1150.32,357.434 1151.84,354.851 1152.14,353.726" id="Path" fill="#F99494"></path>
                <path d="M1149.53,345.108 C1149.53,345.108 1144.56,353.386 1147.31,355.323 C1150.32,357.434 1151.84,354.851 1152.14,353.726" id="Path" stroke="#131D26" stroke-width="0.8" stroke-linecap="round" stroke-linejoin="round"></path>
                <path d="M1172.03,336.905 L1172.03,336.98 C1169.54,332.261 1164.91,328.296 1159.74,332.477 C1156.25,335.316 1149.81,337.443 1144.55,332.94 C1139.3,328.437 1139.06,336.831 1139.06,336.831 C1138.24,327.824 1143.64,319.563 1155.49,319.605 C1167.33,319.646 1173.49,327.824 1172.04,336.905" id="Path" fill="#8C000A"></path>
                <path d="M1146.47,363.742 C1146.47,363.742 1149.58,366.887 1152.73,363.742" id="Path" stroke="#FEDDCC" stroke-width="0.82" stroke-linecap="round" stroke-linejoin="round"></path>
                <path d="M1158.8,346.019 C1158.8,346.078 1158.78,346.136 1158.75,346.185 C1158.72,346.234 1158.67,346.272 1158.61,346.294 C1158.56,346.317 1158.5,346.323 1158.44,346.311 C1158.38,346.3 1158.33,346.271 1158.29,346.23 C1158.25,346.188 1158.22,346.135 1158.21,346.077 C1158.2,346.019 1158.2,345.959 1158.22,345.905 C1158.25,345.851 1158.29,345.804 1158.33,345.771 C1158.38,345.738 1158.44,345.721 1158.5,345.721 C1158.58,345.721 1158.65,345.752 1158.71,345.808 C1158.77,345.864 1158.8,345.94 1158.8,346.019" id="Path" fill="#FFFFFF"></path>
                <path d="M1142.9,346.019 C1142.9,346.078 1142.89,346.136 1142.85,346.185 C1142.82,346.234 1142.78,346.272 1142.72,346.294 C1142.67,346.317 1142.61,346.323 1142.55,346.311 C1142.49,346.3 1142.44,346.271 1142.4,346.23 C1142.35,346.188 1142.33,346.135 1142.31,346.077 C1142.3,346.019 1142.31,345.959 1142.33,345.905 C1142.35,345.851 1142.39,345.804 1142.44,345.771 C1142.49,345.738 1142.55,345.721 1142.61,345.721 C1142.69,345.721 1142.76,345.752 1142.82,345.808 C1142.87,345.864 1142.9,345.94 1142.9,346.019" id="Path" fill="#FFFFFF"></path>
                <path d="M1172.03,336.905 L1172.03,336.98 L1171.98,349.297 L1171.91,363.328 C1171.89,367.698 1170.13,371.88 1167.03,374.955 C1163.92,378.03 1159.72,379.746 1155.35,379.726 C1154.74,379.726 1154.13,379.687 1153.52,379.61 C1157.55,379.115 1161.25,377.161 1163.94,374.119 C1166.63,371.076 1168.11,367.155 1168.1,363.096 L1168.17,348.875 L1168.22,336.392 L1168.22,336.317 C1168.24,332.202 1166.74,328.223 1164,325.152 C1161.26,322.081 1157.48,320.136 1153.38,319.696 C1154.06,319.638 1154.77,319.605 1155.49,319.605 C1167.3,319.646 1173.5,327.824 1172.05,336.905" id="Path" fill="#FEDDCC"></path>
                <path d="M1172.4,408.732 C1171.41,405.721 1171.33,402.484 1172.18,399.43 C1173.03,396.375 1174.76,393.641 1177.16,391.572 C1179.56,389.504 1182.53,388.194 1185.67,387.809 C1188.82,387.424 1192.01,387.98 1194.84,389.408 C1197.67,390.836 1200.01,393.071 1201.57,395.83 C1203.13,398.59 1203.84,401.75 1203.6,404.911 C1203.36,408.072 1202.2,411.092 1200.24,413.589 C1198.29,416.086 1195.64,417.947 1192.63,418.938 C1190.63,419.598 1188.52,419.858 1186.42,419.702 C1184.32,419.546 1182.28,418.978 1180.4,418.03 C1178.52,417.082 1176.85,415.773 1175.47,414.177 C1174.1,412.582 1173.06,410.731 1172.4,408.732" id="Path" fill="#F74E4B"></path>
                <polygon id="Path" fill="#F74E4B" points="1172.1 399.684 1155.79 457.149 1179.84 465.849 1202.51 409.593"></polygon>
                <path d="M1161.15,450.601 C1163.31,449.286 1165.82,448.642 1168.35,448.75 C1170.87,448.859 1173.31,449.715 1175.36,451.21 C1177.4,452.705 1178.95,454.772 1179.82,457.15 C1180.69,459.528 1180.83,462.109 1180.23,464.568 C1179.63,467.027 1178.32,469.253 1176.45,470.965 C1174.59,472.676 1172.25,473.796 1169.75,474.183 C1167.25,474.57 1164.69,474.207 1162.4,473.139 C1160.1,472.071 1158.18,470.346 1156.86,468.183 C1155.1,465.282 1154.56,461.801 1155.37,458.505 C1156.17,455.208 1158.25,452.366 1161.15,450.601" id="Path" fill="#F74E4B"></path>
                <polygon id="Path" fill="#F74E4B" points="1169.36 448.846 1099.86 449.426 1095.47 462.596 1164.76 473.969"></polygon>
                <path d="M1100.94,450.096 C1101.93,451.88 1102.37,453.917 1102.21,455.951 C1102.04,457.984 1101.27,459.923 1100,461.52 C1098.73,463.118 1097.02,464.303 1095.08,464.926 C1093.13,465.549 1091.05,465.581 1089.09,465.019 C1087.13,464.457 1085.37,463.326 1084.06,461.769 C1082.74,460.212 1081.91,458.298 1081.68,456.271 C1081.45,454.244 1081.82,452.193 1082.76,450.38 C1083.69,448.566 1085.15,447.07 1086.93,446.081 C1089.32,444.757 1092.14,444.436 1094.77,445.189 C1097.4,445.941 1099.62,447.706 1100.94,450.096" id="Path" fill="#FF9990"></path>
                <path d="M1099.86,448.532 L1095.12,436.115 C1094.97,435.685 1094.66,435.331 1094.25,435.124 C1093.85,434.918 1093.38,434.875 1092.94,435.006 C1092.57,435.122 1092.26,435.373 1092.07,435.707 C1091.88,436.041 1091.82,436.434 1091.9,436.81 L1094.99,450.642 L1099.86,448.532 Z" id="Path" fill="#FF9990"></path>
                <path d="M844.589,486.75 L821.61,503.488 L793.862,467.976 L785.295,472.686 C785.295,472.686 795.584,507.693 809.301,525.366 C810.478,526.859 812.106,527.931 813.943,528.422 C815.779,528.913 817.726,528.796 819.491,528.09 C826.941,525.176 840.731,518.405 857.924,503.811 L844.589,486.75 Z" id="Path" fill="#FF9990"></path>
                <path d="M837.686,491.775 L855.069,520.747 L872.13,507.61 C875.485,505.026 877.74,501.268 878.442,497.091 C879.143,492.914 878.24,488.625 875.912,485.086 C870.457,476.809 859.216,474.325 851.501,480.575 L837.686,491.775 Z" id="Path" fill="#7A000C"></path>
                <polygon id="Path" fill="#FBBA99" points="938.848 731.972 922.632 706.195 903.552 715.855 923.12 745.862 938.451 738.959"></polygon>
                <path d="M939.155,729.977 C939.155,729.977 929.834,745.026 917.376,740.929 L903.08,776.523 L953.318,740.2 L939.155,729.977 Z" id="Path" fill="#980A00"></path>
                <polygon id="Path" fill="#FEE8E8" points="953.343 740.122 903.101 776.452 906.258 780.819 956.5 744.489"></polygon>
                <polygon id="Path" fill="#636363" points="885.929 577.425 905.506 660.361 938.393 715.607 907.136 733.719 867.626 663.374 854.539 610.379"></polygon>
                <polygon id="Path" fill="#90000A" points="907.037 735.449 940.778 715.441 931.093 699.44 897.394 720.648"></polygon>
                <polygon id="Path" fill="#FBBA99" points="788.118 757.36 800.369 729.472 781.661 719.1 767.796 752.137 782.117 760.945"></polygon>
                <path d="M789.956,756.466 C789.956,756.466 772.266,757.195 768.673,744.588 L731.175,752.725 L789.186,773.419 L789.956,756.466 Z" id="Path" fill="#980A00"></path>
                <polygon id="Path" fill="#FEE8E8" points="731.201 752.825 729.356 757.888 787.611 779.114 789.456 774.051"></polygon>
                <path d="M848.098,554.603 L848.098,573.435 L798.588,649.947 L767.604,733.719 L797.91,745.838 L829.167,669.135 L883.403,604.784 C889.405,597.786 893.485,589.348 895.24,580.298 C897.227,569.537 893.22,555.936 881.309,544.637 L848.098,554.603 Z" id="Path" fill="#757575"></path>
                <polygon id="Path" fill="#90000A" points="765.271 732.949 800.501 747.41 807.247 729.969 771.09 716.261"></polygon>
                <path d="M716.63,511.724 L785.858,511.724 C790.029,511.724 794.029,510.067 796.979,507.118 C799.928,504.168 801.585,500.168 801.585,495.997 L801.585,428.069 C801.585,423.897 799.928,419.897 796.979,416.947 C794.029,413.998 790.029,412.341 785.858,412.341 L716.63,412.341 C712.459,412.341 708.458,413.998 705.509,416.947 C702.559,419.897 700.902,423.897 700.902,428.069 L700.902,495.997 C700.902,500.168 702.559,504.168 705.509,507.118 C708.458,510.067 712.459,511.724 716.63,511.724" id="Path" fill="#D7352C"></path>
                <path d="M730.049,460.667 L730.049,463.357 C730.045,463.933 730.246,464.492 730.616,464.933 C730.986,465.374 731.501,465.67 732.069,465.766 L735.248,466.329 C735.624,467.715 736.181,469.045 736.903,470.286 L735.049,472.951 C734.727,473.424 734.578,473.994 734.628,474.564 C734.678,475.134 734.923,475.67 735.322,476.08 L737.226,477.984 C737.636,478.383 738.172,478.628 738.742,478.678 C739.312,478.728 739.882,478.579 740.355,478.257 L742.938,476.444 C744.18,477.164 745.51,477.72 746.895,478.1 L747.449,481.27 C747.555,481.836 747.853,482.348 748.294,482.718 C748.735,483.087 749.291,483.293 749.866,483.298 L752.598,483.298 C753.172,483.291 753.726,483.085 754.165,482.715 C754.604,482.345 754.902,481.835 755.007,481.27 L755.562,478.1 C756.949,477.722 758.282,477.165 759.527,476.444 L762.167,478.299 C762.64,478.621 763.21,478.769 763.78,478.719 C764.351,478.67 764.886,478.425 765.296,478.025 L767.2,476.113 C767.606,475.708 767.856,475.174 767.906,474.603 C767.956,474.032 767.802,473.462 767.473,472.992 L765.619,470.344 C766.342,469.103 766.899,467.773 767.275,466.387 L770.445,465.832 C771.011,465.727 771.522,465.428 771.892,464.987 C772.262,464.546 772.468,463.991 772.473,463.415 L772.473,460.725 C772.475,460.148 772.273,459.589 771.901,459.148 C771.53,458.707 771.014,458.412 770.445,458.316 L767.275,457.761 C766.9,456.372 766.344,455.039 765.619,453.796 L767.473,451.156 C767.795,450.682 767.944,450.113 767.894,449.542 C767.844,448.972 767.599,448.437 767.2,448.027 L765.296,446.123 C764.891,445.715 764.354,445.464 763.782,445.414 C763.209,445.364 762.637,445.518 762.167,445.85 L759.527,447.621 C758.286,446.898 756.956,446.341 755.57,445.965 L755.007,442.795 C754.911,442.226 754.616,441.71 754.175,441.339 C753.734,440.967 753.175,440.765 752.598,440.767 L749.858,440.767 C749.29,440.776 748.743,440.984 748.312,441.355 C747.881,441.725 747.594,442.235 747.499,442.795 L746.944,446.048 C745.558,446.424 744.228,446.981 742.988,447.704 L740.347,445.85 C739.883,445.512 739.314,445.349 738.742,445.39 C738.169,445.431 737.629,445.673 737.218,446.073 L735.314,447.977 C734.906,448.382 734.655,448.919 734.605,449.491 C734.555,450.064 734.709,450.636 735.041,451.106 L736.895,453.747 C736.172,454.987 735.616,456.318 735.239,457.703 L732.061,458.266 C731.494,458.362 730.98,458.656 730.611,459.096 C730.241,459.536 730.039,460.092 730.041,460.667 L730.049,460.667 Z M743.973,462.049 L743.973,462.008 C743.978,460.084 744.747,458.241 746.11,456.884 C747.473,455.527 749.319,454.766 751.243,454.769 C753.166,454.772 755.01,455.538 756.369,456.899 C757.728,458.26 758.492,460.105 758.492,462.028 C758.492,463.952 757.728,465.797 756.369,467.158 C755.01,468.519 753.166,469.285 751.243,469.288 C749.319,469.291 747.473,468.53 746.11,467.173 C744.747,465.816 743.978,463.973 743.973,462.049 Z" id="Shape" fill="#FEE8E8" fill-rule="nonzero"></path>
                <path d="M851.525,480.6 L878.693,471.246 C878.693,471.246 899.023,492.081 881.284,544.637 L848.081,554.57 C846.218,544.143 845.073,533.6 844.654,523.015 C830.839,503.678 851.525,480.567 851.525,480.567" id="Path" fill="#90000A"></path>
                <path d="M878.726,471.246 C871.14,477.624 861.455,480.958 851.55,480.6 L863.37,466.652 L873.676,463.647 L878.726,471.246 Z" id="Path" fill="#FF9990"></path>
                <polygon id="Path" fill="#FF9990" points="853.238 452.836 858.677 477.098 876.963 471.618 866.226 440.328"></polygon>
                <polygon id="Path" fill="#980A00" points="856.161 465.849 861.699 449.21 853.852 455.543"></polygon>
                <path d="M852.112,409.369 C852.112,409.369 842.179,409.982 840.325,422.241 C840.325,422.241 839.547,426.902 837.891,439.732 C837.014,446.512 840.333,455.75 848.95,456.147 C853.139,456.329 857.824,454.492 862.195,451.776 L868.42,447.058 C883.187,433.64 873.535,408.699 853.594,409.295 L852.137,409.369" id="Path" fill="#FF9990"></path>
                <path d="M839.332,433.822 L835.193,438.648 C835.061,438.773 834.963,438.931 834.91,439.105 C834.857,439.279 834.85,439.465 834.89,439.642 C834.93,439.82 835.016,439.985 835.138,440.119 C835.261,440.254 835.417,440.355 835.59,440.411 L839.944,441.644 L839.332,433.822 Z" id="Path" fill="#FF9990"></path>
                <path d="M862.849,432.804 C862.849,432.804 871.781,403.475 844.638,412.937 C844.638,412.937 857.882,396.994 879.611,409.262 C884.156,411.828 888.941,417.291 889.545,425.776 C890.58,441.346 877.898,440.676 870.216,451.892 L866.243,440.303 C865.937,438.176 862.865,432.795 862.865,432.795" id="Path" fill="#980A00"></path>
                <path d="M861.426,408.384 C846.617,422.407 861.094,436.33 861.094,436.33 L870.771,422.688 C870.771,422.688 863.884,406.058 861.426,408.384 Z" id="Path" fill="#980A00"></path>
                <path d="M872.17,437.522 C872.144,438.682 871.774,439.809 871.107,440.759 C870.44,441.709 869.507,442.44 868.425,442.86 C867.343,443.28 866.161,443.369 865.028,443.117 C863.895,442.865 862.862,442.282 862.06,441.443 C861.258,440.604 860.723,439.546 860.522,438.403 C860.321,437.26 860.464,436.083 860.932,435.021 C861.4,433.959 862.173,433.06 863.152,432.436 C864.131,431.813 865.273,431.495 866.434,431.521 C867.204,431.538 867.964,431.707 868.67,432.018 C869.375,432.329 870.012,432.775 870.545,433.333 C871.078,433.89 871.496,434.547 871.774,435.266 C872.053,435.985 872.188,436.751 872.17,437.522 Z" id="Path" fill="#FF9990"></path>
                <path d="M863.776,404.659 C863.776,404.659 837.411,394.436 836.111,417.233 C836.111,417.233 851.384,423.607 867.128,414.866 L863.776,404.659 Z" id="Path" fill="#980A00"></path>
                <path d="M912.764,438.598 C911.371,441.257 909.221,443.442 906.586,444.878 C903.95,446.315 900.948,446.937 897.959,446.667 C894.97,446.397 892.128,445.246 889.793,443.361 C887.458,441.476 885.734,438.94 884.84,436.075 C883.946,433.21 883.922,430.144 884.77,427.265 C885.619,424.386 887.302,421.824 889.607,419.902 C891.912,417.98 894.736,416.784 897.72,416.467 C900.705,416.15 903.716,416.724 906.374,418.119 C909.936,419.988 912.611,423.195 913.809,427.035 C915.007,430.876 914.632,435.035 912.764,438.598 Z" id="Path" fill="#980A00"></path>
                <path d="M850.714,496.659 L830.715,520.83 L796.875,491.03 L789.748,497.718 C789.748,497.718 808.415,529.075 826.079,542.791 C827.59,543.946 829.433,544.58 831.334,544.6 C833.236,544.619 835.092,544.022 836.625,542.899 C843.099,538.222 854.795,528.239 867.824,509.829 L850.714,496.659 Z" id="Path" fill="#FF9990"></path>
                <path d="M844.953,502.925 L869.331,526.997 L882.576,510.036 C883.978,508.289 885.017,506.28 885.631,504.126 C886.245,501.972 886.422,499.716 886.151,497.493 C885.879,495.27 885.166,493.123 884.053,491.179 C882.939,489.236 881.448,487.535 879.667,486.176 C877.886,484.818 875.851,483.83 873.683,483.27 C871.514,482.71 869.255,482.59 867.039,482.916 C864.823,483.243 862.695,484.01 860.78,485.171 C858.865,486.333 857.202,487.866 855.888,489.681 L844.953,502.925 Z" id="Path" fill="#90000A"></path>
                <polyline id="Path" stroke="#000000" stroke-width="0.73" stroke-linecap="round" stroke-linejoin="round" points="860.846 519.166 865.092 523.636 878.353 506.675"></polyline>
                <path d="M844.953,502.925 L853.827,492.189" id="Path" stroke="#000000" stroke-width="0.73" stroke-linecap="round" stroke-linejoin="round"></path>
                <path d="M798.382,507.304 L790.46,500.077 C783.679,501.641 776.684,502.058 769.765,501.311 C769.436,501.274 769.133,501.112 768.919,500.859 C768.705,500.605 768.596,500.28 768.614,499.949 C768.632,499.618 768.776,499.306 769.016,499.078 C769.256,498.849 769.574,498.721 769.906,498.72 L777.397,498.579 C772.796,498.227 768.221,497.594 763.698,496.684 C763.34,496.557 763.036,496.312 762.837,495.988 C762.639,495.665 762.557,495.283 762.607,494.907 C762.656,494.53 762.834,494.182 763.109,493.921 C763.384,493.66 763.741,493.501 764.12,493.472 L776.536,494.184 L764.401,491.833 C763.941,491.744 763.535,491.479 763.267,491.095 C763,490.711 762.893,490.237 762.97,489.775 C763.046,489.313 763.3,488.899 763.677,488.622 C764.055,488.345 764.525,488.225 764.989,488.29 L776.512,489.879 L766.976,486.907 C766.469,486.734 766.049,486.371 765.804,485.895 C765.558,485.42 765.506,484.867 765.657,484.354 C765.809,483.841 766.153,483.405 766.618,483.139 C767.082,482.873 767.631,482.797 768.151,482.926 C771.859,483.952 781.089,486.179 786.048,484.424 C784.631,483.311 783.099,482.354 781.478,481.568 C780.953,481.312 780.542,480.869 780.327,480.325 C780.111,479.782 780.107,479.178 780.314,478.631 C780.522,478.085 780.926,477.635 781.448,477.372 C781.969,477.108 782.571,477.049 783.134,477.206 L790.319,479.358 C791.679,479.773 792.851,480.652 793.63,481.841 L797.877,488.298 L808.133,503.554 L798.382,507.304 Z" id="Path" fill="#FF9990"></path>
                <path d="M576.262,443.399 C576.262,443.399 595.624,454.74 595.624,482.421 L572.496,491.924 L576.262,443.399 Z" id="Path" fill="#878787"></path>
                <path d="M582.587,487.876 L584.201,464.259" id="Path" stroke="#000000" stroke-width="0.75" stroke-linecap="round" stroke-linejoin="round"></path>
                <polygon id="Path" fill="#070707" points="503.154 754.281 522.068 754.281 553.334 771.01 499.569 770.365"></polygon>
                <polygon id="Path" fill="#FEE8E8" points="499.379 777.442 499.569 770.365 553.334 771.01 553.152 778.088"></polygon>
                <polygon id="Path" fill="#FEE8E8" points="525.172 727.618 505.893 727.618 503.153 754.281 522.432 754.281"></polygon>
                <polygon id="Path" fill="#070707" points="561.611 754.86 580.518 754.86 611.791 771.59 558.019 770.944"></polygon>
                <polygon id="Path" fill="#FEE8E8" points="557.829 778.022 558.02 770.944 611.792 771.59 611.602 778.667"></polygon>
                <polygon id="Path" fill="#FEE8E8" points="580.568 728.206 561.289 728.206 561.612 754.86 580.883 754.86"></polygon>
                <polygon id="Path" fill="#B30018" points="581.702 527.32 588.622 745.043 557.224 744.745 551.976 576.283 532.722 746.434 500.662 745.391 518.633 532.204 531.613 529.952"></polygon>
                <path d="M545.312,435.237 C537.332,435.878 529.491,437.697 522.043,440.634 C520.222,441.371 518.426,442.166 516.787,443.027 C511.613,445.725 513.161,451.569 513.815,457.529 L516.845,538.155 L581.9,536.5 L584.483,460.178 C584.796,456.194 583.797,452.216 581.639,448.852 C579.481,445.488 576.282,442.922 572.53,441.545 C564.012,438.54 553.607,435.179 549.079,434.923 L545.312,435.237 Z" id="Path" fill="#878787"></path>
                <path d="M566.652,439.426 C566.652,439.426 556.719,435.502 549.087,434.881 C544.011,434.804 538.95,435.462 534.062,436.835 L556.984,452.232 L566.652,439.426 Z" id="Path" fill="#FF9990"></path>
                <polygon id="Path" fill="#FF9990" points="562.828 417.647 562.265 442.886 541.753 441.28 546.306 408.277"></polygon>
                <polygon id="Path" fill="#980A00" points="562.589 430.022 550.188 418.077 562.829 418.351"></polygon>
                <path d="M567.572,375.604 C570.322,376.734 572.71,378.595 574.479,380.985 C576.247,383.375 577.328,386.203 577.605,389.163 C578.325,396.083 578.971,406.811 576.777,412.068 C573.466,420.197 566.38,424.965 555.693,422.059 C555.693,422.059 543.186,420.536 541.381,401.679 C539.237,379.329 554.907,370.612 567.531,375.604" id="Path" fill="#FF9990"></path>
                <path d="M547.217,401.654 C547.217,401.654 552.283,392.126 550.445,381.787 C550.445,381.787 565.056,381.655 574.84,381.531 C574.84,381.531 572.746,368.783 551.952,370.43 C523.484,372.69 531.804,403.028 545.379,408.227 L547.217,401.654 Z" id="Path" fill="#980A00"></path>
                <path d="M534.883,405.156 C535.182,406.478 535.866,407.682 536.849,408.616 C537.832,409.549 539.07,410.17 540.406,410.401 C541.742,410.631 543.116,410.459 544.355,409.908 C545.593,409.357 546.641,408.451 547.365,407.305 C548.088,406.158 548.456,404.823 548.421,403.468 C548.385,402.113 547.949,400.798 547.167,399.691 C546.385,398.584 545.292,397.733 544.026,397.247 C542.76,396.761 541.379,396.662 540.057,396.961 C538.284,397.362 536.743,398.45 535.773,399.987 C534.803,401.524 534.483,403.383 534.883,405.156 Z" id="Path" fill="#FF9990"></path>
                <path d="M615.491,484.954 L603.48,540.771 C603.275,541.699 602.756,542.529 602.012,543.12 C601.267,543.711 600.342,544.027 599.391,544.016 L554.691,543.188 C554.082,543.173 553.483,543.023 552.939,542.75 C552.394,542.477 551.917,542.087 551.54,541.607 C551.164,541.128 550.898,540.572 550.761,539.978 C550.625,539.384 550.621,538.767 550.751,538.172 L563.341,482.404 C563.554,481.485 564.075,480.666 564.817,480.084 C565.56,479.501 566.479,479.19 567.422,479.201 L611.559,479.979 C612.163,479.996 612.756,480.144 613.297,480.415 C613.837,480.685 614.312,481.071 614.687,481.544 C615.063,482.017 615.33,482.567 615.47,483.155 C615.611,483.742 615.621,484.354 615.5,484.946" id="Path" fill="#3C3E46"></path>
                <polygon id="Path" fill="#0B0B0C" points="614.258 481.055 616.89 483.778 554.318 544.521 551.495 541.591"></polygon>
                <path d="M617.851,487.388 L605.84,543.205 C605.635,544.133 605.116,544.962 604.371,545.553 C603.627,546.144 602.701,546.461 601.751,546.45 L557.05,545.663 C556.442,545.648 555.845,545.498 555.301,545.226 C554.757,544.953 554.28,544.563 553.904,544.085 C553.527,543.607 553.261,543.052 553.124,542.459 C552.987,541.866 552.982,541.25 553.11,540.655 L565.668,484.846 C565.879,483.926 566.399,483.105 567.142,482.521 C567.884,481.936 568.804,481.624 569.749,481.635 L613.886,482.413 C614.49,482.429 615.083,482.578 615.623,482.848 C616.164,483.119 616.638,483.504 617.014,483.978 C617.389,484.451 617.656,485.001 617.797,485.588 C617.937,486.176 617.947,486.787 617.826,487.379" id="Path" fill="#A5271D"></path>
                <path d="M618.752,507.188 L614.944,522.601 C614.721,523.523 614.188,524.34 613.435,524.915 C612.681,525.491 611.753,525.79 610.806,525.764 C609.466,525.739 608.148,525.422 606.943,524.835 C605.739,524.248 604.677,523.405 603.832,522.366 C602.987,521.326 602.379,520.114 602.051,518.815 C601.723,517.516 601.682,516.161 601.932,514.845 L602.908,509.705 C603.294,507.705 604.33,505.89 605.856,504.542 C607.382,503.194 609.312,502.39 611.344,502.255 L614.415,502.056 C615.067,502.011 615.72,502.122 616.321,502.378 C616.922,502.634 617.454,503.029 617.873,503.531 C618.292,504.032 618.587,504.626 618.732,505.263 C618.878,505.9 618.871,506.563 618.711,507.196" id="Path" fill="#FF9990"></path>
                <path d="M523.418,468.084 L484.512,502.851 C482.791,504.69 480.462,505.844 477.956,506.099 C475.45,506.355 472.936,505.695 470.878,504.241 C469.599,503.319 468.526,502.141 467.727,500.782 C466.927,499.423 466.418,497.913 466.233,496.347 C466.048,494.781 466.19,493.194 466.651,491.685 C467.111,490.177 467.88,488.782 468.908,487.586 L505.331,451.048 C509.701,445.998 517.259,444.848 522.358,449.094 C523.71,450.246 524.813,451.66 525.601,453.251 C526.39,454.842 526.846,456.576 526.944,458.349 C527.041,460.122 526.778,461.896 526.169,463.563 C525.56,465.231 524.618,466.758 523.401,468.051" id="Path" fill="#FF9990"></path>
                <path d="M524.279,439.782 C524.279,439.782 508.651,442.944 489.256,467.008 L505.869,489.3 L531.175,470.501 L524.279,439.782 Z" id="Path" fill="#878787"></path>
                <path d="M514.462,482.918 L529.147,472.016" id="Path" stroke="#000000" stroke-width="0.75" stroke-linecap="round" stroke-linejoin="round"></path>
                <polygon id="Path" fill="#FF9990" points="481.35 484.01 539.419 507.544 532.308 516.782 473.801 505.706"></polygon>
                <path d="M498.055,490.781 L485.696,485.773" id="Path" stroke="#000000" stroke-width="0.75" stroke-linecap="round" stroke-linejoin="round"></path>
                <path d="M526.804,509.44 C526.804,509.44 525.314,498.463 534.734,493.306 C544.154,488.149 550.346,494.631 550.669,500.508 C550.991,506.385 548.127,517.386 536.596,517.287 C525.065,517.188 526.77,509.44 526.77,509.44" id="Path" fill="#FF9990"></path>
                <path d="M538.003,491.932 C538.003,491.932 548.127,488.911 556.81,489.341 C557.242,489.367 557.655,489.53 557.99,489.805 C558.324,490.08 558.563,490.453 558.673,490.873 C558.749,491.144 558.769,491.429 558.732,491.709 C558.695,491.989 558.601,492.259 558.456,492.501 C558.311,492.744 558.119,492.954 557.89,493.12 C557.661,493.285 557.4,493.402 557.125,493.464 L542.738,496.667 L538.003,491.932 Z" id="Path" fill="#FF9990"></path>
                <path d="M351.206,484.3 L307.747,468.241 L309.783,488.787 C309.783,488.787 333.185,498.968 347.928,501.278 C362.67,503.587 351.239,484.3 351.239,484.3" id="Path" fill="#FF9990"></path>
                <path d="M296.382,467.446 C296.382,467.446 296.813,462.057 307.748,464.135 C321.762,466.825 339.75,476.196 339.75,476.196 L323.418,504.2 L292.467,492.611 L296.382,467.446 Z" id="Path" fill="#D7352C"></path>
                <polygon id="Path" fill="#FF9990" points="310.777 760.961 308.931 725.433 291.481 727.734 294.917 764.893 311.613 761.938"></polygon>
                <path d="M292.483,756.582 C292.483,756.582 304.229,762.633 310.752,753.635 L342.432,770.654 L288.179,770.315 L292.483,756.582 Z" id="Path" fill="#980A00"></path>
                <polygon id="Path" fill="#FEE8E8" points="288.164 770.283 288.133 775.192 342.385 775.533 342.415 770.624"></polygon>
                <path d="M291.962,524.903 C291.962,524.903 307.623,534.149 309.494,585.811 C311.365,637.473 314.585,739.588 314.585,739.588 L288.179,739.588 L274.611,555.903 L278.162,524.903 L291.962,524.903 Z" id="Path" fill="#878787"></path>
                <polygon id="Path" fill="#FF9990" points="265.2 760.961 266.913 725.433 249.463 727.734 249.331 764.893 266.027 761.938"></polygon>
                <path d="M246.897,756.582 C246.897,756.582 260.39,762.377 266.913,753.354 L296.846,770.654 L242.593,770.315 L246.897,756.582 Z" id="Path" fill="#980A00"></path>
                <polygon id="Path" fill="#FEE8E8" points="242.581 770.282 242.55 775.191 296.802 775.532 296.832 770.623"></polygon>
                <path d="M256.176,531.599 C256.176,531.599 240.341,549.926 242.667,582.044 L243.445,739.911 L273.452,739.124 L282.947,529.753 L256.176,531.599 Z" id="Path" fill="#878787"></path>
                <polyline id="Path" stroke="#000000" stroke-width="0.7" stroke-linecap="round" stroke-linejoin="round" points="279.155 614.063 280.844 572.74 290.686 561.474"></polyline>
                <polygon id="Path" fill="#FF9990" points="290.836 440.833 290.439 465.021 272.642 466.412 274.363 429.095"></polygon>
                <polygon id="Path" fill="#980A00" points="290.63 453.457 278.039 439.881 290.837 440.833"></polygon>
                <path d="M260.266,460.526 L277.923,459.053 L306.365,463.92 C306.365,463.92 308.584,505.715 303.791,526.98 C303.393,528.782 302.36,530.381 300.882,531.486 C299.403,532.59 297.577,533.127 295.736,532.998 L254.679,533.586 C252.829,532.055 251.344,530.132 250.33,527.956 C249.316,525.779 248.8,523.405 248.818,521.004 L251.765,464.599 C251.856,462.827 258.511,460.692 260.266,460.526" id="Path" fill="#D7352C"></path>
                <path d="M306.705,497.942 L306.879,481.875" id="Path" stroke="#000000" stroke-width="0.73" stroke-linecap="round" stroke-linejoin="round"></path>
                <path d="M266.631,459.996 L279.412,458.713 L296.357,462.215 C296.357,462.215 296.291,474.631 282.574,473.804 C268.858,472.976 266.623,460.021 266.623,460.021" id="Path" fill="#FF9990"></path>
                <path d="M260.266,408.252 C260.266,408.252 243.925,393.972 234,402.3 C226.136,408.922 226.161,421.215 226.509,426.066 C226.741,428.94 226.46,431.832 225.681,434.608 C224.671,438.126 221.285,442.216 217.18,444.268 L242.344,454.483 C242.344,454.483 238.114,445.038 243.213,441.024 C248.313,437.009 253.503,436.222 254.637,431.653 C256.292,425.031 243.437,410.048 258.354,414.179 L260.266,408.252 Z" id="Path" fill="#980A00"></path>
                <path d="M266.325,407.027 C266.325,407.027 259.322,401.861 256.508,408.558 C254.306,413.798 255.39,416.935 259.819,417.175 C264.247,417.415 266.358,407.027 266.358,407.027" id="Path" fill="#B30018"></path>
                <path d="M299.088,405.677 C300.683,406.741 301.87,408.314 302.457,410.139 C304.27,415.511 307.904,426.695 306.704,432.812 C305.131,440.75 299.568,446.354 289.32,445.734 C289.32,445.734 276.945,444.964 272.641,430.006 C265.803,406.298 285.272,396.712 299.072,405.644" id="Path" fill="#FF9990"></path>
                <path d="M277.26,428.665 C277.26,428.665 281.043,422.87 278.51,412.647 C286.467,412.03 294.38,410.944 302.209,409.394 C302.209,409.394 297.425,393.666 274.743,400.479 C251.168,407.573 254.786,435.246 273.717,442.977 L277.26,428.665 Z" id="Path" fill="#980A00"></path>
                <path d="M265.762,433.855 C266.334,435.127 267.271,436.2 268.453,436.94 C269.636,437.679 271.011,438.051 272.405,438.01 C273.798,437.968 275.149,437.514 276.285,436.704 C277.421,435.895 278.291,434.768 278.786,433.464 C279.281,432.16 279.379,430.739 279.066,429.38 C278.754,428.021 278.045,426.785 277.031,425.828 C276.016,424.871 274.74,424.237 273.365,424.005 C271.99,423.774 270.577,423.955 269.305,424.526 C268.459,424.905 267.697,425.446 267.062,426.12 C266.426,426.793 265.929,427.586 265.6,428.452 C265.271,429.317 265.116,430.239 265.144,431.165 C265.171,432.091 265.381,433.002 265.762,433.847" id="Path" fill="#FF9990"></path>
                <path d="M284.669,398.724 C288.874,398.509 301.862,397.697 308.236,404.469 C310.719,407.118 308.848,411.364 304.924,411.977 L280.737,416.364 C279.61,416.59 278.44,416.41 277.434,415.855 C276.427,415.301 275.65,414.408 275.24,413.334 L274.04,409.675 C273.766,408.745 273.801,407.751 274.14,406.842 C274.479,405.933 275.103,405.159 275.919,404.634 L280.662,400.495 C281.49,399.916 283.617,398.74 284.644,398.682" id="Path" fill="#980A00"></path>
                <path d="M390.17,466.859 L356.396,498.935 C355.369,499.909 354.132,500.633 352.78,501.053 C351.428,501.472 349.998,501.575 348.6,501.353 C347.202,501.132 345.874,500.591 344.718,499.775 C343.563,498.958 342.61,497.886 341.935,496.642 L338.682,487.644 L385.865,456.039 L390.17,466.859 Z" id="Path" fill="#FF9990"></path>
                <path d="M383.581,462.355 C384.21,464.297 385.4,466.007 387.002,467.272 C388.603,468.536 390.544,469.297 392.578,469.458 C394.612,469.619 396.648,469.174 398.428,468.177 C400.209,467.181 401.654,465.679 402.581,463.861 C403.508,462.043 403.875,459.992 403.635,457.965 C403.396,455.939 402.561,454.029 401.236,452.478 C399.91,450.926 398.155,449.803 396.191,449.249 C394.227,448.695 392.143,448.737 390.203,449.368 C388.915,449.785 387.722,450.453 386.692,451.331 C385.662,452.21 384.816,453.283 384.201,454.489 C383.586,455.696 383.214,457.011 383.108,458.361 C383.002,459.71 383.162,461.068 383.581,462.355" id="Path" fill="#FF9990"></path>
                <path d="M390.724,449.21 L401.733,441.86 C402.106,441.597 402.566,441.487 403.017,441.553 C403.468,441.62 403.877,441.857 404.159,442.216 C404.392,442.522 404.501,442.906 404.464,443.289 C404.427,443.673 404.247,444.028 403.96,444.285 L393.447,453.788 L390.724,449.21 Z" id="Path" fill="#FF9990"></path>
                <path d="M218.438,506.923 L249.894,536.723 L242.742,545.059 L204.002,519.671 C203.03,518.746 202.261,517.629 201.745,516.39 C201.229,515.152 200.975,513.82 201.002,512.479 C201.028,511.137 201.334,509.816 201.898,508.599 C202.463,507.382 203.275,506.296 204.282,505.41 C205.289,504.524 206.47,503.857 207.749,503.452 C209.028,503.047 210.377,502.912 211.711,503.057 C213.045,503.201 214.334,503.622 215.496,504.292 C216.659,504.962 217.669,505.866 218.463,506.948" id="Path" fill="#FF9990"></path>
                <path d="M273.444,539.728 L262.526,533.934 L263.651,531.533 C263.856,531.102 263.911,530.614 263.806,530.148 C263.701,529.682 263.443,529.265 263.074,528.963 C262.704,528.661 262.243,528.491 261.766,528.481 C261.288,528.472 260.821,528.622 260.44,528.909 L249.869,536.715 L242.717,545.051 C248.586,550.258 252.476,550.266 254.736,549.314 C254.993,549.413 255.258,549.513 255.523,549.587 L264.628,552.385 C265.033,552.568 265.493,552.59 265.914,552.447 C266.335,552.304 266.686,552.007 266.896,551.615 C267.211,551.019 267.335,550.067 265.58,549.132 L267.335,550.059 C267.76,550.253 268.244,550.275 268.685,550.12 C269.126,549.966 269.491,549.648 269.702,549.231 C270.108,548.461 269.645,547.427 268.626,546.748 L269.959,547.302 C270.193,547.408 270.446,547.465 270.702,547.469 C270.959,547.473 271.213,547.424 271.45,547.325 C271.687,547.227 271.901,547.08 272.078,546.896 C272.256,546.711 272.394,546.491 272.484,546.251 C272.629,545.811 272.61,545.333 272.433,544.904 C272.255,544.476 271.929,544.125 271.515,543.917 L269.587,542.899 L271.888,543.495 C272.142,543.591 272.414,543.634 272.685,543.623 C272.957,543.611 273.224,543.545 273.469,543.427 C273.714,543.309 273.933,543.143 274.112,542.939 C274.292,542.734 274.428,542.495 274.512,542.236 C274.658,541.763 274.63,541.253 274.435,540.798 C274.239,540.343 273.888,539.973 273.444,539.753" id="Path" fill="#FF9990"></path>
                <path d="M208.91,515.143 L203.943,505.632 L228.777,481.709 C232.874,476.618 252.584,460.973 256.309,466.345 C259.041,470.286 248.288,492.007 244.836,495.359 L219.315,518.413 L208.91,515.143 Z" id="Path" fill="#FF9990"></path>
                <path d="M266.632,460.12 C266.632,460.12 254.72,460.211 245.937,464.028 C228.984,471.478 218.579,487.148 218.579,487.148 L240.764,505.922 L271.209,481.386 L266.632,460.12 Z" id="Path" fill="#D7352C"></path>
                <path d="M249.869,498.579 L262.691,488.886" id="Path" stroke="#000000" stroke-width="0.73" stroke-linecap="round" stroke-linejoin="round"></path>
            </g>
            <g id="Triangle-2" transform="translate(629.000000, 353.000000)" fill-rule="nonzero">
                <rect id="Rectangle" fill="#282727" opacity="0.94968378" x="0" y="0" width="342" height="193" rx="66"></rect>
                <polygon id="Triangle" fill="#FFFFFF" transform="translate(171.500000, 96.500000) rotate(-270.000000) translate(-171.500000, -96.500000) " points="171.5 45 223 148 120 148"></polygon>
            </g>
        </g>
    </g>
</svg>