<svg width="1600" height="899" viewBox="0 0 1600 899" fill="none" xmlns="http://www.w3.org/2000/svg">
<rect width="1600" height="899" fill="url(#paint0_linear)"/>
<path d="M1301.71 137.468H333.152V778.527H1301.71V137.468Z" stroke="#FEE8E8" stroke-width="1.94" stroke-miterlimit="10"/>
<path d="M333.152 246.735H1301.71" stroke="#FEE8E8" stroke-width="1.94" stroke-miterlimit="10"/>
<path d="M333.152 355.994H1301.71" stroke="#FEE8E8" stroke-width="1.94" stroke-miterlimit="10"/>
<path d="M333.152 465.261H1301.71" stroke="#FEE8E8" stroke-width="1.94" stroke-miterlimit="10"/>
<path d="M1301.71 574.52H333.152" stroke="#FEE8E8" stroke-width="1.94" stroke-miterlimit="10"/>
<path d="M333.152 683.779H1301.71" stroke="#FEE8E8" stroke-width="1.94" stroke-miterlimit="10"/>
<path d="M435.392 137.468V778.535" stroke="#FEE8E8" stroke-width="1.94" stroke-miterlimit="10"/>
<path d="M530.454 137.468V778.535" stroke="#FEE8E8" stroke-width="1.94" stroke-miterlimit="10"/>
<path d="M625.517 137.468V778.535" stroke="#FEE8E8" stroke-width="1.94" stroke-miterlimit="10"/>
<path d="M720.579 137.468V778.535" stroke="#FEE8E8" stroke-width="1.94" stroke-miterlimit="10"/>
<path d="M815.634 137.468V778.535" stroke="#FEE8E8" stroke-width="1.94" stroke-miterlimit="10"/>
<path d="M910.696 137.468V778.535" stroke="#FEE8E8" stroke-width="1.94" stroke-miterlimit="10"/>
<path d="M1005.76 137.468V778.535" stroke="#FEE8E8" stroke-width="1.94" stroke-miterlimit="10"/>
<path d="M1100.81 137.468V778.535" stroke="#FEE8E8" stroke-width="1.94" stroke-miterlimit="10"/>
<path d="M1195.88 137.468V778.535" stroke="#FEE8E8" stroke-width="1.94" stroke-miterlimit="10"/>
<path d="M281.275 778.535H1331.32" stroke="#90000A" stroke-width="1.94" stroke-miterlimit="10"/>
<path d="M1058.6 528.71C1058.6 530.53 1058.07 532.309 1057.06 533.822C1056.05 535.336 1054.61 536.516 1052.93 537.213C1051.25 537.91 1049.4 538.094 1047.62 537.74C1045.83 537.386 1044.19 536.511 1042.91 535.225C1041.62 533.939 1040.74 532.3 1040.39 530.516C1040.03 528.732 1040.21 526.882 1040.91 525.201C1041.61 523.52 1042.78 522.083 1044.3 521.073C1045.81 520.062 1047.59 519.522 1049.41 519.522C1050.61 519.521 1051.81 519.758 1052.93 520.219C1054.04 520.68 1055.06 521.357 1055.91 522.21C1056.76 523.064 1057.44 524.077 1057.9 525.192C1058.37 526.308 1058.6 527.503 1058.6 528.71" fill="#FEE8E8"/>
<path d="M971.231 288.066C971.233 289.885 970.695 291.664 969.685 293.178C968.676 294.691 967.24 295.871 965.56 296.569C963.879 297.266 962.03 297.449 960.245 297.095C958.461 296.741 956.821 295.866 955.534 294.58C954.247 293.294 953.371 291.656 953.015 289.872C952.66 288.087 952.841 286.238 953.537 284.557C954.233 282.876 955.412 281.439 956.924 280.428C958.437 279.417 960.215 278.878 962.035 278.878C963.242 278.877 964.438 279.113 965.553 279.575C966.669 280.036 967.683 280.713 968.537 281.566C969.391 282.419 970.069 283.433 970.531 284.548C970.993 285.663 971.231 286.859 971.231 288.066" fill="#FEE8E8"/>
<path d="M680.672 251.346L689.604 265.865L710.472 252.24L716.705 264.193L735.438 226.537L688.619 230.684L700.249 239.558L680.672 251.346Z" fill="#FEE8E8"/>
<path d="M686.722 103.744C686.72 105.888 686.083 107.984 684.89 109.765C683.696 111.547 682.002 112.934 680.02 113.752C678.038 114.57 675.857 114.781 673.755 114.36C671.653 113.938 669.723 112.902 668.21 111.383C666.697 109.864 665.668 107.93 665.254 105.826C664.841 103.722 665.06 101.543 665.886 99.5641C666.711 97.5852 668.105 95.8957 669.891 94.7094C671.678 93.5232 673.775 92.8934 675.92 92.9C678.788 92.9109 681.536 94.0582 683.561 96.0907C685.585 98.1231 686.722 100.875 686.722 103.744Z" stroke="#FEE8E8" stroke-width="3.81" stroke-miterlimit="10"/>
<path d="M288.874 519.365C288.874 521.508 288.239 523.603 287.048 525.385C285.858 527.167 284.165 528.556 282.185 529.376C280.205 530.196 278.027 530.41 275.925 529.992C273.823 529.574 271.892 528.542 270.377 527.027C268.861 525.511 267.829 523.581 267.411 521.479C266.993 519.377 267.208 517.198 268.028 515.218C268.848 513.238 270.237 511.546 272.019 510.355C273.801 509.165 275.896 508.529 278.039 508.529C280.913 508.529 283.669 509.671 285.701 511.703C287.733 513.735 288.874 516.491 288.874 519.365V519.365Z" stroke="#FEE8E8" stroke-width="3.81" stroke-miterlimit="10"/>
<path d="M1352.95 246.718C1352.95 248.861 1352.31 250.956 1351.12 252.738C1349.93 254.52 1348.24 255.909 1346.26 256.729C1344.28 257.549 1342.1 257.764 1340 257.346C1337.89 256.928 1335.96 255.896 1334.45 254.38C1332.93 252.865 1331.9 250.934 1331.48 248.832C1331.06 246.73 1331.28 244.552 1332.1 242.572C1332.92 240.592 1334.31 238.899 1336.09 237.709C1337.87 236.518 1339.97 235.883 1342.11 235.883C1344.98 235.883 1347.74 237.024 1349.77 239.056C1351.8 241.088 1352.95 243.845 1352.95 246.718V246.718Z" stroke="#FEE8E8" stroke-width="3.81" stroke-miterlimit="10"/>
<g opacity="0.38">
<g opacity="0.38">
<path opacity="0.38" d="M1351.07 462.736C1351.07 463.784 1350.76 464.809 1350.17 465.68C1349.59 466.552 1348.76 467.231 1347.79 467.632C1346.83 468.032 1345.76 468.137 1344.73 467.932C1343.7 467.727 1342.76 467.221 1342.02 466.479C1341.28 465.738 1340.77 464.793 1340.57 463.765C1340.37 462.737 1340.47 461.671 1340.88 460.703C1341.28 459.735 1341.96 458.908 1342.83 458.327C1343.7 457.746 1344.73 457.437 1345.78 457.438C1346.47 457.438 1347.16 457.576 1347.8 457.842C1348.45 458.108 1349.03 458.499 1349.52 458.991C1350.01 459.483 1350.4 460.067 1350.67 460.71C1350.93 461.352 1351.07 462.041 1351.07 462.736Z" fill="#DCE0E5"/>
</g>
</g>
<path d="M1074.31 98.4296H1003.22C1002.41 98.4296 1001.64 98.7496 1001.07 99.3194C1000.5 99.8891 1000.18 100.662 1000.18 101.468V101.823C1000.18 102.223 1000.26 102.619 1000.41 102.989C1000.56 103.358 1000.78 103.694 1001.07 103.977C1001.35 104.26 1001.68 104.484 1002.05 104.638C1002.42 104.791 1002.82 104.87 1003.22 104.87H1074.31C1074.71 104.87 1075.11 104.791 1075.48 104.638C1075.85 104.484 1076.18 104.26 1076.47 103.977C1076.75 103.694 1076.97 103.358 1077.12 102.989C1077.28 102.619 1077.35 102.223 1077.35 101.823V101.468C1077.35 100.662 1077.03 99.8891 1076.46 99.3194C1075.89 98.7496 1075.12 98.4296 1074.31 98.4296" fill="#8F8F8F"/>
<path d="M1348.96 351.888C1348.96 361.525 1346.11 370.945 1340.75 378.957C1335.4 386.97 1327.79 393.215 1318.89 396.902C1309.98 400.59 1300.19 401.555 1290.74 399.675C1281.28 397.795 1272.6 393.155 1265.79 386.341C1258.97 379.526 1254.33 370.845 1252.45 361.393C1250.57 351.942 1251.54 342.145 1255.23 333.242C1258.91 324.339 1265.16 316.73 1273.17 311.376C1281.18 306.022 1290.6 303.165 1300.24 303.165C1313.16 303.165 1325.56 308.298 1334.69 317.436C1343.83 326.573 1348.96 338.966 1348.96 351.888" fill="#8F8F8F"/>
<path d="M1279.17 365.108L1290.97 353.312L1279.17 344.546V365.108Z" fill="#FEE8E8"/>
<path d="M1306.53 355.472L1300.21 360.174L1293.76 355.39L1282.65 366.714H1317.7L1306.53 355.472Z" fill="#FEE8E8"/>
<path d="M1309.44 353.312L1321.23 365.099V344.546L1309.44 353.312Z" fill="#FEE8E8"/>
<path d="M1300.29 356.184L1321.31 340.547V335.44H1279.26V340.547L1300.29 356.184Z" fill="#FEE8E8"/>
<path d="M929.155 212.986H814.64C810.34 212.984 806.218 211.275 803.178 208.234C800.139 205.193 798.432 201.069 798.432 196.77V113.528C798.432 110.268 799.727 107.141 802.032 104.836C804.337 102.531 807.464 101.236 810.724 101.236H929.163C932.423 101.236 935.55 102.531 937.855 104.836C940.161 107.141 941.456 110.268 941.456 113.528V200.694C941.456 203.954 940.161 207.081 937.855 209.386C935.55 211.691 932.423 212.986 929.163 212.986" fill="#8F8F8F"/>
<path d="M905.564 129.836L899.198 128.561C899.1 128.536 899.011 128.485 898.94 128.414C898.868 128.342 898.817 128.253 898.792 128.155L897.517 121.79C897.368 121.045 896.822 120.879 896.284 121.417L887.112 130.581C886.975 130.736 886.874 130.92 886.816 131.118C886.757 131.317 886.742 131.526 886.773 131.731L887.683 136.292L865.921 157.699C865.473 158.147 865.222 158.754 865.222 159.387C865.222 160.021 865.473 160.628 865.921 161.076C866.369 161.524 866.976 161.776 867.61 161.776C868.243 161.776 868.851 161.524 869.298 161.076L891.053 139.67L895.614 140.58C895.819 140.61 896.029 140.595 896.228 140.535C896.427 140.474 896.61 140.371 896.764 140.233L905.936 131.061C906.466 130.531 906.309 129.985 905.564 129.836" fill="#D7352C"/>
<path d="M874.977 145.406L878.976 141.408C879.011 141.378 879.038 141.34 879.055 141.298C879.072 141.255 879.079 141.209 879.074 141.163C879.069 141.117 879.053 141.073 879.027 141.035C879.001 140.997 878.967 140.966 878.926 140.944C874.358 138.261 868.968 137.335 863.767 138.339C858.565 139.343 853.908 142.209 850.667 146.4C847.426 150.591 845.824 155.82 846.16 161.107C846.497 166.394 848.749 171.377 852.495 175.123C856.241 178.869 861.224 181.122 866.512 181.458C871.799 181.795 877.027 180.193 881.218 176.952C885.409 173.711 888.275 169.054 889.279 163.852C890.283 158.65 889.357 153.26 886.674 148.692C886.653 148.651 886.623 148.616 886.585 148.589C886.547 148.563 886.503 148.546 886.458 148.54C886.412 148.534 886.365 148.54 886.322 148.556C886.279 148.573 886.241 148.6 886.21 148.635L882.212 152.633C882.137 152.713 882.087 152.814 882.068 152.923C882.049 153.032 882.061 153.144 882.105 153.245C883.287 155.84 883.737 158.71 883.405 161.542C883.073 164.375 881.972 167.063 880.221 169.314C878.47 171.565 876.136 173.294 873.472 174.313C870.809 175.332 867.917 175.602 865.11 175.095C862.304 174.587 859.69 173.32 857.552 171.433C855.414 169.545 853.834 167.108 852.983 164.386C852.132 161.664 852.042 158.761 852.724 155.991C853.405 153.222 854.832 150.692 856.849 148.676C859.096 146.422 861.979 144.911 865.111 144.345C868.242 143.78 871.472 144.188 874.365 145.514C874.467 145.555 874.578 145.567 874.687 145.548C874.795 145.529 874.896 145.48 874.977 145.406" fill="#D7352C"/>
<path d="M897.766 144.049L893.693 148.113C893.618 148.194 893.568 148.295 893.549 148.403C893.53 148.512 893.543 148.624 893.586 148.726C896.136 154.688 896.531 161.352 894.702 167.573C892.874 173.795 888.936 179.185 883.565 182.82C878.195 186.454 871.727 188.105 865.272 187.489C858.816 186.873 852.777 184.029 848.19 179.445C843.604 174.861 840.756 168.823 840.137 162.368C839.517 155.914 841.165 149.444 844.796 144.072C848.427 138.699 853.816 134.759 860.036 132.927C866.257 131.095 872.921 131.486 878.884 134.032C878.989 134.071 879.101 134.081 879.211 134.061C879.32 134.04 879.422 133.99 879.505 133.917L883.57 129.852C883.604 129.823 883.631 129.786 883.647 129.743C883.663 129.701 883.668 129.655 883.662 129.61C883.655 129.565 883.637 129.523 883.609 129.487C883.582 129.451 883.545 129.423 883.503 129.405C876.275 125.681 867.955 124.662 860.042 126.533C852.129 128.404 845.145 133.041 840.35 139.607C835.555 146.174 833.265 154.237 833.892 162.344C834.519 170.451 838.022 178.067 843.77 183.818C849.518 189.569 857.131 193.076 865.238 193.708C873.344 194.34 881.409 192.054 887.979 187.262C894.548 182.471 899.188 175.49 901.064 167.578C902.939 159.666 901.925 151.345 898.205 144.115C898.188 144.073 898.161 144.036 898.126 144.008C898.091 143.98 898.049 143.962 898.004 143.956C897.96 143.949 897.915 143.954 897.873 143.97C897.831 143.987 897.794 144.014 897.766 144.049" fill="#D7352C"/>
<path d="M553.484 193.724C553.454 198.961 551.873 204.071 548.94 208.41C546.007 212.748 541.854 216.12 537.005 218.099C532.157 220.078 526.831 220.576 521.699 219.529C516.568 218.482 511.862 215.938 508.177 212.217C504.491 208.497 501.991 203.768 500.992 198.627C499.993 193.486 500.541 188.165 502.565 183.335C504.59 178.505 508 174.384 512.366 171.492C516.732 168.599 521.857 167.066 527.094 167.086C530.579 167.099 534.028 167.8 537.242 169.148C540.457 170.496 543.373 172.466 545.825 174.944C548.276 177.421 550.215 180.359 551.529 183.587C552.843 186.815 553.507 190.271 553.484 193.757" fill="#8F8F8F"/>
<path d="M531.283 193.575C530.079 194.593 528.551 195.148 526.975 195.14C525.398 195.133 523.876 194.563 522.682 193.533C520.932 194.343 519.448 195.632 518.402 197.251C517.356 198.87 516.791 200.753 516.772 202.68C516.77 202.764 516.786 202.846 516.817 202.924C516.848 203.001 516.894 203.071 516.953 203.131C517.011 203.19 517.081 203.237 517.158 203.269C517.235 203.301 517.317 203.318 517.401 203.318L536.44 203.392C536.608 203.392 536.77 203.327 536.89 203.209C537.011 203.092 537.081 202.932 537.085 202.763C537.085 200.84 536.539 198.956 535.512 197.33C534.485 195.704 533.019 194.402 531.283 193.575" fill="#FEE8E8"/>
<path d="M527.027 182.416C525.956 182.411 524.908 182.724 524.015 183.315C523.122 183.907 522.424 184.749 522.01 185.737C521.596 186.725 521.484 187.813 521.689 188.865C521.893 189.916 522.405 190.883 523.16 191.643C523.914 192.404 524.877 192.923 525.927 193.136C526.977 193.348 528.066 193.245 529.057 192.839C530.048 192.432 530.896 191.741 531.494 190.852C532.092 189.964 532.413 188.918 532.416 187.847C532.418 186.413 531.853 185.037 530.843 184.019C529.833 183.001 528.461 182.425 527.027 182.416" fill="#FEE8E8"/>
<path d="M386.022 193.616H314.933C314.534 193.616 314.139 193.695 313.77 193.847C313.401 194 313.066 194.224 312.784 194.506C312.502 194.788 312.278 195.123 312.126 195.492C311.973 195.86 311.895 196.255 311.895 196.654V197.01C311.893 197.41 311.971 197.806 312.123 198.175C312.276 198.545 312.499 198.881 312.781 199.164C313.064 199.447 313.399 199.671 313.768 199.824C314.137 199.977 314.533 200.056 314.933 200.056H386.022C386.83 200.056 387.605 199.735 388.176 199.164C388.748 198.593 389.069 197.818 389.069 197.01V196.654C389.069 196.254 388.99 195.859 388.837 195.49C388.683 195.12 388.459 194.785 388.176 194.503C387.893 194.221 387.557 193.997 387.188 193.845C386.818 193.693 386.422 193.615 386.022 193.616" fill="#8F8F8F"/>
<path d="M718.534 503.447C717.045 503.445 715.573 503.123 714.22 502.503C712.866 501.883 711.661 500.98 710.686 499.854L547.862 312.717L389.01 487.942C387.149 489.948 384.572 491.139 381.838 491.258C379.104 491.376 376.434 490.411 374.406 488.573C372.379 486.735 371.158 484.172 371.008 481.44C370.858 478.708 371.791 476.026 373.605 473.978L540.321 290.086C541.318 289.011 542.526 288.154 543.868 287.565C545.211 286.977 546.661 286.672 548.127 286.667C549.596 286.683 551.045 287.01 552.379 287.627C553.713 288.243 554.902 289.135 555.866 290.243L715.653 473.944L796.61 292.826C797.204 291.494 798.073 290.302 799.158 289.327C800.244 288.353 801.522 287.618 802.911 287.171C804.299 286.723 805.766 286.573 807.217 286.73C808.667 286.887 810.068 287.348 811.328 288.083L972.108 381.746L1136.99 192.25C1138.8 190.171 1141.36 188.896 1144.11 188.705C1146.86 188.514 1149.57 189.423 1151.65 191.232C1153.73 193.041 1155.01 195.602 1155.2 198.351C1155.39 201.101 1154.48 203.813 1152.67 205.892L982.149 401.878C980.561 403.704 978.386 404.918 975.998 405.313C973.611 405.707 971.161 405.256 969.07 404.038L810.848 311.873L728.07 497.296C727.356 498.89 726.252 500.278 724.861 501.333C723.469 502.387 721.834 503.074 720.106 503.331C719.6 503.411 719.088 503.449 718.575 503.447" fill="#B30018"/>
<path d="M1108.14 176.796L1169.8 234.062L1181.58 161.738L1108.14 176.796Z" fill="#B30018"/>
<path d="M1007.03 391.083C1007.03 397.562 1005.1 403.893 1001.5 409.277C997.896 414.661 992.777 418.855 986.79 421.33C980.803 423.805 974.216 424.448 967.863 423.18C961.51 421.911 955.676 418.787 951.099 414.203C946.521 409.618 943.406 403.779 942.147 397.425C940.888 391.07 941.542 384.484 944.025 378.501C946.509 372.517 950.711 367.405 956.101 363.81C961.49 360.215 967.824 358.298 974.303 358.303C978.604 358.307 982.863 359.157 986.836 360.806C990.808 362.455 994.418 364.871 997.457 367.915C1000.5 370.959 1002.91 374.571 1004.55 378.547C1006.19 382.522 1007.04 386.782 1007.03 391.083" fill="#B30018"/>
<path d="M990.08 391.083C990.082 394.204 989.158 397.256 987.425 399.851C985.693 402.447 983.229 404.47 980.346 405.666C977.464 406.861 974.291 407.175 971.23 406.567C968.169 405.959 965.357 404.457 963.149 402.251C960.942 400.045 959.439 397.234 958.829 394.173C958.22 391.112 958.532 387.939 959.726 385.056C960.919 382.172 962.942 379.708 965.537 377.974C968.131 376.24 971.182 375.314 974.303 375.314C978.486 375.314 982.498 376.975 985.456 379.932C988.415 382.889 990.078 386.9 990.08 391.083" fill="#FEE8E8"/>
<path d="M838.165 303.835C838.167 310.314 836.247 316.648 832.648 322.036C829.05 327.424 823.934 331.624 817.948 334.104C811.963 336.584 805.376 337.234 799.021 335.97C792.667 334.706 786.83 331.586 782.248 327.005C777.667 322.424 774.547 316.586 773.283 310.232C772.02 303.877 772.669 297.29 775.149 291.305C777.629 285.319 781.829 280.204 787.217 276.605C792.605 273.006 798.939 271.087 805.418 271.088C814.103 271.088 822.432 274.538 828.574 280.68C834.715 286.821 838.165 295.15 838.165 303.835" fill="#B30018"/>
<path d="M821.179 303.835C821.181 306.956 820.257 310.007 818.524 312.603C816.791 315.199 814.328 317.222 811.445 318.418C808.562 319.613 805.39 319.927 802.329 319.319C799.267 318.711 796.455 317.209 794.248 315.003C792.041 312.797 790.537 309.985 789.928 306.925C789.318 303.864 789.63 300.691 790.824 297.808C792.018 294.924 794.04 292.46 796.635 290.726C799.23 288.992 802.281 288.066 805.402 288.066C809.585 288.066 813.596 289.727 816.555 292.684C819.514 295.641 821.177 299.652 821.179 303.835" fill="#FEE8E8"/>
<path d="M576.52 303.835C576.522 310.314 574.602 316.648 571.004 322.035C567.406 327.423 562.291 331.623 556.306 334.103C550.321 336.584 543.734 337.233 537.38 335.971C531.025 334.708 525.188 331.589 520.607 327.008C516.025 322.427 512.904 316.591 511.64 310.237C510.375 303.883 511.023 297.296 513.502 291.311C515.981 285.325 520.18 280.209 525.566 276.609C530.953 273.01 537.286 271.088 543.765 271.088C552.451 271.088 560.781 274.538 566.924 280.679C573.066 286.82 576.518 295.149 576.52 303.835Z" fill="#B30018"/>
<path d="M559.535 303.835C559.535 306.956 558.609 310.006 556.874 312.601C555.139 315.195 552.674 317.216 549.79 318.408C546.907 319.6 543.734 319.91 540.674 319.298C537.614 318.687 534.804 317.181 532.6 314.971C530.396 312.762 528.898 309.948 528.294 306.886C527.69 303.825 528.008 300.653 529.208 297.772C530.408 294.891 532.436 292.431 535.035 290.704C537.633 288.976 540.686 288.058 543.807 288.066C547.982 288.077 551.982 289.743 554.931 292.699C557.879 295.655 559.535 299.66 559.535 303.835" fill="#FEE8E8"/>
<path d="M385.534 391.903H294.313C290.058 391.903 285.978 390.213 282.969 387.204C279.961 384.196 278.271 380.115 278.271 375.861V291.038C278.273 287.812 279.556 284.719 281.837 282.439C284.119 280.159 287.213 278.878 290.439 278.878H385.534C388.76 278.878 391.854 280.159 394.136 282.439C396.418 284.719 397.701 287.812 397.703 291.038V379.743C397.701 382.969 396.418 386.062 394.136 388.342C391.854 390.622 388.76 391.903 385.534 391.903Z" fill="#8F8F8F"/>
<path d="M355.635 301.716L366.255 303.289L336.05 322.883L330.421 315.242L307.855 328.371" fill="#D7352C"/>
<path d="M320.901 343.445H310.289V364.495H320.901V343.445Z" fill="#D7352C"/>
<path d="M335.727 337.261H325.115V364.495H335.727V337.261Z" fill="#D7352C"/>
<path d="M350.908 330.705H340.296V364.495H350.908V330.705Z" fill="#D7352C"/>
<path d="M366.256 325.134H355.644V364.503H366.256V325.134Z" fill="#D7352C"/>
<path d="M692.723 631.951H645.449C644.595 631.951 643.776 631.612 643.172 631.008C642.568 630.404 642.229 629.585 642.229 628.731C642.229 627.877 642.568 627.058 643.172 626.454C643.776 625.851 644.595 625.511 645.449 625.511H692.723C693.577 625.511 694.396 625.851 695 626.454C695.604 627.058 695.943 627.877 695.943 628.731C695.943 629.585 695.604 630.404 695 631.008C694.396 631.612 693.577 631.951 692.723 631.951" fill="#8F8F8F"/>
<path d="M1322.2 547.278H1232.34C1231.48 547.278 1230.67 546.938 1230.06 546.334C1229.46 545.731 1229.12 544.912 1229.12 544.058C1229.12 543.203 1229.46 542.384 1230.06 541.781C1230.67 541.177 1231.48 540.837 1232.34 540.837H1322.2C1323.06 540.837 1323.88 541.177 1324.48 541.781C1325.08 542.384 1325.42 543.203 1325.42 544.058C1325.42 544.912 1325.08 545.731 1324.48 546.334C1323.88 546.938 1323.06 547.278 1322.2 547.278" fill="#8F8F8F"/>
<path d="M465.44 760.059H324.94V777.889H465.44V760.059Z" fill="#2C2C2C"/>
<path d="M366.196 760.059H339.476V777.889H366.196V760.059Z" fill="#D0D0D0"/>
<path d="M448.719 760.059H429.125V777.889H448.719V760.059Z" fill="#383838"/>
<path d="M448.719 760.059H324.94" stroke="#EFEFEF" stroke-width="1.9" stroke-miterlimit="10"/>
<path d="M448.718 742.22H308.219V760.051H448.718V742.22Z" fill="#2C2C2C"/>
<path d="M349.467 742.22H322.746V760.051H349.467V742.22Z" fill="#D0D0D0"/>
<path d="M431.988 742.22H412.395V760.051H431.988V742.22Z" fill="#383838"/>
<path d="M448.719 742.22H324.94" stroke="#EFEFEF" stroke-width="1.9" stroke-miterlimit="10"/>
<path d="M465.44 724.39H324.94V742.22H465.44V724.39Z" fill="#2C2C2C"/>
<path d="M366.196 724.39H339.476V742.22H366.196V724.39Z" fill="#D0D0D0"/>
<path d="M448.719 724.39H429.125V742.22H448.719V724.39Z" fill="#383838"/>
<path d="M448.719 724.39H324.94" stroke="#EFEFEF" stroke-width="1.9" stroke-miterlimit="10"/>
<path d="M448.718 706.559H308.219V724.39H448.718V706.559Z" fill="#2C2C2C"/>
<path d="M349.467 706.559H322.746V724.39H349.467V706.559Z" fill="#D0D0D0"/>
<path d="M431.988 706.559H412.395V724.39H431.988V706.559Z" fill="#383838"/>
<path d="M448.719 706.559H324.94" stroke="#EFEFEF" stroke-width="1.9" stroke-miterlimit="10"/>
<path d="M465.44 688.721H324.94V706.551H465.44V688.721Z" fill="#2C2C2C"/>
<path d="M366.196 688.721H339.476V706.551H366.196V688.721Z" fill="#D0D0D0"/>
<path d="M448.719 688.721H429.125V706.551H448.719V688.721Z" fill="#383838"/>
<path d="M465.44 688.729H324.94" stroke="#EFEFEF" stroke-width="1.9" stroke-miterlimit="10"/>
<path d="M465.44 670.89H324.94V688.721H465.44V670.89Z" fill="#2C2C2C"/>
<path d="M366.196 670.89H339.476V688.721H366.196V670.89Z" fill="#D0D0D0"/>
<path d="M448.719 670.89H429.125V688.721H448.719V670.89Z" fill="#383838"/>
<path d="M465.44 670.89H324.94" stroke="#EFEFEF" stroke-width="1.9" stroke-miterlimit="10"/>
<path d="M448.718 653.06H308.219V670.89H448.718V653.06Z" fill="#2C2C2C"/>
<path d="M349.467 653.06H322.746V670.89H349.467V653.06Z" fill="#D0D0D0"/>
<path d="M431.988 653.06H412.395V670.89H431.988V653.06Z" fill="#383838"/>
<path d="M448.719 653.06H324.94" stroke="#EFEFEF" stroke-width="1.9" stroke-miterlimit="10"/>
<path d="M465.44 635.229H324.94V653.06H465.44V635.229Z" fill="#2C2C2C"/>
<path d="M366.196 635.229H339.476V653.06H366.196V635.229Z" fill="#D0D0D0"/>
<path d="M448.719 635.229H429.125V653.06H448.719V635.229Z" fill="#383838"/>
<path d="M453.867 577.599C453.869 589.293 450.403 600.724 443.907 610.448C437.412 620.171 428.178 627.75 417.375 632.226C406.572 636.702 394.684 637.873 383.215 635.592C371.746 633.311 361.211 627.68 352.943 619.412C344.674 611.143 339.043 600.608 336.763 589.139C334.482 577.67 335.653 565.782 340.129 554.979C344.605 544.176 352.183 534.943 361.907 528.447C371.63 521.952 383.062 518.486 394.755 518.487C410.433 518.487 425.468 524.715 436.554 535.801C447.639 546.886 453.867 561.922 453.867 577.599" fill="#292929"/>
<path d="M445.217 577.599C445.219 589.293 441.752 600.724 435.257 610.448C428.761 620.171 419.528 627.75 408.725 632.226C397.922 636.702 386.034 637.873 374.565 635.592C363.096 633.311 352.561 627.68 344.293 619.412C336.024 611.143 330.393 600.608 328.112 589.139C325.831 577.67 327.003 565.782 331.478 554.979C335.954 544.176 343.533 534.943 353.257 528.447C362.98 521.952 374.411 518.486 386.105 518.487C401.782 518.487 416.818 524.715 427.903 535.801C438.989 546.886 445.217 561.922 445.217 577.599" fill="#383838"/>
<path d="M433.512 577.599C433.514 586.978 430.734 596.146 425.525 603.945C420.315 611.744 412.91 617.822 404.246 621.412C395.582 625.002 386.047 625.941 376.849 624.112C367.65 622.283 359.201 617.767 352.569 611.135C345.938 604.504 341.422 596.054 339.592 586.856C337.763 577.657 338.703 568.123 342.293 559.459C345.882 550.794 351.961 543.389 359.76 538.18C367.558 532.97 376.727 530.191 386.105 530.192C398.678 530.192 410.737 535.187 419.627 544.077C428.518 552.968 433.512 565.026 433.512 577.599Z" fill="#2C2C2C"/>
<path d="M342.224 580.248C342.227 571.65 344.568 563.214 348.996 555.843C353.424 548.473 359.772 542.444 367.362 538.404C374.952 534.363 383.497 532.462 392.084 532.904C400.671 533.346 408.977 536.114 416.112 540.912C411.299 536.891 405.737 533.864 399.746 532.008C393.755 530.152 387.456 529.503 381.213 530.098C374.97 530.694 368.907 532.522 363.375 535.478C357.843 538.433 352.953 542.456 348.988 547.315C345.022 552.174 342.06 557.771 340.273 563.783C338.486 569.794 337.909 576.1 338.577 582.336C339.244 588.572 341.142 594.614 344.161 600.111C347.18 605.608 351.26 610.452 356.164 614.361C347.323 605.193 342.334 592.984 342.224 580.248" fill="#292929"/>
<path d="M383.224 610.437V603.633C375.534 603.285 371.693 600.661 371.693 591.407C371.677 589.417 371.824 587.429 372.132 585.463H381.825C381.708 586.361 381.65 587.265 381.652 588.17C381.652 592.185 381.908 594.461 385.84 594.461C389.772 594.461 390.12 593.062 390.12 587.905C390.12 585.372 390.12 584.503 388.721 583.278C385.84 580.571 378.68 578.742 375.269 576.291C372.215 574.197 371.52 571.225 371.52 563.105C371.52 553.759 374.309 550.614 383.224 550.175V544.769H388.721V550.175C396.932 550.531 399.813 553.411 399.813 561.706C399.82 563.489 399.704 565.27 399.465 567.037H389.855C389.94 566.049 389.97 565.056 389.946 564.065C389.946 560.398 389.424 558.56 385.757 558.56C382.612 558.56 381.734 559.612 381.734 563.974C381.734 568.518 381.999 568.941 384.971 570.265C388.199 571.747 391.345 572.748 394.143 574.023C398.067 575.944 400.691 576.821 400.691 585.811C400.691 598.476 398.331 602.847 388.721 603.542V610.437H383.224Z" fill="#EFEFEF"/>
<path d="M324.941 698.066C324.942 696.484 324.631 694.918 324.026 693.456C323.421 691.994 322.534 690.666 321.415 689.547C320.297 688.429 318.969 687.542 317.507 686.937C316.045 686.332 314.478 686.021 312.896 686.022C314.478 686.022 316.044 685.71 317.506 685.105C318.967 684.5 320.295 683.613 321.413 682.494C322.531 681.376 323.419 680.048 324.024 678.587C324.629 677.126 324.941 675.559 324.941 673.978C324.941 677.172 326.21 680.236 328.468 682.494C330.727 684.753 333.791 686.022 336.985 686.022C335.403 686.021 333.836 686.332 332.375 686.937C330.913 687.542 329.585 688.429 328.466 689.547C327.347 690.666 326.46 691.994 325.855 693.456C325.25 694.918 324.94 696.484 324.941 698.066Z" fill="#EFEFEF"/>
<path d="M445.301 598.004C445.301 593.642 443.568 589.458 440.483 586.374C437.398 583.289 433.215 581.556 428.853 581.556C431.012 581.557 433.151 581.133 435.146 580.307C437.142 579.481 438.955 578.271 440.483 576.744C442.01 575.217 443.222 573.404 444.048 571.409C444.875 569.414 445.301 567.276 445.301 565.116C445.303 569.477 447.037 573.659 450.121 576.741C453.205 579.824 457.388 581.556 461.749 581.556C457.386 581.556 453.203 583.289 450.118 586.374C447.033 589.458 445.301 593.642 445.301 598.004" fill="#EFEFEF"/>
<path d="M1221.64 760.696H1081.14V778.527H1221.64V760.696Z" fill="#90000A"/>
<path d="M1122.39 760.696H1095.67V778.527H1122.39V760.696Z" fill="#FBBDBE"/>
<path d="M1204.91 760.696H1185.32V778.527H1204.91V760.696Z" fill="#B30018"/>
<path d="M1204.91 760.696H1081.14" stroke="#FEE8E8" stroke-width="1.9" stroke-miterlimit="10"/>
<path d="M1204.91 742.866H1064.42V760.696H1204.91V742.866Z" fill="#90000A"/>
<path d="M1105.67 742.866H1078.95V760.696H1105.67V742.866Z" fill="#FBBDBE"/>
<path d="M1188.19 742.866H1168.6V760.696H1188.19V742.866Z" fill="#B30018"/>
<path d="M1204.91 742.866H1081.14" stroke="#FEE8E8" stroke-width="1.9" stroke-miterlimit="10"/>
<path d="M1221.64 725.035H1081.14V742.866H1221.64V725.035Z" fill="#90000A"/>
<path d="M1122.39 725.035H1095.67V742.866H1122.39V725.035Z" fill="#FBBDBE"/>
<path d="M1204.91 725.035H1185.32V742.866H1204.91V725.035Z" fill="#B30018"/>
<path d="M1204.91 725.035H1081.14" stroke="#FEE8E8" stroke-width="1.9" stroke-miterlimit="10"/>
<path d="M1204.91 707.205H1064.42V725.035H1204.91V707.205Z" fill="#90000A"/>
<path d="M1105.67 707.205H1078.95V725.035H1105.67V707.205Z" fill="#FBBDBE"/>
<path d="M1188.19 707.205H1168.6V725.035H1188.19V707.205Z" fill="#B30018"/>
<path d="M1103.2 393.774C1105.16 390.182 1108.15 387.254 1111.78 385.361C1115.41 383.468 1119.52 382.695 1123.59 383.139C1127.66 383.583 1131.51 385.225 1134.65 387.857C1137.78 390.488 1140.07 393.991 1141.22 397.923C1142.36 401.854 1142.32 406.037 1141.08 409.941C1139.85 413.846 1137.49 417.297 1134.29 419.859C1131.1 422.42 1127.21 423.975 1123.13 424.329C1119.05 424.682 1114.96 423.817 1111.37 421.844C1106.57 419.202 1103.01 414.763 1101.48 409.5C1099.95 404.238 1100.56 398.582 1103.2 393.774" fill="#F74E4B"/>
<path d="M1106.23 389.593L1060.54 416.894L1070.59 440.419L1111.37 421.844L1106.23 389.593Z" fill="#F74E4B"/>
<path d="M1140.26 475.095C1144.15 475.476 1147.73 477.387 1150.21 480.408C1152.7 483.428 1153.88 487.311 1153.5 491.204L1145.47 573.866L1116.13 571.043L1124.16 488.373C1124.54 484.482 1126.45 480.902 1129.47 478.419C1132.48 475.936 1136.36 474.752 1140.26 475.128" fill="#BD0200"/>
<path d="M1113.39 687.901L1119.92 672.595H1134.99L1128.31 693.886C1128.31 693.886 1111.99 699.954 1113.41 687.901" fill="#F99494"/>
<path d="M1138.78 681.345L1108.78 682.537L1116.08 571.556L1145.52 573.336L1138.78 681.345Z" fill="#BD0200"/>
<path d="M1116.47 576.151C1115.73 573.315 1115.85 570.325 1116.82 567.559C1117.78 564.794 1119.54 562.376 1121.88 560.612C1124.22 558.848 1127.03 557.817 1129.95 557.65C1132.88 557.482 1135.79 558.186 1138.31 559.672C1140.84 561.157 1142.86 563.358 1144.14 565.996C1145.41 568.634 1145.87 571.591 1145.47 574.491C1145.06 577.392 1143.8 580.107 1141.85 582.293C1139.9 584.479 1137.35 586.037 1134.51 586.771C1130.71 587.752 1126.68 587.185 1123.29 585.194C1119.91 583.202 1117.46 579.95 1116.47 576.151" fill="#BD0200"/>
<path d="M1130.62 686.386L1119.03 689.126C1119.03 689.126 1117.98 683.332 1113.67 684.524C1113.67 684.524 1107.37 695.6 1090.17 696.883L1088.83 700.906H1133.19C1133.19 700.906 1134.85 690.972 1130.63 686.386" fill="#A1000E"/>
<path d="M1109.07 689.648C1110.18 690.215 1111.09 691.111 1111.67 692.214" stroke="black" stroke-width="0.79" stroke-linecap="round" stroke-linejoin="round"/>
<path d="M1106.02 691.899C1107.13 692.474 1108.04 693.372 1108.63 694.474" stroke="black" stroke-width="0.79" stroke-linecap="round" stroke-linejoin="round"/>
<path d="M1103.14 693.497C1104.25 694.07 1105.16 694.968 1105.75 696.071" stroke="black" stroke-width="0.79" stroke-linecap="round" stroke-linejoin="round"/>
<path d="M1122.57 479.234V488.878C1122.51 492.242 1123.12 495.585 1124.36 498.711C1125.61 501.837 1127.46 504.683 1129.82 507.084C1132.18 509.485 1134.99 511.392 1138.09 512.693C1141.2 513.995 1144.53 514.666 1147.89 514.666C1151.26 514.666 1154.59 513.995 1157.69 512.693C1160.79 511.392 1163.61 509.485 1165.96 507.084C1168.32 504.683 1170.18 501.837 1171.42 498.711C1172.67 495.585 1173.28 492.242 1173.22 488.878V479.234H1122.57Z" fill="#BD0200"/>
<path d="M1152.72 474.797C1154.66 474.694 1156.59 474.974 1158.42 475.619C1160.24 476.265 1161.92 477.263 1163.36 478.559C1164.8 479.854 1165.97 481.42 1166.81 483.168C1167.64 484.916 1168.12 486.811 1168.23 488.745L1172.59 571.681L1143.14 573.237L1138.77 490.293C1138.67 488.36 1138.95 486.425 1139.6 484.599C1140.24 482.774 1141.24 481.093 1142.54 479.654C1143.83 478.215 1145.4 477.045 1147.15 476.212C1148.89 475.378 1150.79 474.898 1152.72 474.797" fill="#BD0200"/>
<path d="M1156.86 687.901L1163.39 672.595H1178.47L1171.76 693.886C1171.76 693.886 1155.44 699.954 1156.86 687.901Z" fill="#F99494"/>
<path d="M1181.94 678.961L1152.45 684.607L1143.15 573.775L1172.53 571.151L1181.94 678.961Z" fill="#BD0200"/>
<path d="M1144.22 578.253C1143.08 575.559 1142.75 572.586 1143.3 569.71C1143.84 566.834 1145.23 564.184 1147.28 562.095C1149.33 560.006 1151.95 558.572 1154.82 557.974C1157.69 557.376 1160.66 557.642 1163.38 558.737C1166.09 559.832 1168.42 561.708 1170.07 564.127C1171.72 566.545 1172.61 569.399 1172.64 572.326C1172.67 575.253 1171.83 578.123 1170.22 580.572C1168.62 583.02 1166.33 584.939 1163.63 586.084C1161.84 586.844 1159.92 587.245 1157.98 587.263C1156.04 587.281 1154.11 586.916 1152.3 586.189C1150.5 585.462 1148.86 584.387 1147.47 583.025C1146.09 581.663 1144.98 580.042 1144.22 578.253" fill="#BD0200"/>
<path d="M1174.05 686.386L1162.47 689.126C1162.47 689.126 1161.41 683.332 1157.1 684.524C1157.1 684.524 1150.81 695.6 1133.61 696.883L1132.27 700.906H1176.63C1176.63 700.906 1178.28 690.972 1174.06 686.386" fill="#A1000E"/>
<path d="M1152.5 689.648C1153.61 690.216 1154.52 691.112 1155.11 692.214" stroke="black" stroke-width="0.79" stroke-linecap="round" stroke-linejoin="round"/>
<path d="M1149.45 691.899C1150.56 692.474 1151.47 693.372 1152.06 694.474" stroke="black" stroke-width="0.79" stroke-linecap="round" stroke-linejoin="round"/>
<path d="M1146.57 693.497C1147.68 694.069 1148.59 694.968 1149.18 696.071" stroke="black" stroke-width="0.79" stroke-linecap="round" stroke-linejoin="round"/>
<path d="M1173.25 480.202H1122.6L1109.2 394.403C1108.98 393.04 1109.07 391.647 1109.44 390.319C1109.82 388.991 1110.48 387.761 1111.37 386.712C1112.27 385.664 1113.38 384.822 1114.64 384.245C1115.89 383.668 1117.25 383.369 1118.63 383.369H1189.33C1190.96 383.375 1192.57 383.764 1194.03 384.507C1195.49 385.249 1196.75 386.322 1197.72 387.641C1198.68 388.96 1199.32 390.488 1199.59 392.101C1199.86 393.713 1199.75 395.367 1199.26 396.928L1173.25 480.202Z" fill="#F74E4B"/>
<path d="M1118.66 417.407H1134.51V424.716C1134.44 426.774 1133.58 428.725 1132.1 430.157C1130.62 431.589 1128.64 432.39 1126.59 432.39C1124.53 432.39 1122.55 431.589 1121.07 430.157C1119.59 428.725 1118.73 426.774 1118.66 424.716V417.407Z" fill="#D7352C"/>
<path d="M1119.92 429.004C1119.09 427.726 1118.66 426.237 1118.66 424.716V420.056" stroke="white" stroke-width="0.8" stroke-linecap="round" stroke-linejoin="round"/>
<path d="M1134.51 417.407V424.716C1134.51 425.757 1134.31 426.787 1133.91 427.749C1133.51 428.711 1132.93 429.584 1132.19 430.32C1131.46 431.056 1130.58 431.64 1129.62 432.037C1128.66 432.435 1127.63 432.639 1126.59 432.638" stroke="white" stroke-width="0.8" stroke-linecap="round" stroke-linejoin="round"/>
<path d="M1119.93 417.415H1128.52" stroke="white" stroke-width="0.8" stroke-linecap="round" stroke-linejoin="round"/>
<path d="M1155.45 399.85C1154.2 399.85 1152.97 399.605 1151.83 399.129C1150.68 398.654 1149.64 397.957 1148.76 397.078C1147.88 396.199 1147.18 395.156 1146.71 394.008C1146.24 392.86 1145.99 391.63 1145.99 390.388V376.357C1145.95 375.092 1146.17 373.832 1146.63 372.651C1147.09 371.471 1147.78 370.395 1148.66 369.487C1149.54 368.578 1150.6 367.856 1151.76 367.363C1152.93 366.87 1154.18 366.616 1155.45 366.616C1156.72 366.616 1157.97 366.87 1159.14 367.363C1160.3 367.856 1161.36 368.578 1162.24 369.487C1163.12 370.395 1163.81 371.471 1164.27 372.651C1164.73 373.832 1164.94 375.092 1164.91 376.357V390.388C1164.91 392.898 1163.91 395.304 1162.14 397.078C1160.36 398.853 1157.96 399.85 1155.45 399.85" fill="#F99494"/>
<path d="M1068.98 416.347C1071.42 417.031 1073.6 418.423 1075.25 420.346C1076.89 422.268 1077.93 424.636 1078.23 427.15C1078.53 429.663 1078.08 432.21 1076.93 434.466C1075.79 436.723 1074 438.589 1071.79 439.828C1069.58 441.067 1067.06 441.624 1064.53 441.428C1062.01 441.232 1059.6 440.291 1057.61 438.726C1055.62 437.161 1054.14 435.041 1053.36 432.634C1052.57 430.227 1052.52 427.642 1053.21 425.205C1054.12 421.938 1056.3 419.17 1059.26 417.51C1062.22 415.849 1065.72 415.431 1068.98 416.347" fill="#F74E4B"/>
<path d="M1075.87 421.157L1029.05 371.804L1015.41 376.506L1054.36 434.923L1075.87 421.157Z" fill="#F74E4B"/>
<path d="M1028.28 371.987C1027.65 373.925 1026.46 375.633 1024.86 376.895C1023.26 378.157 1021.32 378.916 1019.29 379.076C1017.26 379.236 1015.22 378.79 1013.45 377.795C1011.67 376.799 1010.22 375.299 1009.3 373.483C1008.37 371.668 1008.01 369.618 1008.24 367.594C1008.48 365.57 1009.32 363.662 1010.64 362.112C1011.96 360.562 1013.72 359.438 1015.68 358.884C1017.64 358.33 1019.72 358.37 1021.66 358.999C1022.95 359.416 1024.14 360.084 1025.17 360.962C1026.2 361.841 1027.05 362.914 1027.66 364.121C1028.28 365.327 1028.65 366.642 1028.75 367.992C1028.86 369.341 1028.7 370.699 1028.28 371.987Z" fill="#FF9990"/>
<path d="M1021.1 358.841L1010.1 351.482C1009.72 351.222 1009.26 351.113 1008.81 351.179C1008.36 351.245 1007.95 351.481 1007.67 351.838C1007.44 352.147 1007.33 352.531 1007.37 352.916C1007.4 353.3 1007.58 353.657 1007.87 353.916L1018.38 363.419L1021.1 358.841Z" fill="#FF9990"/>
<path d="M1172.03 336.905V336.98L1171.98 349.297L1171.91 363.328C1171.89 367.699 1170.13 371.883 1167.03 374.959C1163.92 378.035 1159.72 379.751 1155.35 379.73C1150.98 379.71 1146.8 377.953 1143.72 374.848C1140.64 371.742 1138.93 367.542 1138.95 363.171L1139.01 349.165L1139.06 336.831C1139.07 332.46 1140.82 328.271 1143.92 325.188C1147.01 322.104 1151.21 320.377 1155.58 320.387C1159.95 320.397 1164.14 322.143 1167.22 325.24C1170.31 328.338 1172.04 332.534 1172.03 336.905" fill="#F99494"/>
<path d="M1171.98 349.297L1171.91 363.32C1171.89 367.691 1170.13 371.875 1167.03 374.952C1163.93 378.029 1159.73 379.746 1155.35 379.726C1150.98 379.707 1146.8 377.951 1143.72 374.846C1140.65 371.742 1138.93 367.542 1138.95 363.171L1139.01 349.156L1139.71 358.949C1139.71 358.949 1142.19 354.52 1149.16 354.52C1156.13 354.52 1158.62 358.949 1158.62 358.949L1171.94 349.156C1171.94 349.156 1171.94 349.206 1171.94 349.297" fill="#8C000A"/>
<path d="M1143.24 347.062C1143.17 347.337 1143.02 347.585 1142.8 347.772C1142.59 347.96 1142.32 348.081 1142.04 348.118C1141.76 348.155 1141.47 348.108 1141.22 347.982C1140.96 347.856 1140.75 347.657 1140.61 347.41C1140.46 347.164 1140.4 346.88 1140.42 346.596C1140.43 346.311 1140.54 346.039 1140.71 345.813C1140.88 345.587 1141.12 345.417 1141.39 345.326C1141.66 345.234 1141.95 345.225 1142.23 345.299C1142.59 345.398 1142.91 345.639 1143.1 345.97C1143.29 346.3 1143.34 346.693 1143.24 347.062" fill="#061C29"/>
<path d="M1159.25 347.079C1159.18 347.354 1159.02 347.601 1158.81 347.789C1158.6 347.977 1158.33 348.096 1158.05 348.133C1157.76 348.169 1157.48 348.121 1157.22 347.994C1156.97 347.868 1156.75 347.668 1156.61 347.42C1156.47 347.173 1156.41 346.889 1156.43 346.604C1156.45 346.32 1156.55 346.048 1156.72 345.822C1156.9 345.597 1157.14 345.428 1157.41 345.338C1157.68 345.248 1157.97 345.24 1158.24 345.315C1158.61 345.416 1158.92 345.658 1159.11 345.989C1159.3 346.319 1159.35 346.711 1159.25 347.079" fill="#061C29"/>
<path d="M1138.98 342.716C1139.17 342.372 1139.44 342.076 1139.76 341.853C1140.09 341.63 1140.46 341.485 1140.85 341.431C1141.24 341.376 1141.64 341.413 1142.01 341.538C1142.39 341.664 1142.73 341.874 1143 342.153" stroke="#131D26" stroke-width="0.8" stroke-linecap="round" stroke-linejoin="round"/>
<path d="M1156.33 341.59C1156.65 341.353 1157.01 341.192 1157.4 341.12C1157.78 341.049 1158.18 341.069 1158.56 341.18C1158.94 341.29 1159.29 341.487 1159.57 341.755C1159.86 342.023 1160.08 342.355 1160.22 342.724" stroke="#131D26" stroke-width="0.8" stroke-linecap="round" stroke-linejoin="round"/>
<path d="M1149.53 345.108C1149.53 345.108 1144.56 353.386 1147.31 355.323C1150.32 357.434 1151.84 354.851 1152.14 353.726" fill="#F99494"/>
<path d="M1149.53 345.108C1149.53 345.108 1144.56 353.386 1147.31 355.323C1150.32 357.434 1151.84 354.851 1152.14 353.726" stroke="#131D26" stroke-width="0.8" stroke-linecap="round" stroke-linejoin="round"/>
<path d="M1172.03 336.905V336.98C1169.54 332.261 1164.91 328.296 1159.74 332.477C1156.25 335.316 1149.81 337.443 1144.55 332.94C1139.3 328.437 1139.06 336.831 1139.06 336.831C1138.24 327.824 1143.64 319.563 1155.49 319.605C1167.33 319.646 1173.49 327.824 1172.04 336.905" fill="#8C000A"/>
<path d="M1146.47 363.742C1146.47 363.742 1149.58 366.887 1152.73 363.742" stroke="#FEDDCC" stroke-width="0.82" stroke-linecap="round" stroke-linejoin="round"/>
<path d="M1158.8 346.019C1158.8 346.078 1158.78 346.136 1158.75 346.185C1158.72 346.234 1158.67 346.272 1158.61 346.294C1158.56 346.317 1158.5 346.323 1158.44 346.311C1158.38 346.3 1158.33 346.271 1158.29 346.23C1158.25 346.188 1158.22 346.135 1158.21 346.077C1158.2 346.019 1158.2 345.959 1158.22 345.905C1158.25 345.851 1158.29 345.804 1158.33 345.771C1158.38 345.738 1158.44 345.721 1158.5 345.721C1158.58 345.721 1158.65 345.752 1158.71 345.808C1158.77 345.864 1158.8 345.94 1158.8 346.019" fill="white"/>
<path d="M1142.9 346.019C1142.9 346.078 1142.89 346.136 1142.85 346.185C1142.82 346.234 1142.78 346.272 1142.72 346.294C1142.67 346.317 1142.61 346.323 1142.55 346.311C1142.49 346.3 1142.44 346.271 1142.4 346.23C1142.35 346.188 1142.33 346.135 1142.31 346.077C1142.3 346.019 1142.31 345.959 1142.33 345.905C1142.35 345.851 1142.39 345.804 1142.44 345.771C1142.49 345.738 1142.55 345.721 1142.61 345.721C1142.69 345.721 1142.76 345.752 1142.82 345.808C1142.87 345.864 1142.9 345.94 1142.9 346.019" fill="white"/>
<g style="mix-blend-mode:color-burn">
<g style="mix-blend-mode:color-burn">
<g style="mix-blend-mode:color-burn">
<path d="M1172.03 336.905V336.98L1171.98 349.297L1171.91 363.328C1171.89 367.698 1170.13 371.88 1167.03 374.955C1163.92 378.03 1159.72 379.746 1155.35 379.726C1154.74 379.726 1154.13 379.687 1153.52 379.61C1157.55 379.115 1161.25 377.161 1163.94 374.119C1166.63 371.076 1168.11 367.155 1168.1 363.096L1168.17 348.875L1168.22 336.392V336.317C1168.24 332.202 1166.74 328.223 1164 325.152C1161.26 322.081 1157.48 320.136 1153.38 319.696C1154.06 319.638 1154.77 319.605 1155.49 319.605C1167.3 319.646 1173.5 327.824 1172.05 336.905" fill="#FEDDCC"/>
</g>
</g>
</g>
<path d="M1172.4 408.732C1171.41 405.721 1171.33 402.484 1172.18 399.43C1173.03 396.375 1174.76 393.641 1177.16 391.572C1179.56 389.504 1182.53 388.194 1185.67 387.809C1188.82 387.424 1192.01 387.98 1194.84 389.408C1197.67 390.836 1200.01 393.071 1201.57 395.83C1203.13 398.59 1203.84 401.75 1203.6 404.911C1203.36 408.072 1202.2 411.092 1200.24 413.589C1198.29 416.086 1195.64 417.947 1192.63 418.938C1190.63 419.598 1188.52 419.858 1186.42 419.702C1184.32 419.546 1182.28 418.978 1180.4 418.03C1178.52 417.082 1176.85 415.773 1175.47 414.177C1174.1 412.582 1173.06 410.731 1172.4 408.732" fill="#F74E4B"/>
<path d="M1172.1 399.684L1155.79 457.149L1179.84 465.849L1202.51 409.593L1172.1 399.684Z" fill="#F74E4B"/>
<path d="M1161.15 450.601C1163.31 449.286 1165.82 448.642 1168.35 448.75C1170.87 448.859 1173.31 449.715 1175.36 451.21C1177.4 452.705 1178.95 454.772 1179.82 457.15C1180.69 459.528 1180.83 462.109 1180.23 464.568C1179.63 467.027 1178.32 469.253 1176.45 470.965C1174.59 472.676 1172.25 473.796 1169.75 474.183C1167.25 474.57 1164.69 474.207 1162.4 473.139C1160.1 472.071 1158.18 470.346 1156.86 468.183C1155.1 465.282 1154.56 461.801 1155.37 458.505C1156.17 455.208 1158.25 452.366 1161.15 450.601" fill="#F74E4B"/>
<path d="M1169.36 448.846L1099.86 449.426L1095.47 462.596L1164.76 473.969L1169.36 448.846Z" fill="#F74E4B"/>
<path d="M1100.94 450.096C1101.93 451.88 1102.37 453.917 1102.21 455.951C1102.04 457.984 1101.27 459.923 1100 461.52C1098.73 463.118 1097.02 464.303 1095.08 464.926C1093.13 465.549 1091.05 465.581 1089.09 465.019C1087.13 464.457 1085.37 463.326 1084.06 461.769C1082.74 460.212 1081.91 458.298 1081.68 456.271C1081.45 454.244 1081.82 452.193 1082.76 450.38C1083.69 448.566 1085.15 447.07 1086.93 446.081C1089.32 444.757 1092.14 444.436 1094.77 445.189C1097.4 445.941 1099.62 447.706 1100.94 450.096" fill="#FF9990"/>
<path d="M1099.86 448.532L1095.12 436.115C1094.97 435.685 1094.66 435.331 1094.25 435.124C1093.85 434.918 1093.38 434.875 1092.94 435.006C1092.57 435.122 1092.26 435.373 1092.07 435.707C1091.88 436.041 1091.82 436.434 1091.9 436.81L1094.99 450.642L1099.86 448.532Z" fill="#FF9990"/>
<path d="M844.589 486.75L821.61 503.488L793.862 467.976L785.295 472.686C785.295 472.686 795.584 507.693 809.301 525.366C810.478 526.859 812.106 527.931 813.943 528.422C815.779 528.913 817.726 528.796 819.491 528.09C826.941 525.176 840.731 518.405 857.924 503.811L844.589 486.75Z" fill="#FF9990"/>
<path d="M837.686 491.775L855.069 520.747L872.13 507.61C875.485 505.026 877.74 501.268 878.442 497.091C879.143 492.914 878.24 488.625 875.912 485.086C870.457 476.809 859.216 474.325 851.501 480.575L837.686 491.775Z" fill="#7A000C"/>
<path d="M938.848 731.972L922.632 706.195L903.552 715.855L923.12 745.862L938.451 738.959L938.848 731.972Z" fill="#FBBA99"/>
<path d="M939.155 729.977C939.155 729.977 929.834 745.026 917.376 740.929L903.08 776.523L953.318 740.2L939.155 729.977Z" fill="#980A00"/>
<path d="M953.343 740.122L903.101 776.452L906.258 780.819L956.5 744.489L953.343 740.122Z" fill="#FEE8E8"/>
<path d="M885.929 577.425L905.506 660.361L938.393 715.607L907.136 733.719L867.626 663.374L854.539 610.379L885.929 577.425Z" fill="#636363"/>
<path d="M907.037 735.449L940.778 715.441L931.093 699.44L897.394 720.648L907.037 735.449Z" fill="#90000A"/>
<path d="M788.118 757.36L800.369 729.472L781.661 719.1L767.796 752.137L782.117 760.945L788.118 757.36Z" fill="#FBBA99"/>
<path d="M789.956 756.466C789.956 756.466 772.266 757.195 768.673 744.588L731.175 752.725L789.186 773.419L789.956 756.466Z" fill="#980A00"/>
<path d="M731.201 752.825L729.356 757.888L787.611 779.114L789.456 774.051L731.201 752.825Z" fill="#FEE8E8"/>
<path d="M848.098 554.603V573.435L798.588 649.947L767.604 733.719L797.91 745.838L829.167 669.135L883.403 604.784C889.405 597.786 893.485 589.348 895.24 580.298C897.227 569.537 893.22 555.936 881.309 544.637L848.098 554.603Z" fill="#757575"/>
<path d="M765.271 732.949L800.501 747.41L807.247 729.969L771.09 716.261L765.271 732.949Z" fill="#90000A"/>
<path d="M716.63 511.724H785.858C790.029 511.724 794.029 510.067 796.979 507.118C799.928 504.168 801.585 500.168 801.585 495.997V428.069C801.585 423.897 799.928 419.897 796.979 416.947C794.029 413.998 790.029 412.341 785.858 412.341H716.63C712.459 412.341 708.458 413.998 705.509 416.947C702.559 419.897 700.902 423.897 700.902 428.069V495.997C700.902 500.168 702.559 504.168 705.509 507.118C708.458 510.067 712.459 511.724 716.63 511.724" fill="#D7352C"/>
<path d="M730.049 460.667V463.357C730.045 463.933 730.246 464.492 730.616 464.933C730.986 465.374 731.501 465.67 732.069 465.766L735.248 466.329C735.624 467.715 736.181 469.045 736.903 470.286L735.049 472.951C734.727 473.424 734.578 473.994 734.628 474.564C734.678 475.134 734.923 475.67 735.322 476.08L737.226 477.984C737.636 478.383 738.172 478.628 738.742 478.678C739.312 478.728 739.882 478.579 740.355 478.257L742.938 476.444C744.18 477.164 745.51 477.72 746.895 478.1L747.449 481.27C747.555 481.836 747.853 482.348 748.294 482.718C748.735 483.087 749.291 483.293 749.866 483.298H752.598C753.172 483.291 753.726 483.085 754.165 482.715C754.604 482.345 754.902 481.835 755.007 481.27L755.562 478.1C756.949 477.722 758.282 477.165 759.527 476.444L762.167 478.299C762.64 478.621 763.21 478.769 763.78 478.719C764.351 478.67 764.886 478.425 765.296 478.025L767.2 476.113C767.606 475.708 767.856 475.174 767.906 474.603C767.956 474.032 767.802 473.462 767.473 472.992L765.619 470.344C766.342 469.103 766.899 467.773 767.275 466.387L770.445 465.832C771.011 465.727 771.522 465.428 771.892 464.987C772.262 464.546 772.468 463.991 772.473 463.415V460.725C772.475 460.148 772.273 459.589 771.901 459.148C771.53 458.707 771.014 458.412 770.445 458.316L767.275 457.761C766.9 456.372 766.344 455.039 765.619 453.796L767.473 451.156C767.795 450.682 767.944 450.113 767.894 449.542C767.844 448.972 767.599 448.437 767.2 448.027L765.296 446.123C764.891 445.715 764.354 445.464 763.782 445.414C763.209 445.364 762.637 445.518 762.167 445.85L759.527 447.621C758.286 446.898 756.956 446.341 755.57 445.965L755.007 442.795C754.911 442.226 754.616 441.71 754.175 441.339C753.734 440.967 753.175 440.765 752.598 440.767H749.858C749.29 440.776 748.743 440.984 748.312 441.355C747.881 441.725 747.594 442.235 747.499 442.795L746.944 446.048C745.558 446.424 744.228 446.981 742.988 447.704L740.347 445.85C739.883 445.512 739.314 445.349 738.742 445.39C738.169 445.431 737.629 445.673 737.218 446.073L735.314 447.977C734.906 448.382 734.655 448.919 734.605 449.491C734.555 450.064 734.709 450.636 735.041 451.106L736.895 453.747C736.172 454.987 735.616 456.318 735.239 457.703L732.061 458.266C731.494 458.362 730.98 458.656 730.611 459.096C730.241 459.536 730.039 460.092 730.041 460.667H730.049ZM743.973 462.049V462.008C743.978 460.084 744.747 458.241 746.11 456.884C747.473 455.527 749.319 454.766 751.243 454.769C753.166 454.772 755.01 455.538 756.369 456.899C757.728 458.26 758.492 460.105 758.492 462.028C758.492 463.952 757.728 465.797 756.369 467.158C755.01 468.519 753.166 469.285 751.243 469.288C749.319 469.291 747.473 468.53 746.11 467.173C744.747 465.816 743.978 463.973 743.973 462.049" fill="#FEE8E8"/>
<path d="M851.525 480.6L878.693 471.246C878.693 471.246 899.023 492.081 881.284 544.637L848.081 554.57C846.218 544.143 845.073 533.6 844.654 523.015C830.839 503.678 851.525 480.567 851.525 480.567" fill="#90000A"/>
<path d="M878.726 471.246C871.14 477.624 861.455 480.958 851.55 480.6L863.37 466.652L873.676 463.647L878.726 471.246Z" fill="#FF9990"/>
<path d="M853.238 452.836L858.677 477.098L876.963 471.618L866.226 440.328L853.238 452.836Z" fill="#FF9990"/>
<path d="M856.161 465.849L861.699 449.21L853.852 455.543L856.161 465.849Z" fill="#980A00"/>
<path d="M852.112 409.369C852.112 409.369 842.179 409.982 840.325 422.241C840.325 422.241 839.547 426.902 837.891 439.732C837.014 446.512 840.333 455.75 848.95 456.147C853.139 456.329 857.824 454.492 862.195 451.776L868.42 447.058C883.187 433.64 873.535 408.699 853.594 409.295L852.137 409.369" fill="#FF9990"/>
<path d="M839.332 433.822L835.193 438.648C835.061 438.773 834.963 438.931 834.91 439.105C834.857 439.279 834.85 439.465 834.89 439.642C834.93 439.82 835.016 439.985 835.138 440.119C835.261 440.254 835.417 440.355 835.59 440.411L839.944 441.644L839.332 433.822Z" fill="#FF9990"/>
<path d="M862.849 432.804C862.849 432.804 871.781 403.475 844.638 412.937C844.638 412.937 857.882 396.994 879.611 409.262C884.156 411.828 888.941 417.291 889.545 425.776C890.58 441.346 877.898 440.676 870.216 451.892L866.243 440.303C865.937 438.176 862.865 432.795 862.865 432.795" fill="#980A00"/>
<path d="M861.426 408.384C846.617 422.407 861.094 436.33 861.094 436.33L870.771 422.688C870.771 422.688 863.884 406.058 861.426 408.384Z" fill="#980A00"/>
<path d="M872.17 437.522C872.144 438.682 871.774 439.809 871.107 440.759C870.44 441.709 869.507 442.44 868.425 442.86C867.343 443.28 866.161 443.369 865.028 443.117C863.895 442.865 862.862 442.282 862.06 441.443C861.258 440.604 860.723 439.546 860.522 438.403C860.321 437.26 860.464 436.083 860.932 435.021C861.4 433.959 862.173 433.06 863.152 432.436C864.131 431.813 865.273 431.495 866.434 431.521C867.204 431.538 867.964 431.707 868.67 432.018C869.375 432.329 870.012 432.775 870.545 433.333C871.078 433.89 871.496 434.547 871.774 435.266C872.053 435.985 872.188 436.751 872.17 437.522Z" fill="#FF9990"/>
<path d="M863.776 404.659C863.776 404.659 837.411 394.436 836.111 417.233C836.111 417.233 851.384 423.607 867.128 414.866L863.776 404.659Z" fill="#980A00"/>
<path d="M912.764 438.598C911.371 441.257 909.221 443.442 906.586 444.878C903.95 446.315 900.948 446.937 897.959 446.667C894.97 446.397 892.128 445.246 889.793 443.361C887.458 441.476 885.734 438.94 884.84 436.075C883.946 433.21 883.922 430.144 884.77 427.265C885.619 424.386 887.302 421.824 889.607 419.902C891.912 417.98 894.736 416.784 897.72 416.467C900.705 416.15 903.716 416.724 906.374 418.119C909.936 419.988 912.611 423.195 913.809 427.035C915.007 430.876 914.632 435.035 912.764 438.598Z" fill="#980A00"/>
<path d="M850.714 496.659L830.715 520.83L796.875 491.03L789.748 497.718C789.748 497.718 808.415 529.075 826.079 542.791C827.59 543.946 829.433 544.58 831.334 544.6C833.236 544.619 835.092 544.022 836.625 542.899C843.099 538.222 854.795 528.239 867.824 509.829L850.714 496.659Z" fill="#FF9990"/>
<path d="M844.953 502.925L869.331 526.997L882.576 510.036C883.978 508.289 885.017 506.28 885.631 504.126C886.245 501.972 886.422 499.716 886.151 497.493C885.879 495.27 885.166 493.123 884.053 491.179C882.939 489.236 881.448 487.535 879.667 486.176C877.886 484.818 875.851 483.83 873.683 483.27C871.514 482.71 869.255 482.59 867.039 482.916C864.823 483.243 862.695 484.01 860.78 485.171C858.865 486.333 857.202 487.866 855.888 489.681L844.953 502.925Z" fill="#90000A"/>
<path d="M860.846 519.166L865.092 523.636L878.353 506.675" stroke="black" stroke-width="0.73" stroke-linecap="round" stroke-linejoin="round"/>
<path d="M844.953 502.925L853.827 492.189" stroke="black" stroke-width="0.73" stroke-linecap="round" stroke-linejoin="round"/>
<path d="M798.382 507.304L790.46 500.077C783.679 501.641 776.684 502.058 769.765 501.311C769.436 501.274 769.133 501.112 768.919 500.859C768.705 500.605 768.596 500.28 768.614 499.949C768.632 499.618 768.776 499.306 769.016 499.078C769.256 498.849 769.574 498.721 769.906 498.72L777.397 498.579C772.796 498.227 768.221 497.594 763.698 496.684C763.34 496.557 763.036 496.312 762.837 495.988C762.639 495.665 762.557 495.283 762.607 494.907C762.656 494.53 762.834 494.182 763.109 493.921C763.384 493.66 763.741 493.501 764.12 493.472L776.536 494.184L764.401 491.833C763.941 491.744 763.535 491.479 763.267 491.095C763 490.711 762.893 490.237 762.97 489.775C763.046 489.313 763.3 488.899 763.677 488.622C764.055 488.345 764.525 488.225 764.989 488.29L776.512 489.879L766.976 486.907C766.469 486.734 766.049 486.371 765.804 485.895C765.558 485.42 765.506 484.867 765.657 484.354C765.809 483.841 766.153 483.405 766.618 483.139C767.082 482.873 767.631 482.797 768.151 482.926C771.859 483.952 781.089 486.179 786.048 484.424C784.631 483.311 783.099 482.354 781.478 481.568C780.953 481.312 780.542 480.869 780.327 480.325C780.111 479.782 780.107 479.178 780.314 478.631C780.522 478.085 780.926 477.635 781.448 477.372C781.969 477.108 782.571 477.049 783.134 477.206L790.319 479.358C791.679 479.773 792.851 480.652 793.63 481.841L797.877 488.298L808.133 503.554L798.382 507.304Z" fill="#FF9990"/>
<path d="M576.262 443.399C576.262 443.399 595.624 454.74 595.624 482.421L572.496 491.924L576.262 443.399Z" fill="#878787"/>
<path d="M582.587 487.876L584.201 464.259" stroke="black" stroke-width="0.75" stroke-linecap="round" stroke-linejoin="round"/>
<path d="M503.154 754.281H522.068L553.334 771.01L499.569 770.365L503.154 754.281Z" fill="#070707"/>
<path d="M499.379 777.442L499.569 770.365L553.334 771.01L553.152 778.088L499.379 777.442Z" fill="#FEE8E8"/>
<path d="M525.172 727.618H505.893L503.153 754.281H522.432L525.172 727.618Z" fill="#FEE8E8"/>
<path d="M561.611 754.86H580.518L611.791 771.59L558.019 770.944L561.611 754.86Z" fill="#070707"/>
<path d="M557.829 778.022L558.02 770.944L611.792 771.59L611.602 778.667L557.829 778.022Z" fill="#FEE8E8"/>
<path d="M580.568 728.206H561.289L561.612 754.86H580.883L580.568 728.206Z" fill="#FEE8E8"/>
<path d="M581.702 527.32L588.622 745.043L557.224 744.745L551.976 576.283L532.722 746.434L500.662 745.391L518.633 532.204L531.613 529.952L581.702 527.32Z" fill="#B30018"/>
<path d="M545.312 435.237C537.332 435.878 529.491 437.697 522.043 440.634C520.222 441.371 518.426 442.166 516.787 443.027C511.613 445.725 513.161 451.569 513.815 457.529L516.845 538.155L581.9 536.5L584.483 460.178C584.796 456.194 583.797 452.216 581.639 448.852C579.481 445.488 576.282 442.922 572.53 441.545C564.012 438.54 553.607 435.179 549.079 434.923L545.312 435.237Z" fill="#878787"/>
<path d="M566.652 439.426C566.652 439.426 556.719 435.502 549.087 434.881C544.011 434.804 538.95 435.462 534.062 436.835L556.984 452.232L566.652 439.426Z" fill="#FF9990"/>
<path d="M562.828 417.647L562.265 442.886L541.753 441.28L546.306 408.277L562.828 417.647Z" fill="#FF9990"/>
<path d="M562.589 430.022L550.188 418.077L562.829 418.351L562.589 430.022Z" fill="#980A00"/>
<path d="M567.572 375.604C570.322 376.734 572.71 378.595 574.479 380.985C576.247 383.375 577.328 386.203 577.605 389.163C578.325 396.083 578.971 406.811 576.777 412.068C573.466 420.197 566.38 424.965 555.693 422.059C555.693 422.059 543.186 420.536 541.381 401.679C539.237 379.329 554.907 370.612 567.531 375.604" fill="#FF9990"/>
<path d="M547.217 401.654C547.217 401.654 552.283 392.126 550.445 381.787C550.445 381.787 565.056 381.655 574.84 381.531C574.84 381.531 572.746 368.783 551.952 370.43C523.484 372.69 531.804 403.028 545.379 408.227L547.217 401.654Z" fill="#980A00"/>
<path d="M534.883 405.156C535.182 406.478 535.866 407.682 536.849 408.616C537.832 409.549 539.07 410.17 540.406 410.401C541.742 410.631 543.116 410.459 544.355 409.908C545.593 409.357 546.641 408.451 547.365 407.305C548.088 406.158 548.456 404.823 548.421 403.468C548.385 402.113 547.949 400.798 547.167 399.691C546.385 398.584 545.292 397.733 544.026 397.247C542.76 396.761 541.379 396.662 540.057 396.961C538.284 397.362 536.743 398.45 535.773 399.987C534.803 401.524 534.483 403.383 534.883 405.156Z" fill="#FF9990"/>
<path d="M615.491 484.954L603.48 540.771C603.275 541.699 602.756 542.529 602.012 543.12C601.267 543.711 600.342 544.027 599.391 544.016L554.691 543.188C554.082 543.173 553.483 543.023 552.939 542.75C552.394 542.477 551.917 542.087 551.54 541.607C551.164 541.128 550.898 540.572 550.761 539.978C550.625 539.384 550.621 538.767 550.751 538.172L563.341 482.404C563.554 481.485 564.075 480.666 564.817 480.084C565.56 479.501 566.479 479.19 567.422 479.201L611.559 479.979C612.163 479.996 612.756 480.144 613.297 480.415C613.837 480.685 614.312 481.071 614.687 481.544C615.063 482.017 615.33 482.567 615.47 483.155C615.611 483.742 615.621 484.354 615.5 484.946" fill="#3C3E46"/>
<path d="M614.258 481.055L616.89 483.778L554.318 544.521L551.495 541.591L614.258 481.055Z" fill="#0B0B0C"/>
<path d="M617.851 487.388L605.84 543.205C605.635 544.133 605.116 544.962 604.371 545.553C603.627 546.144 602.701 546.461 601.751 546.45L557.05 545.663C556.442 545.648 555.845 545.498 555.301 545.226C554.757 544.953 554.28 544.563 553.904 544.085C553.527 543.607 553.261 543.052 553.124 542.459C552.987 541.866 552.982 541.25 553.11 540.655L565.668 484.846C565.879 483.926 566.399 483.105 567.142 482.521C567.884 481.936 568.804 481.624 569.749 481.635L613.886 482.413C614.49 482.429 615.083 482.578 615.623 482.848C616.164 483.119 616.638 483.504 617.014 483.978C617.389 484.451 617.656 485.001 617.797 485.588C617.937 486.176 617.947 486.787 617.826 487.379" fill="#A5271D"/>
<path d="M618.752 507.188L614.944 522.601C614.721 523.523 614.188 524.34 613.435 524.915C612.681 525.491 611.753 525.79 610.806 525.764C609.466 525.739 608.148 525.422 606.943 524.835C605.739 524.248 604.677 523.405 603.832 522.366C602.987 521.326 602.379 520.114 602.051 518.815C601.723 517.516 601.682 516.161 601.932 514.845L602.908 509.705C603.294 507.705 604.33 505.89 605.856 504.542C607.382 503.194 609.312 502.39 611.344 502.255L614.415 502.056C615.067 502.011 615.72 502.122 616.321 502.378C616.922 502.634 617.454 503.029 617.873 503.531C618.292 504.032 618.587 504.626 618.732 505.263C618.878 505.9 618.871 506.563 618.711 507.196" fill="#FF9990"/>
<path d="M523.418 468.084L484.512 502.851C482.791 504.69 480.462 505.844 477.956 506.099C475.45 506.355 472.936 505.695 470.878 504.241C469.599 503.319 468.526 502.141 467.727 500.782C466.927 499.423 466.418 497.913 466.233 496.347C466.048 494.781 466.19 493.194 466.651 491.685C467.111 490.177 467.88 488.782 468.908 487.586L505.331 451.048C509.701 445.998 517.259 444.848 522.358 449.094C523.71 450.246 524.813 451.66 525.601 453.251C526.39 454.842 526.846 456.576 526.944 458.349C527.041 460.122 526.778 461.896 526.169 463.563C525.56 465.231 524.618 466.758 523.401 468.051" fill="#FF9990"/>
<path d="M524.279 439.782C524.279 439.782 508.651 442.944 489.256 467.008L505.869 489.3L531.175 470.501L524.279 439.782Z" fill="#878787"/>
<path d="M514.462 482.918L529.147 472.016" stroke="black" stroke-width="0.75" stroke-linecap="round" stroke-linejoin="round"/>
<path d="M481.35 484.01L539.419 507.544L532.308 516.782L473.801 505.706L481.35 484.01Z" fill="#FF9990"/>
<path d="M498.055 490.781L485.696 485.773" stroke="black" stroke-width="0.75" stroke-linecap="round" stroke-linejoin="round"/>
<path d="M526.804 509.44C526.804 509.44 525.314 498.463 534.734 493.306C544.154 488.149 550.346 494.631 550.669 500.508C550.991 506.385 548.127 517.386 536.596 517.287C525.065 517.188 526.77 509.44 526.77 509.44" fill="#FF9990"/>
<path d="M538.003 491.932C538.003 491.932 548.127 488.911 556.81 489.341C557.242 489.367 557.655 489.53 557.99 489.805C558.324 490.08 558.563 490.453 558.673 490.873C558.749 491.144 558.769 491.429 558.732 491.709C558.695 491.989 558.601 492.259 558.456 492.501C558.311 492.744 558.119 492.954 557.89 493.12C557.661 493.285 557.4 493.402 557.125 493.464L542.738 496.667L538.003 491.932Z" fill="#FF9990"/>
<path d="M351.206 484.3L307.747 468.241L309.783 488.787C309.783 488.787 333.185 498.968 347.928 501.278C362.67 503.587 351.239 484.3 351.239 484.3" fill="#FF9990"/>
<path d="M296.382 467.446C296.382 467.446 296.813 462.057 307.748 464.135C321.762 466.825 339.75 476.196 339.75 476.196L323.418 504.2L292.467 492.611L296.382 467.446Z" fill="#D7352C"/>
<path d="M310.777 760.961L308.931 725.433L291.481 727.734L294.917 764.893L311.613 761.938L310.777 760.961Z" fill="#FF9990"/>
<path d="M292.483 756.582C292.483 756.582 304.229 762.633 310.752 753.635L342.432 770.654L288.179 770.315L292.483 756.582Z" fill="#980A00"/>
<path d="M288.164 770.283L288.133 775.192L342.385 775.533L342.415 770.624L288.164 770.283Z" fill="#FEE8E8"/>
<path d="M291.962 524.903C291.962 524.903 307.623 534.149 309.494 585.811C311.365 637.473 314.585 739.588 314.585 739.588H288.179L274.611 555.903L278.162 524.903H291.962Z" fill="#878787"/>
<path d="M265.2 760.961L266.913 725.433L249.463 727.734L249.331 764.893L266.027 761.938L265.2 760.961Z" fill="#FF9990"/>
<path d="M246.897 756.582C246.897 756.582 260.39 762.377 266.913 753.354L296.846 770.654L242.593 770.315L246.897 756.582Z" fill="#980A00"/>
<path d="M242.581 770.282L242.55 775.191L296.802 775.532L296.832 770.623L242.581 770.282Z" fill="#FEE8E8"/>
<path d="M256.176 531.599C256.176 531.599 240.341 549.926 242.667 582.044L243.445 739.911L273.452 739.124L282.947 529.753L256.176 531.599Z" fill="#878787"/>
<path d="M279.155 614.063L280.844 572.74L290.686 561.474" stroke="black" stroke-width="0.7" stroke-linecap="round" stroke-linejoin="round"/>
<path d="M290.836 440.833L290.439 465.021L272.642 466.412L274.363 429.095L290.836 440.833Z" fill="#FF9990"/>
<path d="M290.63 453.457L278.039 439.881L290.837 440.833L290.63 453.457Z" fill="#980A00"/>
<path d="M260.266 460.526L277.923 459.053L306.365 463.92C306.365 463.92 308.584 505.715 303.791 526.98C303.393 528.782 302.36 530.381 300.882 531.486C299.403 532.59 297.577 533.127 295.736 532.998L254.679 533.586C252.829 532.055 251.344 530.132 250.33 527.956C249.316 525.779 248.8 523.405 248.818 521.004L251.765 464.599C251.856 462.827 258.511 460.692 260.266 460.526" fill="#D7352C"/>
<path d="M306.705 497.942L306.879 481.875" stroke="black" stroke-width="0.73" stroke-linecap="round" stroke-linejoin="round"/>
<path d="M266.631 459.996L279.412 458.713L296.357 462.215C296.357 462.215 296.291 474.631 282.574 473.804C268.858 472.976 266.623 460.021 266.623 460.021" fill="#FF9990"/>
<path d="M260.266 408.252C260.266 408.252 243.925 393.972 234 402.3C226.136 408.922 226.161 421.215 226.509 426.066C226.741 428.94 226.46 431.832 225.681 434.608C224.671 438.126 221.285 442.216 217.18 444.268L242.344 454.483C242.344 454.483 238.114 445.038 243.213 441.024C248.313 437.009 253.503 436.222 254.637 431.653C256.292 425.031 243.437 410.048 258.354 414.179L260.266 408.252Z" fill="#980A00"/>
<path d="M266.325 407.027C266.325 407.027 259.322 401.861 256.508 408.558C254.306 413.798 255.39 416.935 259.819 417.175C264.247 417.415 266.358 407.027 266.358 407.027" fill="#B30018"/>
<path d="M299.088 405.677C300.683 406.741 301.87 408.314 302.457 410.139C304.27 415.511 307.904 426.695 306.704 432.812C305.131 440.75 299.568 446.354 289.32 445.734C289.32 445.734 276.945 444.964 272.641 430.006C265.803 406.298 285.272 396.712 299.072 405.644" fill="#FF9990"/>
<path d="M277.26 428.665C277.26 428.665 281.043 422.87 278.51 412.647C286.467 412.03 294.38 410.944 302.209 409.394C302.209 409.394 297.425 393.666 274.743 400.479C251.168 407.573 254.786 435.246 273.717 442.977L277.26 428.665Z" fill="#980A00"/>
<path d="M265.762 433.855C266.334 435.127 267.271 436.2 268.453 436.94C269.636 437.679 271.011 438.051 272.405 438.01C273.798 437.968 275.149 437.514 276.285 436.704C277.421 435.895 278.291 434.768 278.786 433.464C279.281 432.16 279.379 430.739 279.066 429.38C278.754 428.021 278.045 426.785 277.031 425.828C276.016 424.871 274.74 424.237 273.365 424.005C271.99 423.774 270.577 423.955 269.305 424.526C268.459 424.905 267.697 425.446 267.062 426.12C266.426 426.793 265.929 427.586 265.6 428.452C265.271 429.317 265.116 430.239 265.144 431.165C265.171 432.091 265.381 433.002 265.762 433.847" fill="#FF9990"/>
<path d="M284.669 398.724C288.874 398.509 301.862 397.697 308.236 404.469C310.719 407.118 308.848 411.364 304.924 411.977L280.737 416.364C279.61 416.59 278.44 416.41 277.434 415.855C276.427 415.301 275.65 414.408 275.24 413.334L274.04 409.675C273.766 408.745 273.801 407.751 274.14 406.842C274.479 405.933 275.103 405.159 275.919 404.634L280.662 400.495C281.49 399.916 283.617 398.74 284.644 398.682" fill="#980A00"/>
<path d="M390.17 466.859L356.396 498.935C355.369 499.909 354.132 500.633 352.78 501.053C351.428 501.472 349.998 501.575 348.6 501.353C347.202 501.132 345.874 500.591 344.718 499.775C343.563 498.958 342.61 497.886 341.935 496.642L338.682 487.644L385.865 456.039L390.17 466.859Z" fill="#FF9990"/>
<path d="M383.581 462.355C384.21 464.297 385.4 466.007 387.002 467.272C388.603 468.536 390.544 469.297 392.578 469.458C394.612 469.619 396.648 469.174 398.428 468.177C400.209 467.181 401.654 465.679 402.581 463.861C403.508 462.043 403.875 459.992 403.635 457.965C403.396 455.939 402.561 454.029 401.236 452.478C399.91 450.926 398.155 449.803 396.191 449.249C394.227 448.695 392.143 448.737 390.203 449.368C388.915 449.785 387.722 450.453 386.692 451.331C385.662 452.21 384.816 453.283 384.201 454.489C383.586 455.696 383.214 457.011 383.108 458.361C383.002 459.71 383.162 461.068 383.581 462.355" fill="#FF9990"/>
<path d="M390.724 449.21L401.733 441.86C402.106 441.597 402.566 441.487 403.017 441.553C403.468 441.62 403.877 441.857 404.159 442.216C404.392 442.522 404.501 442.906 404.464 443.289C404.427 443.673 404.247 444.028 403.96 444.285L393.447 453.788L390.724 449.21Z" fill="#FF9990"/>
<path d="M218.438 506.923L249.894 536.723L242.742 545.059L204.002 519.671C203.03 518.746 202.261 517.629 201.745 516.39C201.229 515.152 200.975 513.82 201.002 512.479C201.028 511.137 201.334 509.816 201.898 508.599C202.463 507.382 203.275 506.296 204.282 505.41C205.289 504.524 206.47 503.857 207.749 503.452C209.028 503.047 210.377 502.912 211.711 503.057C213.045 503.201 214.334 503.622 215.496 504.292C216.659 504.962 217.669 505.866 218.463 506.948" fill="#FF9990"/>
<path d="M273.444 539.728L262.526 533.934L263.651 531.533C263.856 531.102 263.911 530.614 263.806 530.148C263.701 529.682 263.443 529.265 263.074 528.963C262.704 528.661 262.243 528.491 261.766 528.481C261.288 528.472 260.821 528.622 260.44 528.909L249.869 536.715L242.717 545.051C248.586 550.258 252.476 550.266 254.736 549.314C254.993 549.413 255.258 549.513 255.523 549.587L264.628 552.385C265.033 552.568 265.493 552.59 265.914 552.447C266.335 552.304 266.686 552.007 266.896 551.615C267.211 551.019 267.335 550.067 265.58 549.132L267.335 550.059C267.76 550.253 268.244 550.275 268.685 550.12C269.126 549.966 269.491 549.648 269.702 549.231C270.108 548.461 269.645 547.427 268.626 546.748L269.959 547.302C270.193 547.408 270.446 547.465 270.702 547.469C270.959 547.473 271.213 547.424 271.45 547.325C271.687 547.227 271.901 547.08 272.078 546.896C272.256 546.711 272.394 546.491 272.484 546.251C272.629 545.811 272.61 545.333 272.433 544.904C272.255 544.476 271.929 544.125 271.515 543.917L269.587 542.899L271.888 543.495C272.142 543.591 272.414 543.634 272.685 543.623C272.957 543.611 273.224 543.545 273.469 543.427C273.714 543.309 273.933 543.143 274.112 542.939C274.292 542.734 274.428 542.495 274.512 542.236C274.658 541.763 274.63 541.253 274.435 540.798C274.239 540.343 273.888 539.973 273.444 539.753" fill="#FF9990"/>
<path d="M208.91 515.143L203.943 505.632L228.777 481.709C232.874 476.618 252.584 460.973 256.309 466.345C259.041 470.286 248.288 492.007 244.836 495.359L219.315 518.413L208.91 515.143Z" fill="#FF9990"/>
<path d="M266.632 460.12C266.632 460.12 254.72 460.211 245.937 464.028C228.984 471.478 218.579 487.148 218.579 487.148L240.764 505.922L271.209 481.386L266.632 460.12Z" fill="#D7352C"/>
<path d="M249.869 498.579L262.691 488.886" stroke="black" stroke-width="0.73" stroke-linecap="round" stroke-linejoin="round"/>
<defs>
<linearGradient id="paint0_linear" x1="800" y1="0" x2="800" y2="899" gradientUnits="userSpaceOnUse">
<stop stop-color="white"/>
<stop offset="0.619792" stop-color="#858585" stop-opacity="0.36"/>
<stop offset="1" stop-opacity="0.49"/>
</linearGradient>
</defs>
</svg>
